<?xml version="1.0" standalone="no"?>
<!DOCTYPE svg PUBLIC "-//W3C//DTD SVG 1.1//EN" "http://www.w3.org/Graphics/SVG/1.1/DTD/svg11.dtd">
<svg width="140.0mm" height="190.9mm"
 viewBox="0 0 140.0 190.9"
 xmlns="http://www.w3.org/2000/svg" version="1.1"
 xmlns:xlink="http://www.w3.org/1999/xlink">
<desc>Output from Flights of Ideas SVG Sketchup Plugin</desc>

  <g id="face0" fill="none" stroke="rgb(0,0,255)" stroke-width="0.5" stroke-miterlimit="4" stroke-dasharray="none" stroke-linejoin="round" stroke-linecap="round">
    <line x1="120.0" y1="15.4500000000001" x2="100.0" y2="15.4500000000001"/>
    <line x1="100.0" y1="15.4500000000001" x2="100.0" y2="12.0000000000001"/>
    <line x1="100.0" y1="12.0000000000001" x2="99.9318516525781" y2="11.482361909795"/>
    <line x1="99.9318516525781" y1="11.482361909795" x2="99.7320508075689" y2="11.0000000000001"/>
    <line x1="99.7320508075689" y1="11.0000000000001" x2="99.4142135623731" y2="10.585786437627"/>
    <line x1="99.4142135623731" y1="10.585786437627" x2="99.0" y2="10.2679491924312"/>
    <line x1="99.0" y1="10.2679491924312" x2="98.5176380902051" y2="10.0681483474219"/>
    <line x1="98.5176380902051" y1="10.0681483474219" x2="98.0" y2="10.0000000000001"/>
    <line x1="98.0" y1="10.0000000000001" x2="62.0" y2="10.0"/>
    <line x1="62.0" y1="10.0" x2="61.482361909795" y2="10.0681483474219"/>
    <line x1="61.482361909795" y1="10.0681483474219" x2="61.0" y2="10.2679491924312"/>
    <line x1="61.0" y1="10.2679491924312" x2="60.5857864376269" y2="10.5857864376269"/>
    <line x1="60.5857864376269" y1="10.5857864376269" x2="60.2679491924311" y2="11.0000000000001"/>
    <line x1="60.2679491924311" y1="11.0000000000001" x2="60.0681483474219" y2="11.4823619097951"/>
    <line x1="60.0681483474219" y1="11.4823619097951" x2="60.0" y2="12.0"/>
    <line x1="60.0" y1="12.0" x2="60.0" y2="15.4500000000001"/>
    <line x1="60.0" y1="15.4500000000001" x2="20.0" y2="15.4500000000001"/>
    <line x1="20.0" y1="15.4500000000001" x2="17.4118095489748" y2="15.7907417371162"/>
    <line x1="17.4118095489748" y1="15.7907417371162" x2="15.0" y2="16.7897459621563"/>
    <line x1="15.0" y1="16.7897459621563" x2="12.9289321881346" y2="18.3789321881349"/>
    <line x1="12.9289321881346" y1="18.3789321881349" x2="11.3397459621556" y2="20.4500000000004"/>
    <line x1="11.3397459621556" y1="20.4500000000004" x2="10.3407417371093" y2="22.8618095489744"/>
    <line x1="10.3407417371093" y1="22.8618095489744" x2="10.0" y2="25.45"/>
    <line x1="10.0" y1="25.45" x2="10.0" y2="35.45"/>
    <line x1="10.0" y1="35.45" x2="10.0" y2="105.45"/>
    <line x1="10.0" y1="105.45" x2="10.0" y2="135.45"/>
    <line x1="10.0" y1="135.45" x2="10.0" y2="165.45"/>
    <line x1="10.0" y1="165.45" x2="10.3407417371093" y2="168.038190451025"/>
    <line x1="10.3407417371093" y1="168.038190451025" x2="11.3397459621557" y2="170.45"/>
    <line x1="11.3397459621557" y1="170.45" x2="12.9289321881346" y2="172.521067811866"/>
    <line x1="12.9289321881346" y1="172.521067811866" x2="15.0000000000001" y2="174.110254037845"/>
    <line x1="15.0000000000001" y1="174.110254037845" x2="17.4118095489748" y2="175.109258262891"/>
    <line x1="17.4118095489748" y1="175.109258262891" x2="20.0" y2="175.45"/>
    <line x1="20.0" y1="175.45" x2="60.0" y2="175.45"/>
    <line x1="60.0" y1="175.45" x2="60.0" y2="178.9"/>
    <line x1="60.0" y1="178.9" x2="60.0681483474219" y2="179.417638090205"/>
    <line x1="60.0681483474219" y1="179.417638090205" x2="60.2679491924312" y2="179.9"/>
    <line x1="60.2679491924312" y1="179.9" x2="60.5857864376269" y2="180.314213562373"/>
    <line x1="60.5857864376269" y1="180.314213562373" x2="61.0" y2="180.632050807569"/>
    <line x1="61.0" y1="180.632050807569" x2="61.482361909795" y2="180.831851652578"/>
    <line x1="61.482361909795" y1="180.831851652578" x2="62.0" y2="180.9"/>
    <line x1="62.0" y1="180.9" x2="98.0" y2="180.9"/>
    <line x1="98.0" y1="180.9" x2="98.5176380902051" y2="180.831851652578"/>
    <line x1="98.5176380902051" y1="180.831851652578" x2="99.0" y2="180.632050807569"/>
    <line x1="99.0" y1="180.632050807569" x2="99.4142135623731" y2="180.314213562373"/>
    <line x1="99.4142135623731" y1="180.314213562373" x2="99.7320508075689" y2="179.9"/>
    <line x1="99.7320508075689" y1="179.9" x2="99.9318516525782" y2="179.417638090205"/>
    <line x1="99.9318516525782" y1="179.417638090205" x2="100.0" y2="178.9"/>
    <line x1="100.0" y1="178.9" x2="100.0" y2="175.45"/>
    <line x1="100.0" y1="175.45" x2="120.0" y2="175.45"/>
    <line x1="120.0" y1="175.45" x2="122.588190451025" y2="175.109258262891"/>
    <line x1="122.588190451025" y1="175.109258262891" x2="125.0" y2="174.110254037845"/>
    <line x1="125.0" y1="174.110254037845" x2="127.071067811866" y2="172.521067811866"/>
    <line x1="127.071067811866" y1="172.521067811866" x2="128.660254037844" y2="170.45"/>
    <line x1="128.660254037844" y1="170.45" x2="129.659258262891" y2="168.038190451025"/>
    <line x1="129.659258262891" y1="168.038190451025" x2="130.0" y2="165.45"/>
    <line x1="130.0" y1="165.45" x2="130.0" y2="25.4500000000001"/>
    <line x1="130.0" y1="25.4500000000001" x2="129.659258262891" y2="22.8618095489749"/>
    <line x1="129.659258262891" y1="22.8618095489749" x2="128.660254037844" y2="20.4500000000001"/>
    <line x1="128.660254037844" y1="20.4500000000001" x2="127.071067811866" y2="18.3789321881346"/>
    <line x1="127.071067811866" y1="18.3789321881346" x2="125.0" y2="16.7897459621557"/>
    <line x1="125.0" y1="16.7897459621557" x2="122.588190451025" y2="15.7907417371094"/>
    <line x1="122.588190451025" y1="15.7907417371094" x2="120.0" y2="15.4500000000001"/>
    <line x1="19.0" y1="125.45" x2="21.2" y2="125.45"/>
    <line x1="21.2" y1="125.45" x2="21.2" y2="165.45"/>
    <line x1="21.2" y1="165.45" x2="19.0" y2="165.45"/>
    <line x1="19.0" y1="165.45" x2="15.0" y2="165.45"/>
    <line x1="15.0" y1="165.45" x2="15.0" y2="125.45"/>
    <line x1="15.0" y1="125.45" x2="19.0" y2="125.45"/>
    <line x1="19.0" y1="25.4500000000002" x2="21.2" y2="25.4500000000001"/>
    <line x1="21.2" y1="25.4500000000001" x2="21.2" y2="65.4500000000001"/>
    <line x1="21.2" y1="65.4500000000001" x2="19.0" y2="65.4500000000001"/>
    <line x1="19.0" y1="65.4500000000001" x2="15.0" y2="65.4500000000001"/>
    <line x1="15.0" y1="65.4500000000001" x2="15.0" y2="25.45"/>
    <line x1="15.0" y1="25.45" x2="19.0" y2="25.4500000000002"/>
    <line x1="50.0" y1="160.45" x2="35.0" y2="160.45"/>
    <line x1="35.0" y1="160.45" x2="35.0" y2="130.45"/>
    <line x1="35.0" y1="130.45" x2="50.0" y2="130.45"/>
    <line x1="50.0" y1="130.45" x2="50.0" y2="160.45"/>
    <line x1="70.0" y1="80.4500000000001" x2="90.0" y2="80.4500000000001"/>
    <line x1="90.0" y1="80.4500000000001" x2="90.0" y2="110.45"/>
    <line x1="90.0" y1="110.45" x2="70.0" y2="110.45"/>
    <line x1="70.0" y1="110.45" x2="70.0" y2="80.4500000000001"/>
    <line x1="100.0" y1="45.4500000000001" x2="120.0" y2="45.4500000000001"/>
    <line x1="120.0" y1="45.4500000000001" x2="120.0" y2="60.4500000000001"/>
    <line x1="120.0" y1="60.4500000000001" x2="100.0" y2="60.4500000000001"/>
    <line x1="100.0" y1="60.4500000000001" x2="100.0" y2="45.4500000000001"/>
  </g>
</svg>
