<?xml version="1.0" standalone="no"?>
<!DOCTYPE svg PUBLIC "-//W3C//DTD SVG 1.1//EN" "http://www.w3.org/Graphics/SVG/1.1/DTD/svg11.dtd">
<svg width="140.00000000000003mm" height="180.00000000000003mm"
 viewBox="0 0 140.00000000000003 180.00000000000003"
 xmlns="http://www.w3.org/2000/svg" version="1.1"
 xmlns:xlink="http://www.w3.org/1999/xlink">
<desc>Output from Flights of Ideas SVG Sketchup Plugin</desc>

  <path id="face0-cut"
 style="fill:none;stroke:#0000FF;stroke-width:1;stroke-miterlimit:4;stroke-dasharray:none;stroke-linejoin:round;stroke-linecap:round"
        d="M 127.00000000000003,114.99999999999999 L 127.00000000000003,90.0 L 127.00000000000003,65.0 L 130.00000000000003,65.0 L 130.00000000000003,20.000000000000007 L 129.65925826289072,17.411809548974787 L 128.66025403784437,15.000000000000002 L 127.07106781186549,12.928932188134533 L 125.00000000000003,11.339745962155602 L 122.5881904510252,10.340741737109306 L 120.0,10.0 L 100.0,10.0 L 100.0,12.999999999999995 L 60.00000000000006,12.999999999999972 L 60.00000000000003,10.000000000000023 L 20.00000000000003,10.0 L 17.411809548974823,10.34074173710933 L 15.000000000000014,11.339745962155646 L 12.928932188134556,12.928932188134489 L 11.339745962155646,14.99999999999998 L 10.340741737109353,17.411809548974773 L 10.000000000000046,20.000000000000007 L 10.000000000000023,49.999999999999986 L 10.000000000000023,79.99999999999999 L 10.000000000000023,150.0 L 10.0,159.99999999999994 L 10.340741737109353,162.58819045102518 L 11.339745962155646,165.0 L 12.928932188134535,167.07106781186542 L 15.000000000000036,168.66025403784442 L 17.411809548974823,169.65925826289063 L 20.00000000000003,170.00000000000003 L 60.00000000000003,169.99999999999997 L 60.000000000000014,166.99999999999997 L 100.00000000000001,167.0 L 100.0,170.0 L 120.0,170.0 L 122.5881904510252,169.6592582628907 L 124.99999999999999,168.66025403784437 L 127.07106781186549,167.07106781186545 L 128.66025403784437,165.0 L 129.65925826289072,162.58819045102518 L 130.00000000000003,160.0 L 130.00000000000003,114.99999999999999 L 127.00000000000003,114.99999999999999 M 70.00000000000001,75.00000000000001 L 90.00000000000001,75.0 L 90.00000000000001,105.0 L 70.00000000000003,105.0 L 70.00000000000001,75.00000000000001 M 12.500000000000018,20.000000000000014 L 15.49999999999999,19.999999999999993 L 15.500000000000014,59.99999999999994 L 12.500000000000018,60.0 L 12.499999999999996,40.000000000000036 L 12.500000000000018,20.000000000000014 M 15.500000000000014,119.99999999999996 L 15.500000000000014,160.0 L 12.500000000000018,160.0 L 12.500000000000018,139.99999999999994 L 12.500000000000018,120.00000000000028 L 15.500000000000014,119.99999999999996 M 100.00000000000001,139.99999999999997 L 100.00000000000001,124.99999999999999 L 120.0,124.99999999999999 L 120.0,139.99999999999997 L 100.00000000000001,139.99999999999997 "
  />
  <path id="face0-interior"
 style="fill:none;stroke:#FF0000;stroke-width:1;stroke-miterlimit:4;stroke-dasharray:none;stroke-linejoin:round;stroke-linecap:round"
        d="M 127.00000000000003,114.99999999999999 M 127.00000000000003,90.0 M 127.00000000000003,65.0 M 130.00000000000003,65.0 M 130.00000000000003,20.000000000000007 M 129.65925826289072,17.411809548974787 M 128.66025403784437,15.000000000000002 M 127.07106781186549,12.928932188134533 M 125.00000000000003,11.339745962155602 M 122.5881904510252,10.340741737109306 M 120.0,10.0 M 100.0,10.0 M 100.0,12.999999999999995 M 60.00000000000006,12.999999999999972 M 60.00000000000003,10.000000000000023 M 20.00000000000003,10.0 M 17.411809548974823,10.34074173710933 M 15.000000000000014,11.339745962155646 M 12.928932188134556,12.928932188134489 M 11.339745962155646,14.99999999999998 M 10.340741737109353,17.411809548974773 M 10.000000000000046,20.000000000000007 M 10.000000000000023,49.999999999999986 M 10.000000000000023,79.99999999999999 M 10.000000000000023,150.0 M 10.0,159.99999999999994 M 10.340741737109353,162.58819045102518 M 11.339745962155646,165.0 M 12.928932188134535,167.07106781186542 M 15.000000000000036,168.66025403784442 M 17.411809548974823,169.65925826289063 M 20.00000000000003,170.00000000000003 M 60.00000000000003,169.99999999999997 M 60.000000000000014,166.99999999999997 M 100.00000000000001,167.0 M 100.0,170.0 M 120.0,170.0 M 122.5881904510252,169.6592582628907 M 124.99999999999999,168.66025403784437 M 127.07106781186549,167.07106781186545 M 128.66025403784437,165.0 M 129.65925826289072,162.58819045102518 M 130.00000000000003,160.0 M 130.00000000000003,114.99999999999999 M 70.00000000000001,75.00000000000001 M 90.00000000000001,75.0 M 90.00000000000001,105.0 M 70.00000000000003,105.0 M 12.500000000000018,20.000000000000014 M 15.49999999999999,19.999999999999993 M 15.500000000000014,59.99999999999994 M 12.500000000000018,60.0 M 12.499999999999996,40.000000000000036 M 15.500000000000014,119.99999999999996 M 15.500000000000014,160.0 M 12.500000000000018,160.0 M 12.500000000000018,139.99999999999994 M 12.500000000000018,120.00000000000028 M 100.00000000000001,139.99999999999997 M 100.00000000000001,124.99999999999999 M 120.0,124.99999999999999 M 120.0,139.99999999999997 "
  />
  <path id="face0-interior"
 style="fill:none;stroke:#00FF00;stroke-width:1;stroke-miterlimit:4;stroke-dasharray:none;stroke-linejoin:round;stroke-linecap:round"
        d="M 127.00000000000003,114.99999999999999 M 127.00000000000003,90.0 M 127.00000000000003,65.0 M 130.00000000000003,65.0 M 130.00000000000003,20.000000000000007 M 129.65925826289072,17.411809548974787 M 128.66025403784437,15.000000000000002 M 127.07106781186549,12.928932188134533 M 125.00000000000003,11.339745962155602 M 122.5881904510252,10.340741737109306 M 120.0,10.0 M 100.0,10.0 M 100.0,12.999999999999995 M 60.00000000000006,12.999999999999972 M 60.00000000000003,10.000000000000023 M 20.00000000000003,10.0 M 17.411809548974823,10.34074173710933 M 15.000000000000014,11.339745962155646 M 12.928932188134556,12.928932188134489 M 11.339745962155646,14.99999999999998 M 10.340741737109353,17.411809548974773 M 10.000000000000046,20.000000000000007 M 10.000000000000023,49.999999999999986 M 10.000000000000023,79.99999999999999 M 10.000000000000023,150.0 M 10.0,159.99999999999994 M 10.340741737109353,162.58819045102518 M 11.339745962155646,165.0 M 12.928932188134535,167.07106781186542 M 15.000000000000036,168.66025403784442 M 17.411809548974823,169.65925826289063 M 20.00000000000003,170.00000000000003 M 60.00000000000003,169.99999999999997 M 60.000000000000014,166.99999999999997 M 100.00000000000001,167.0 M 100.0,170.0 M 120.0,170.0 M 122.5881904510252,169.6592582628907 M 124.99999999999999,168.66025403784437 M 127.07106781186549,167.07106781186545 M 128.66025403784437,165.0 M 129.65925826289072,162.58819045102518 M 130.00000000000003,160.0 M 130.00000000000003,114.99999999999999 M 70.00000000000001,75.00000000000001 M 90.00000000000001,75.0 M 90.00000000000001,105.0 M 70.00000000000003,105.0 M 12.500000000000018,20.000000000000014 M 15.49999999999999,19.999999999999993 M 15.500000000000014,59.99999999999994 M 12.500000000000018,60.0 M 12.499999999999996,40.000000000000036 M 15.500000000000014,119.99999999999996 M 15.500000000000014,160.0 M 12.500000000000018,160.0 M 12.500000000000018,139.99999999999994 M 12.500000000000018,120.00000000000028 M 100.00000000000001,139.99999999999997 M 100.00000000000001,124.99999999999999 M 120.0,124.99999999999999 M 120.0,139.99999999999997 "
  />
</svg>
