<?xml version="1.0" encoding="UTF-8" standalone="no"?>
<!-- Created with Inkscape (http://www.inkscape.org/) -->

<svg
   xmlns:dc="http://purl.org/dc/elements/1.1/"
   xmlns:cc="http://creativecommons.org/ns#"
   xmlns:rdf="http://www.w3.org/1999/02/22-rdf-syntax-ns#"
   xmlns:svg="http://www.w3.org/2000/svg"
   xmlns="http://www.w3.org/2000/svg"
   xmlns:sodipodi="http://sodipodi.sourceforge.net/DTD/sodipodi-0.dtd"
   xmlns:inkscape="http://www.inkscape.org/namespaces/inkscape"
   width="680.31494"
   height="793.70074"
   id="svg7340"
   version="1.1"
   inkscape:version="0.48.5 r10040"
   sodipodi:docname="New document 2">
  <defs
     id="defs7342" />
  <sodipodi:namedview
     id="base"
     pagecolor="#ffffff"
     bordercolor="#666666"
     borderopacity="1.0"
     inkscape:pageopacity="0.0"
     inkscape:pageshadow="2"
     inkscape:zoom="0.35"
     inkscape:cx="375"
     inkscape:cy="520"
     inkscape:document-units="px"
     inkscape:current-layer="layer1"
     showgrid="false"
     units="mm"
     inkscape:window-width="1366"
     inkscape:window-height="614"
     inkscape:window-x="-4"
     inkscape:window-y="-4"
     inkscape:window-maximized="1" />
  <metadata
     id="metadata7345">
    <rdf:RDF>
      <cc:Work
         rdf:about="">
        <dc:format>image/svg+xml</dc:format>
        <dc:type
           rdf:resource="http://purl.org/dc/dcmitype/StillImage" />
        <dc:title></dc:title>
      </cc:Work>
    </rdf:RDF>
  </metadata>
  <g
     inkscape:label="Layer 1"
     inkscape:groupmode="layer"
     id="layer1"
     transform="translate(0,-258.6615)">
    <g
       id="face254"
       stroke-miterlimit="4"
       transform="matrix(3.543307,0,0,3.543307,12.146807,-15201.791)"
       style="fill:none;stroke:#0000ff;stroke-width:1;stroke-linecap:round;stroke-linejoin:round;stroke-miterlimit:4;stroke-dasharray:none">
      <line
         x1="165.7"
         y1="4559.3848"
         x2="165.7"
         y2="4555.6851"
         id="line2905" />
      <line
         x1="165.7"
         y1="4555.6851"
         x2="168.28819"
         y2="4555.3442"
         id="line2907" />
      <line
         x1="168.28819"
         y1="4555.3442"
         x2="170.7"
         y2="4554.3452"
         id="line2909" />
      <line
         x1="170.7"
         y1="4554.3452"
         x2="172.77107"
         y2="4552.7559"
         id="line2911" />
      <line
         x1="172.77107"
         y1="4552.7559"
         x2="174.36026"
         y2="4550.6851"
         id="line2913" />
      <line
         x1="174.36026"
         y1="4550.6851"
         x2="175.35925"
         y2="4548.2729"
         id="line2915" />
      <line
         x1="175.35925"
         y1="4548.2729"
         x2="175.7"
         y2="4545.6851"
         id="line2917" />
      <line
         x1="175.7"
         y1="4545.6851"
         x2="175.7"
         y2="4405.6851"
         id="line2919" />
      <line
         x1="175.7"
         y1="4405.6851"
         x2="175.35925"
         y2="4403.0967"
         id="line2921" />
      <line
         x1="175.35925"
         y1="4403.0967"
         x2="174.36026"
         y2="4400.6851"
         id="line2923" />
      <line
         x1="174.36026"
         y1="4400.6851"
         x2="172.77107"
         y2="4398.6138"
         id="line2925" />
      <line
         x1="172.77107"
         y1="4398.6138"
         x2="170.7"
         y2="4397.0249"
         id="line2927" />
      <line
         x1="170.7"
         y1="4397.0249"
         x2="168.28819"
         y2="4396.0259"
         id="line2929" />
      <line
         x1="168.28819"
         y1="4396.0259"
         x2="165.7"
         y2="4395.6851"
         id="line2931" />
      <line
         x1="165.7"
         y1="4395.6851"
         x2="165.7"
         y2="4391.9849"
         id="line2933" />
      <line
         x1="165.7"
         y1="4391.9849"
         x2="165.63185"
         y2="4391.4673"
         id="line2935" />
      <line
         x1="165.63185"
         y1="4391.4673"
         x2="165.43205"
         y2="4390.9849"
         id="line2937" />
      <line
         x1="165.43205"
         y1="4390.9849"
         x2="165.11421"
         y2="4390.5708"
         id="line2939" />
      <line
         x1="165.11421"
         y1="4390.5708"
         x2="164.7"
         y2="4390.2529"
         id="line2941" />
      <line
         x1="164.7"
         y1="4390.2529"
         x2="164.21764"
         y2="4390.0532"
         id="line2943" />
      <line
         x1="164.21764"
         y1="4390.0532"
         x2="163.7"
         y2="4389.9849"
         id="line2945" />
      <line
         x1="163.7"
         y1="4389.9849"
         x2="127.7"
         y2="4389.9849"
         id="line2947" />
      <line
         x1="127.7"
         y1="4389.9849"
         x2="127.18237"
         y2="4390.0532"
         id="line2949" />
      <line
         x1="127.18237"
         y1="4390.0532"
         x2="126.7"
         y2="4390.2529"
         id="line2951" />
      <line
         x1="126.7"
         y1="4390.2529"
         x2="126.28579"
         y2="4390.5708"
         id="line2953" />
      <line
         x1="126.28579"
         y1="4390.5708"
         x2="125.96795"
         y2="4390.9849"
         id="line2955" />
      <line
         x1="125.96795"
         y1="4390.9849"
         x2="125.76815"
         y2="4391.4673"
         id="line2957" />
      <line
         x1="125.76815"
         y1="4391.4673"
         x2="125.7"
         y2="4391.9849"
         id="line2959" />
      <line
         x1="125.7"
         y1="4391.9849"
         x2="125.7"
         y2="4395.6851"
         id="line2961" />
      <line
         x1="125.7"
         y1="4395.6851"
         x2="65.699997"
         y2="4395.6851"
         id="line2963" />
      <line
         x1="65.699997"
         y1="4395.6851"
         x2="65.699997"
         y2="4391.9849"
         id="line2965" />
      <line
         x1="65.699997"
         y1="4391.9849"
         x2="65.631851"
         y2="4391.4673"
         id="line2967" />
      <line
         x1="65.631851"
         y1="4391.4673"
         x2="65.432053"
         y2="4390.9849"
         id="line2969" />
      <line
         x1="65.432053"
         y1="4390.9849"
         x2="65.114212"
         y2="4390.5708"
         id="line2971" />
      <line
         x1="65.114212"
         y1="4390.5708"
         x2="64.699997"
         y2="4390.2529"
         id="line2973" />
      <line
         x1="64.699997"
         y1="4390.2529"
         x2="64.217636"
         y2="4390.0532"
         id="line2975" />
      <line
         x1="64.217636"
         y1="4390.0532"
         x2="63.700001"
         y2="4389.9849"
         id="line2977" />
      <line
         x1="63.700001"
         y1="4389.9849"
         x2="27.700001"
         y2="4389.9849"
         id="line2979" />
      <line
         x1="27.700001"
         y1="4389.9849"
         x2="27.182362"
         y2="4390.0532"
         id="line2981" />
      <line
         x1="27.182362"
         y1="4390.0532"
         x2="26.700001"
         y2="4390.2529"
         id="line2983" />
      <line
         x1="26.700001"
         y1="4390.2529"
         x2="26.285786"
         y2="4390.5708"
         id="line2985" />
      <line
         x1="26.285786"
         y1="4390.5708"
         x2="25.967949"
         y2="4390.9849"
         id="line2987" />
      <line
         x1="25.967949"
         y1="4390.9849"
         x2="25.768148"
         y2="4391.4673"
         id="line2989" />
      <line
         x1="25.768148"
         y1="4391.4673"
         x2="25.700001"
         y2="4391.9849"
         id="line2991" />
      <line
         x1="25.700001"
         y1="4391.9849"
         x2="25.700001"
         y2="4395.6851"
         id="line2993" />
      <line
         x1="25.700001"
         y1="4395.6851"
         x2="23.111809"
         y2="4396.0259"
         id="line2995" />
      <line
         x1="23.111809"
         y1="4396.0259"
         x2="20.700001"
         y2="4397.0249"
         id="line2997" />
      <line
         x1="20.700001"
         y1="4397.0249"
         x2="18.628933"
         y2="4398.6138"
         id="line2999" />
      <line
         x1="18.628933"
         y1="4398.6138"
         x2="17.039745"
         y2="4400.6851"
         id="line3001" />
      <line
         x1="17.039745"
         y1="4400.6851"
         x2="16.040741"
         y2="4403.0967"
         id="line3003" />
      <line
         x1="16.040741"
         y1="4403.0967"
         x2="15.7"
         y2="4405.6851"
         id="line3005" />
      <line
         x1="15.7"
         y1="4405.6851"
         x2="12"
         y2="4405.6851"
         id="line3007" />
      <line
         x1="12"
         y1="4405.6851"
         x2="11.482362"
         y2="4405.7529"
         id="line3009" />
      <line
         x1="11.482362"
         y1="4405.7529"
         x2="11"
         y2="4405.9531"
         id="line3011" />
      <line
         x1="11"
         y1="4405.9531"
         x2="10.585787"
         y2="4406.2705"
         id="line3013" />
      <line
         x1="10.585787"
         y1="4406.2705"
         x2="10.267949"
         y2="4406.6851"
         id="line3015" />
      <line
         x1="10.267949"
         y1="4406.6851"
         x2="10.068149"
         y2="4407.1675"
         id="line3017" />
      <line
         x1="10.068149"
         y1="4407.1675"
         x2="10"
         y2="4407.6851"
         id="line3019" />
      <line
         x1="10"
         y1="4407.6851"
         x2="10"
         y2="4443.6851"
         id="line3021" />
      <line
         x1="10"
         y1="4443.6851"
         x2="10.068149"
         y2="4444.2026"
         id="line3023" />
      <line
         x1="10.068149"
         y1="4444.2026"
         x2="10.267949"
         y2="4444.6851"
         id="line3025" />
      <line
         x1="10.267949"
         y1="4444.6851"
         x2="10.585787"
         y2="4445.0991"
         id="line3027" />
      <line
         x1="10.585787"
         y1="4445.0991"
         x2="11"
         y2="4445.417"
         id="line3029" />
      <line
         x1="11"
         y1="4445.417"
         x2="11.482362"
         y2="4445.6167"
         id="line3031" />
      <line
         x1="11.482362"
         y1="4445.6167"
         x2="12"
         y2="4445.6851"
         id="line3033" />
      <line
         x1="12"
         y1="4445.6851"
         x2="15.7"
         y2="4445.6851"
         id="line3035" />
      <line
         x1="15.7"
         y1="4445.6851"
         x2="15.7"
         y2="4505.6851"
         id="line3037" />
      <line
         x1="15.7"
         y1="4505.6851"
         x2="12"
         y2="4505.6851"
         id="line3039" />
      <line
         x1="12"
         y1="4505.6851"
         x2="11.482362"
         y2="4505.7529"
         id="line3041" />
      <line
         x1="11.482362"
         y1="4505.7529"
         x2="11"
         y2="4505.9531"
         id="line3043" />
      <line
         x1="11"
         y1="4505.9531"
         x2="10.585787"
         y2="4506.2705"
         id="line3045" />
      <line
         x1="10.585787"
         y1="4506.2705"
         x2="10.267949"
         y2="4506.6851"
         id="line3047" />
      <line
         x1="10.267949"
         y1="4506.6851"
         x2="10.068149"
         y2="4507.1675"
         id="line3049" />
      <line
         x1="10.068149"
         y1="4507.1675"
         x2="10"
         y2="4507.6851"
         id="line3051" />
      <line
         x1="10"
         y1="4507.6851"
         x2="10"
         y2="4543.6851"
         id="line3053" />
      <line
         x1="10"
         y1="4543.6851"
         x2="10.068149"
         y2="4544.2026"
         id="line3055" />
      <line
         x1="10.068149"
         y1="4544.2026"
         x2="10.267949"
         y2="4544.6851"
         id="line3057" />
      <line
         x1="10.267949"
         y1="4544.6851"
         x2="10.585787"
         y2="4545.0991"
         id="line3059" />
      <line
         x1="10.585787"
         y1="4545.0991"
         x2="11"
         y2="4545.417"
         id="line3061" />
      <line
         x1="11"
         y1="4545.417"
         x2="11.482362"
         y2="4545.6167"
         id="line3063" />
      <line
         x1="11.482362"
         y1="4545.6167"
         x2="12"
         y2="4545.6851"
         id="line3065" />
      <line
         x1="12"
         y1="4545.6851"
         x2="15.7"
         y2="4545.6851"
         id="line3067" />
      <line
         x1="15.7"
         y1="4545.6851"
         x2="16.040741"
         y2="4548.2729"
         id="line3069" />
      <line
         x1="16.040741"
         y1="4548.2729"
         x2="17.039745"
         y2="4550.6851"
         id="line3071" />
      <line
         x1="17.039745"
         y1="4550.6851"
         x2="18.628933"
         y2="4552.7559"
         id="line3073" />
      <line
         x1="18.628933"
         y1="4552.7559"
         x2="20.700001"
         y2="4554.3452"
         id="line3075" />
      <line
         x1="20.700001"
         y1="4554.3452"
         x2="23.111809"
         y2="4555.3442"
         id="line3077" />
      <line
         x1="23.111809"
         y1="4555.3442"
         x2="25.700001"
         y2="4555.6851"
         id="line3079" />
      <line
         x1="25.700001"
         y1="4555.6851"
         x2="25.700001"
         y2="4559.3848"
         id="line3081" />
      <line
         x1="25.700001"
         y1="4559.3848"
         x2="25.768148"
         y2="4559.9028"
         id="line3083" />
      <line
         x1="25.768148"
         y1="4559.9028"
         x2="25.967949"
         y2="4560.3848"
         id="line3085" />
      <line
         x1="25.967949"
         y1="4560.3848"
         x2="26.285786"
         y2="4560.7993"
         id="line3087" />
      <line
         x1="26.285786"
         y1="4560.7993"
         x2="26.700001"
         y2="4561.1172"
         id="line3089" />
      <line
         x1="26.700001"
         y1="4561.1172"
         x2="27.182362"
         y2="4561.3169"
         id="line3091" />
      <line
         x1="27.182362"
         y1="4561.3169"
         x2="27.700001"
         y2="4561.3848"
         id="line3093" />
      <line
         x1="27.700001"
         y1="4561.3848"
         x2="63.700001"
         y2="4561.3848"
         id="line3095" />
      <line
         x1="63.700001"
         y1="4561.3848"
         x2="64.217636"
         y2="4561.3169"
         id="line3097" />
      <line
         x1="64.217636"
         y1="4561.3169"
         x2="64.699997"
         y2="4561.1172"
         id="line3099" />
      <line
         x1="64.699997"
         y1="4561.1172"
         x2="65.114212"
         y2="4560.7993"
         id="line3101" />
      <line
         x1="65.114212"
         y1="4560.7993"
         x2="65.432053"
         y2="4560.3848"
         id="line3103" />
      <line
         x1="65.432053"
         y1="4560.3848"
         x2="65.631851"
         y2="4559.9028"
         id="line3105" />
      <line
         x1="65.631851"
         y1="4559.9028"
         x2="65.699997"
         y2="4559.3848"
         id="line3107" />
      <line
         x1="65.699997"
         y1="4559.3848"
         x2="65.699997"
         y2="4555.6851"
         id="line3109" />
      <line
         x1="65.699997"
         y1="4555.6851"
         x2="125.7"
         y2="4555.6851"
         id="line3111" />
      <line
         x1="125.7"
         y1="4555.6851"
         x2="125.7"
         y2="4559.3848"
         id="line3113" />
      <line
         x1="125.7"
         y1="4559.3848"
         x2="125.76815"
         y2="4559.9028"
         id="line3115" />
      <line
         x1="125.76815"
         y1="4559.9028"
         x2="125.96795"
         y2="4560.3848"
         id="line3117" />
      <line
         x1="125.96795"
         y1="4560.3848"
         x2="126.28579"
         y2="4560.7993"
         id="line3119" />
      <line
         x1="126.28579"
         y1="4560.7993"
         x2="126.7"
         y2="4561.1172"
         id="line3121" />
      <line
         x1="126.7"
         y1="4561.1172"
         x2="127.18237"
         y2="4561.3169"
         id="line3123" />
      <line
         x1="127.18237"
         y1="4561.3169"
         x2="127.7"
         y2="4561.3848"
         id="line3125" />
      <line
         x1="127.7"
         y1="4561.3848"
         x2="163.7"
         y2="4561.3848"
         id="line3127" />
      <line
         x1="163.7"
         y1="4561.3848"
         x2="164.21764"
         y2="4561.3169"
         id="line3129" />
      <line
         x1="164.21764"
         y1="4561.3169"
         x2="164.7"
         y2="4561.1172"
         id="line3131" />
      <line
         x1="164.7"
         y1="4561.1172"
         x2="165.11421"
         y2="4560.7993"
         id="line3133" />
      <line
         x1="165.11421"
         y1="4560.7993"
         x2="165.43205"
         y2="4560.3848"
         id="line3135" />
      <line
         x1="165.43205"
         y1="4560.3848"
         x2="165.63185"
         y2="4559.9028"
         id="line3137" />
      <line
         x1="165.63185"
         y1="4559.9028"
         x2="165.7"
         y2="4559.3848"
         id="line3139" />
      <line
         x1="149.7"
         y1="4518.7568"
         x2="151.35686"
         y2="4520.0283"
         id="line3141" />
      <line
         x1="151.35686"
         y1="4520.0283"
         x2="152.6282"
         y2="4521.6851"
         id="line3143" />
      <line
         x1="152.6282"
         y1="4521.6851"
         x2="153.42741"
         y2="4523.6143"
         id="line3145" />
      <line
         x1="153.42741"
         y1="4523.6143"
         x2="153.7"
         y2="4525.6851"
         id="line3147" />
      <line
         x1="153.7"
         y1="4525.6851"
         x2="153.42741"
         y2="4527.7554"
         id="line3149" />
      <line
         x1="153.42741"
         y1="4527.7554"
         x2="152.6282"
         y2="4529.6851"
         id="line3151" />
      <line
         x1="152.6282"
         y1="4529.6851"
         x2="151.35686"
         y2="4531.3418"
         id="line3153" />
      <line
         x1="151.35686"
         y1="4531.3418"
         x2="149.7"
         y2="4532.6133"
         id="line3155" />
      <line
         x1="149.7"
         y1="4532.6133"
         x2="147.77055"
         y2="4533.4126"
         id="line3157" />
      <line
         x1="147.77055"
         y1="4533.4126"
         x2="145.7"
         y2="4533.6851"
         id="line3159" />
      <line
         x1="145.7"
         y1="4533.6851"
         x2="143.62944"
         y2="4533.4126"
         id="line3161" />
      <line
         x1="143.62944"
         y1="4533.4126"
         x2="141.7"
         y2="4532.6133"
         id="line3163" />
      <line
         x1="141.7"
         y1="4532.6133"
         x2="140.04315"
         y2="4531.3418"
         id="line3165" />
      <line
         x1="140.04315"
         y1="4531.3418"
         x2="138.77179"
         y2="4529.6851"
         id="line3167" />
      <line
         x1="138.77179"
         y1="4529.6851"
         x2="137.9726"
         y2="4527.7554"
         id="line3169" />
      <line
         x1="137.9726"
         y1="4527.7554"
         x2="137.7"
         y2="4525.6851"
         id="line3171" />
      <line
         x1="137.7"
         y1="4525.6851"
         x2="137.9726"
         y2="4523.6143"
         id="line3173" />
      <line
         x1="137.9726"
         y1="4523.6143"
         x2="138.77179"
         y2="4521.6851"
         id="line3175" />
      <line
         x1="138.77179"
         y1="4521.6851"
         x2="140.04315"
         y2="4520.0283"
         id="line3177" />
      <line
         x1="140.04315"
         y1="4520.0283"
         x2="141.7"
         y2="4518.7568"
         id="line3179" />
      <line
         x1="141.7"
         y1="4518.7568"
         x2="143.62944"
         y2="4517.9575"
         id="line3181" />
      <line
         x1="143.62944"
         y1="4517.9575"
         x2="145.7"
         y2="4517.6851"
         id="line3183" />
      <line
         x1="145.7"
         y1="4517.6851"
         x2="147.77055"
         y2="4517.9575"
         id="line3185" />
      <line
         x1="147.77055"
         y1="4517.9575"
         x2="149.7"
         y2="4518.7568"
         id="line3187" />
      <line
         x1="140.04315"
         y1="4420.0283"
         x2="141.7"
         y2="4418.7568"
         id="line3189" />
      <line
         x1="141.7"
         y1="4418.7568"
         x2="143.62944"
         y2="4417.9575"
         id="line3191" />
      <line
         x1="143.62944"
         y1="4417.9575"
         x2="145.7"
         y2="4417.6851"
         id="line3193" />
      <line
         x1="145.7"
         y1="4417.6851"
         x2="147.77055"
         y2="4417.9575"
         id="line3195" />
      <line
         x1="147.77055"
         y1="4417.9575"
         x2="149.7"
         y2="4418.7568"
         id="line3197" />
      <line
         x1="149.7"
         y1="4418.7568"
         x2="151.35686"
         y2="4420.0283"
         id="line3199" />
      <line
         x1="151.35686"
         y1="4420.0283"
         x2="152.6282"
         y2="4421.6851"
         id="line3201" />
      <line
         x1="152.6282"
         y1="4421.6851"
         x2="153.42741"
         y2="4423.6143"
         id="line3203" />
      <line
         x1="153.42741"
         y1="4423.6143"
         x2="153.7"
         y2="4425.6851"
         id="line3205" />
      <line
         x1="153.7"
         y1="4425.6851"
         x2="153.42741"
         y2="4427.7554"
         id="line3207" />
      <line
         x1="153.42741"
         y1="4427.7554"
         x2="152.6282"
         y2="4429.6851"
         id="line3209" />
      <line
         x1="152.6282"
         y1="4429.6851"
         x2="151.35686"
         y2="4431.3418"
         id="line3211" />
      <line
         x1="151.35686"
         y1="4431.3418"
         x2="149.7"
         y2="4432.6133"
         id="line3213" />
      <line
         x1="149.7"
         y1="4432.6133"
         x2="147.77055"
         y2="4433.4126"
         id="line3215" />
      <line
         x1="147.77055"
         y1="4433.4126"
         x2="145.7"
         y2="4433.6851"
         id="line3217" />
      <line
         x1="145.7"
         y1="4433.6851"
         x2="143.62944"
         y2="4433.4126"
         id="line3219" />
      <line
         x1="143.62944"
         y1="4433.4126"
         x2="141.7"
         y2="4432.6133"
         id="line3221" />
      <line
         x1="141.7"
         y1="4432.6133"
         x2="140.04315"
         y2="4431.3418"
         id="line3223" />
      <line
         x1="140.04315"
         y1="4431.3418"
         x2="138.77179"
         y2="4429.6851"
         id="line3225" />
      <line
         x1="138.77179"
         y1="4429.6851"
         x2="137.9726"
         y2="4427.7554"
         id="line3227" />
      <line
         x1="137.9726"
         y1="4427.7554"
         x2="137.7"
         y2="4425.6851"
         id="line3229" />
      <line
         x1="137.7"
         y1="4425.6851"
         x2="137.9726"
         y2="4423.6143"
         id="line3231" />
      <line
         x1="137.9726"
         y1="4423.6143"
         x2="138.77179"
         y2="4421.6851"
         id="line3233" />
      <line
         x1="138.77179"
         y1="4421.6851"
         x2="140.04315"
         y2="4420.0283"
         id="line3235" />
      <line
         x1="45.700001"
         y1="4433.6851"
         x2="43.629448"
         y2="4433.4126"
         id="line3237" />
      <line
         x1="43.629448"
         y1="4433.4126"
         x2="41.700001"
         y2="4432.6133"
         id="line3239" />
      <line
         x1="41.700001"
         y1="4432.6133"
         x2="40.043144"
         y2="4431.3418"
         id="line3241" />
      <line
         x1="40.043144"
         y1="4431.3418"
         x2="38.771797"
         y2="4429.6851"
         id="line3243" />
      <line
         x1="38.771797"
         y1="4429.6851"
         x2="37.972595"
         y2="4427.7554"
         id="line3245" />
      <line
         x1="37.972595"
         y1="4427.7554"
         x2="37.700001"
         y2="4425.6851"
         id="line3247" />
      <line
         x1="37.700001"
         y1="4425.6851"
         x2="37.972595"
         y2="4423.6143"
         id="line3249" />
      <line
         x1="37.972595"
         y1="4423.6143"
         x2="38.771797"
         y2="4421.6851"
         id="line3251" />
      <line
         x1="38.771797"
         y1="4421.6851"
         x2="40.043144"
         y2="4420.0283"
         id="line3253" />
      <line
         x1="40.043144"
         y1="4420.0283"
         x2="41.700001"
         y2="4418.7568"
         id="line3255" />
      <line
         x1="41.700001"
         y1="4418.7568"
         x2="43.629448"
         y2="4417.9575"
         id="line3257" />
      <line
         x1="43.629448"
         y1="4417.9575"
         x2="45.700001"
         y2="4417.6851"
         id="line3259" />
      <line
         x1="45.700001"
         y1="4417.6851"
         x2="47.770554"
         y2="4417.9575"
         id="line3261" />
      <line
         x1="47.770554"
         y1="4417.9575"
         x2="49.700001"
         y2="4418.7568"
         id="line3263" />
      <line
         x1="49.700001"
         y1="4418.7568"
         x2="51.356853"
         y2="4420.0283"
         id="line3265" />
      <line
         x1="51.356853"
         y1="4420.0283"
         x2="52.628204"
         y2="4421.6851"
         id="line3267" />
      <line
         x1="52.628204"
         y1="4421.6851"
         x2="53.427406"
         y2="4423.6143"
         id="line3269" />
      <line
         x1="53.427406"
         y1="4423.6143"
         x2="53.700001"
         y2="4425.6851"
         id="line3271" />
      <line
         x1="53.700001"
         y1="4425.6851"
         x2="53.427406"
         y2="4427.7554"
         id="line3273" />
      <line
         x1="53.427406"
         y1="4427.7554"
         x2="52.628204"
         y2="4429.6851"
         id="line3275" />
      <line
         x1="52.628204"
         y1="4429.6851"
         x2="51.356853"
         y2="4431.3418"
         id="line3277" />
      <line
         x1="51.356853"
         y1="4431.3418"
         x2="49.700001"
         y2="4432.6133"
         id="line3279" />
      <line
         x1="49.700001"
         y1="4432.6133"
         x2="47.770554"
         y2="4433.4126"
         id="line3281" />
      <line
         x1="47.770554"
         y1="4433.4126"
         x2="45.700001"
         y2="4433.6851"
         id="line3283" />
      <line
         x1="43.629448"
         y1="4517.9575"
         x2="45.700001"
         y2="4517.6851"
         id="line3285" />
      <line
         x1="45.700001"
         y1="4517.6851"
         x2="47.770554"
         y2="4517.9575"
         id="line3287" />
      <line
         x1="47.770554"
         y1="4517.9575"
         x2="49.700001"
         y2="4518.7568"
         id="line3289" />
      <line
         x1="49.700001"
         y1="4518.7568"
         x2="51.356853"
         y2="4520.0283"
         id="line3291" />
      <line
         x1="51.356853"
         y1="4520.0283"
         x2="52.628204"
         y2="4521.6851"
         id="line3293" />
      <line
         x1="52.628204"
         y1="4521.6851"
         x2="53.427406"
         y2="4523.6143"
         id="line3295" />
      <line
         x1="53.427406"
         y1="4523.6143"
         x2="53.700001"
         y2="4525.6851"
         id="line3297" />
      <line
         x1="53.700001"
         y1="4525.6851"
         x2="53.427406"
         y2="4527.7554"
         id="line3299" />
      <line
         x1="53.427406"
         y1="4527.7554"
         x2="52.628204"
         y2="4529.6851"
         id="line3301" />
      <line
         x1="52.628204"
         y1="4529.6851"
         x2="51.356853"
         y2="4531.3418"
         id="line3303" />
      <line
         x1="51.356853"
         y1="4531.3418"
         x2="49.700001"
         y2="4532.6133"
         id="line3305" />
      <line
         x1="49.700001"
         y1="4532.6133"
         x2="47.770554"
         y2="4533.4126"
         id="line3307" />
      <line
         x1="47.770554"
         y1="4533.4126"
         x2="45.700001"
         y2="4533.6851"
         id="line3309" />
      <line
         x1="45.700001"
         y1="4533.6851"
         x2="43.629448"
         y2="4533.4126"
         id="line3311" />
      <line
         x1="43.629448"
         y1="4533.4126"
         x2="41.700001"
         y2="4532.6133"
         id="line3313" />
      <line
         x1="41.700001"
         y1="4532.6133"
         x2="40.043144"
         y2="4531.3418"
         id="line3315" />
      <line
         x1="40.043144"
         y1="4531.3418"
         x2="38.771797"
         y2="4529.6851"
         id="line3317" />
      <line
         x1="38.771797"
         y1="4529.6851"
         x2="37.972595"
         y2="4527.7554"
         id="line3319" />
      <line
         x1="37.972595"
         y1="4527.7554"
         x2="37.700001"
         y2="4525.6851"
         id="line3321" />
      <line
         x1="37.700001"
         y1="4525.6851"
         x2="37.972595"
         y2="4523.6143"
         id="line3323" />
      <line
         x1="37.972595"
         y1="4523.6143"
         x2="38.771797"
         y2="4521.6851"
         id="line3325" />
      <line
         x1="38.771797"
         y1="4521.6851"
         x2="40.043144"
         y2="4520.0283"
         id="line3327" />
      <line
         x1="40.043144"
         y1="4520.0283"
         x2="41.700001"
         y2="4518.7568"
         id="line3329" />
      <line
         x1="41.700001"
         y1="4518.7568"
         x2="43.629448"
         y2="4517.9575"
         id="line3331" />
      <line
         x1="171.34705"
         y1="4457.3496"
         x2="170.7"
         y2="4457.4351"
         id="line3333" />
      <line
         x1="170.7"
         y1="4457.4351"
         x2="170.05295"
         y2="4457.3496"
         id="line3335" />
      <line
         x1="170.05295"
         y1="4457.3496"
         x2="169.45"
         y2="4457.1001"
         id="line3337" />
      <line
         x1="169.45"
         y1="4457.1001"
         x2="168.93224"
         y2="4456.7026"
         id="line3339" />
      <line
         x1="168.93224"
         y1="4456.7026"
         x2="168.53494"
         y2="4456.1851"
         id="line3341" />
      <line
         x1="168.53494"
         y1="4456.1851"
         x2="168.28519"
         y2="4455.582"
         id="line3343" />
      <line
         x1="168.28519"
         y1="4455.582"
         x2="168.2"
         y2="4454.9351"
         id="line3345" />
      <line
         x1="168.2"
         y1="4454.9351"
         x2="168.28519"
         y2="4454.2881"
         id="line3347" />
      <line
         x1="168.28519"
         y1="4454.2881"
         x2="168.53494"
         y2="4453.6851"
         id="line3349" />
      <line
         x1="168.53494"
         y1="4453.6851"
         x2="168.93224"
         y2="4453.167"
         id="line3351" />
      <line
         x1="168.93224"
         y1="4453.167"
         x2="169.45"
         y2="4452.77"
         id="line3353" />
      <line
         x1="169.45"
         y1="4452.77"
         x2="170.05295"
         y2="4452.52"
         id="line3355" />
      <line
         x1="170.05295"
         y1="4452.52"
         x2="170.7"
         y2="4452.4351"
         id="line3357" />
      <line
         x1="170.7"
         y1="4452.4351"
         x2="171.34705"
         y2="4452.52"
         id="line3359" />
      <line
         x1="171.34705"
         y1="4452.52"
         x2="171.95"
         y2="4452.77"
         id="line3361" />
      <line
         x1="171.95"
         y1="4452.77"
         x2="172.46777"
         y2="4453.167"
         id="line3363" />
      <line
         x1="172.46777"
         y1="4453.167"
         x2="172.86507"
         y2="4453.6851"
         id="line3365" />
      <line
         x1="172.86507"
         y1="4453.6851"
         x2="173.11481"
         y2="4454.2881"
         id="line3367" />
      <line
         x1="173.11481"
         y1="4454.2881"
         x2="173.2"
         y2="4454.9351"
         id="line3369" />
      <line
         x1="173.2"
         y1="4454.9351"
         x2="173.11481"
         y2="4455.582"
         id="line3371" />
      <line
         x1="173.11481"
         y1="4455.582"
         x2="172.86507"
         y2="4456.1851"
         id="line3373" />
      <line
         x1="172.86507"
         y1="4456.1851"
         x2="172.46777"
         y2="4456.7026"
         id="line3375" />
      <line
         x1="172.46777"
         y1="4456.7026"
         x2="171.95"
         y2="4457.1001"
         id="line3377" />
      <line
         x1="171.95"
         y1="4457.1001"
         x2="171.34705"
         y2="4457.3496"
         id="line3379" />
      <line
         x1="170.05295"
         y1="4494.02"
         x2="170.7"
         y2="4493.9351"
         id="line3381" />
      <line
         x1="170.7"
         y1="4493.9351"
         x2="171.34705"
         y2="4494.02"
         id="line3383" />
      <line
         x1="171.34705"
         y1="4494.02"
         x2="171.95"
         y2="4494.27"
         id="line3385" />
      <line
         x1="171.95"
         y1="4494.27"
         x2="172.46777"
         y2="4494.667"
         id="line3387" />
      <line
         x1="172.46777"
         y1="4494.667"
         x2="172.86507"
         y2="4495.1851"
         id="line3389" />
      <line
         x1="172.86507"
         y1="4495.1851"
         x2="173.11481"
         y2="4495.7881"
         id="line3391" />
      <line
         x1="173.11481"
         y1="4495.7881"
         x2="173.2"
         y2="4496.4351"
         id="line3393" />
      <line
         x1="173.2"
         y1="4496.4351"
         x2="173.11481"
         y2="4497.082"
         id="line3395" />
      <line
         x1="173.11481"
         y1="4497.082"
         x2="172.86507"
         y2="4497.6851"
         id="line3397" />
      <line
         x1="172.86507"
         y1="4497.6851"
         x2="172.46777"
         y2="4498.2026"
         id="line3399" />
      <line
         x1="172.46777"
         y1="4498.2026"
         x2="171.95"
         y2="4498.6001"
         id="line3401" />
      <line
         x1="171.95"
         y1="4498.6001"
         x2="171.34705"
         y2="4498.8496"
         id="line3403" />
      <line
         x1="171.34705"
         y1="4498.8496"
         x2="170.7"
         y2="4498.9351"
         id="line3405" />
      <line
         x1="170.7"
         y1="4498.9351"
         x2="170.05295"
         y2="4498.8496"
         id="line3407" />
      <line
         x1="170.05295"
         y1="4498.8496"
         x2="169.45"
         y2="4498.6001"
         id="line3409" />
      <line
         x1="169.45"
         y1="4498.6001"
         x2="168.93224"
         y2="4498.2026"
         id="line3411" />
      <line
         x1="168.93224"
         y1="4498.2026"
         x2="168.53494"
         y2="4497.6851"
         id="line3413" />
      <line
         x1="168.53494"
         y1="4497.6851"
         x2="168.28519"
         y2="4497.082"
         id="line3415" />
      <line
         x1="168.28519"
         y1="4497.082"
         x2="168.2"
         y2="4496.4351"
         id="line3417" />
      <line
         x1="168.2"
         y1="4496.4351"
         x2="168.28519"
         y2="4495.7881"
         id="line3419" />
      <line
         x1="168.28519"
         y1="4495.7881"
         x2="168.53494"
         y2="4495.1851"
         id="line3421" />
      <line
         x1="168.53494"
         y1="4495.1851"
         x2="168.93224"
         y2="4494.667"
         id="line3423" />
      <line
         x1="168.93224"
         y1="4494.667"
         x2="169.45"
         y2="4494.27"
         id="line3425" />
      <line
         x1="169.45"
         y1="4494.27"
         x2="170.05295"
         y2="4494.02"
         id="line3427" />
      <line
         x1="146.7"
         y1="4496.4351"
         x2="146.61481"
         y2="4497.082"
         id="line3429" />
      <line
         x1="146.61481"
         y1="4497.082"
         x2="146.36507"
         y2="4497.6851"
         id="line3431" />
      <line
         x1="146.36507"
         y1="4497.6851"
         x2="145.96777"
         y2="4498.2026"
         id="line3433" />
      <line
         x1="145.96777"
         y1="4498.2026"
         x2="145.45"
         y2="4498.6001"
         id="line3435" />
      <line
         x1="145.45"
         y1="4498.6001"
         x2="144.84705"
         y2="4498.8496"
         id="line3437" />
      <line
         x1="144.84705"
         y1="4498.8496"
         x2="144.2"
         y2="4498.9351"
         id="line3439" />
      <line
         x1="144.2"
         y1="4498.9351"
         x2="143.55295"
         y2="4498.8496"
         id="line3441" />
      <line
         x1="143.55295"
         y1="4498.8496"
         x2="142.95"
         y2="4498.6001"
         id="line3443" />
      <line
         x1="142.95"
         y1="4498.6001"
         x2="142.43224"
         y2="4498.2026"
         id="line3445" />
      <line
         x1="142.43224"
         y1="4498.2026"
         x2="142.03494"
         y2="4497.6851"
         id="line3447" />
      <line
         x1="142.03494"
         y1="4497.6851"
         x2="141.78519"
         y2="4497.082"
         id="line3449" />
      <line
         x1="141.78519"
         y1="4497.082"
         x2="141.7"
         y2="4496.4351"
         id="line3451" />
      <line
         x1="141.7"
         y1="4496.4351"
         x2="141.78519"
         y2="4495.7881"
         id="line3453" />
      <line
         x1="141.78519"
         y1="4495.7881"
         x2="142.03494"
         y2="4495.1851"
         id="line3455" />
      <line
         x1="142.03494"
         y1="4495.1851"
         x2="142.43224"
         y2="4494.667"
         id="line3457" />
      <line
         x1="142.43224"
         y1="4494.667"
         x2="142.95"
         y2="4494.27"
         id="line3459" />
      <line
         x1="142.95"
         y1="4494.27"
         x2="143.55295"
         y2="4494.02"
         id="line3461" />
      <line
         x1="143.55295"
         y1="4494.02"
         x2="144.2"
         y2="4493.9351"
         id="line3463" />
      <line
         x1="144.2"
         y1="4493.9351"
         x2="144.84705"
         y2="4494.02"
         id="line3465" />
      <line
         x1="144.84705"
         y1="4494.02"
         x2="145.45"
         y2="4494.27"
         id="line3467" />
      <line
         x1="145.45"
         y1="4494.27"
         x2="145.96777"
         y2="4494.667"
         id="line3469" />
      <line
         x1="145.96777"
         y1="4494.667"
         x2="146.36507"
         y2="4495.1851"
         id="line3471" />
      <line
         x1="146.36507"
         y1="4495.1851"
         x2="146.61481"
         y2="4495.7881"
         id="line3473" />
      <line
         x1="146.61481"
         y1="4495.7881"
         x2="146.7"
         y2="4496.4351"
         id="line3475" />
      <line
         x1="144.84705"
         y1="4457.3496"
         x2="144.2"
         y2="4457.4351"
         id="line3477" />
      <line
         x1="144.2"
         y1="4457.4351"
         x2="143.55295"
         y2="4457.3496"
         id="line3479" />
      <line
         x1="143.55295"
         y1="4457.3496"
         x2="142.95"
         y2="4457.1001"
         id="line3481" />
      <line
         x1="142.95"
         y1="4457.1001"
         x2="142.43224"
         y2="4456.7026"
         id="line3483" />
      <line
         x1="142.43224"
         y1="4456.7026"
         x2="142.03494"
         y2="4456.1851"
         id="line3485" />
      <line
         x1="142.03494"
         y1="4456.1851"
         x2="141.78519"
         y2="4455.582"
         id="line3487" />
      <line
         x1="141.78519"
         y1="4455.582"
         x2="141.7"
         y2="4454.9351"
         id="line3489" />
      <line
         x1="141.7"
         y1="4454.9351"
         x2="141.78519"
         y2="4454.2881"
         id="line3491" />
      <line
         x1="141.78519"
         y1="4454.2881"
         x2="142.03494"
         y2="4453.6851"
         id="line3493" />
      <line
         x1="142.03494"
         y1="4453.6851"
         x2="142.43224"
         y2="4453.167"
         id="line3495" />
      <line
         x1="142.43224"
         y1="4453.167"
         x2="142.95"
         y2="4452.77"
         id="line3497" />
      <line
         x1="142.95"
         y1="4452.77"
         x2="143.55295"
         y2="4452.52"
         id="line3499" />
      <line
         x1="143.55295"
         y1="4452.52"
         x2="144.2"
         y2="4452.4351"
         id="line3501" />
      <line
         x1="144.2"
         y1="4452.4351"
         x2="144.84705"
         y2="4452.52"
         id="line3503" />
      <line
         x1="144.84705"
         y1="4452.52"
         x2="145.45"
         y2="4452.77"
         id="line3505" />
      <line
         x1="145.45"
         y1="4452.77"
         x2="145.96777"
         y2="4453.167"
         id="line3507" />
      <line
         x1="145.96777"
         y1="4453.167"
         x2="146.36507"
         y2="4453.6851"
         id="line3509" />
      <line
         x1="146.36507"
         y1="4453.6851"
         x2="146.61481"
         y2="4454.2881"
         id="line3511" />
      <line
         x1="146.61481"
         y1="4454.2881"
         x2="146.7"
         y2="4454.9351"
         id="line3513" />
      <line
         x1="146.7"
         y1="4454.9351"
         x2="146.61481"
         y2="4455.582"
         id="line3515" />
      <line
         x1="146.61481"
         y1="4455.582"
         x2="146.36507"
         y2="4456.1851"
         id="line3517" />
      <line
         x1="146.36507"
         y1="4456.1851"
         x2="145.96777"
         y2="4456.7026"
         id="line3519" />
      <line
         x1="145.96777"
         y1="4456.7026"
         x2="145.45"
         y2="4457.1001"
         id="line3521" />
      <line
         x1="145.45"
         y1="4457.1001"
         x2="144.84705"
         y2="4457.3496"
         id="line3523" />
    </g>
  </g>
</svg>
