<?xml version="1.0" standalone="no"?>
<!DOCTYPE svg PUBLIC "-//W3C//DTD SVG 1.1//EN" "http://www.w3.org/Graphics/SVG/1.1/DTD/svg11.dtd">
<svg width="180.00000000000023mm" height="183.00000000000023mm"
 viewBox="0 0 180.00000000000023 183.00000000000023"
 xmlns="http://www.w3.org/2000/svg" version="1.1"
 xmlns:xlink="http://www.w3.org/1999/xlink">
<desc>Output from Flights of Ideas SVG Sketchup Plugin</desc>

  <g id="face0" fill="none" stroke="#0000FF" stroke-width="1" stroke-miterlimit="4" stroke-dasharray="none" stroke-linejoin="round" stroke-linecap="round">
    <line x1="168.5000000000001" y1="60.000000000000114" x2="169.00000000000034" y2="60.000000000000114"/>
    <line x1="169.00000000000034" y1="60.000000000000114" x2="169.25881904510263" y2="59.96592582628904"/>
    <line x1="169.25881904510263" y1="59.96592582628904" x2="169.50000000000043" y2="59.86602540378436"/>
    <line x1="169.50000000000043" y1="59.86602540378436" x2="169.70710678118672" y2="59.70710678118644"/>
    <line x1="169.70710678118672" y1="59.70710678118644" x2="169.86602540378425" y2="59.50000000000006"/>
    <line x1="169.86602540378425" y1="59.50000000000006" x2="169.96592582628944" y2="59.2588190451026"/>
    <line x1="169.96592582628944" y1="59.2588190451026" x2="170.00000000000017" y2="58.999999999999886"/>
    <line x1="170.00000000000017" y1="58.999999999999886" x2="170.00000000000017" y2="40.00000000000006"/>
    <line x1="170.00000000000017" y1="40.00000000000006" x2="170.00000000000023" y2="21.00000000000003"/>
    <line x1="170.00000000000023" y1="21.00000000000003" x2="169.9659258262892" y2="20.7411809548976"/>
    <line x1="169.9659258262892" y1="20.7411809548976" x2="169.86602540378442" y2="20.500000000000057"/>
    <line x1="169.86602540378442" y1="20.500000000000057" x2="169.7071067811869" y2="20.292893218813447"/>
    <line x1="169.7071067811869" y1="20.292893218813447" x2="169.50000000000028" y2="20.133974596215467"/>
    <line x1="169.50000000000028" y1="20.133974596215467" x2="169.25881904510283" y2="20.034074173710763"/>
    <line x1="169.25881904510283" y1="20.034074173710763" x2="169.00000000000017" y2="19.999999999999886"/>
    <line x1="169.00000000000017" y1="19.999999999999886" x2="168.5000000000002" y2="20.000000000000085"/>
    <line x1="168.5000000000002" y1="20.000000000000085" x2="167.0" y2="20.0"/>
    <line x1="167.0" y1="20.0" x2="166.65925826289066" y2="17.411809548974787"/>
    <line x1="166.65925826289066" y1="17.411809548974787" x2="165.6602540378444" y2="15.0"/>
    <line x1="165.6602540378444" y1="15.0" x2="164.07106781186553" y2="12.928932188134553"/>
    <line x1="164.07106781186553" y1="12.928932188134553" x2="162.0" y2="11.33974596215566"/>
    <line x1="162.0" y1="11.33974596215566" x2="159.58819045102524" y2="10.34074173710934"/>
    <line x1="159.58819045102524" y1="10.34074173710934" x2="157.00000000000003" y2="10.0"/>
    <line x1="157.00000000000003" y1="10.0" x2="23.0" y2="10.000000000000085"/>
    <line x1="23.0" y1="10.000000000000085" x2="20.41180954897486" y2="10.340741737109369"/>
    <line x1="20.41180954897486" y1="10.340741737109369" x2="20.0" y2="10.511318837409533"/>
    <line x1="20.0" y1="10.511318837409533" x2="18.000000000000007" y2="11.339745962155689"/>
    <line x1="18.000000000000007" y1="11.339745962155689" x2="15.92893218813444" y2="12.928932188134638"/>
    <line x1="15.92893218813444" y1="12.928932188134638" x2="14.339745962155568" y2="15.000000000000057"/>
    <line x1="14.339745962155568" y1="15.000000000000057" x2="13.340741737109298" y2="17.411809548974787"/>
    <line x1="13.340741737109298" y1="17.411809548974787" x2="13.000000000000014" y2="20.00000000000003"/>
    <line x1="13.000000000000014" y1="20.00000000000003" x2="11.500000000000043" y2="20.0"/>
    <line x1="11.500000000000043" y1="20.0" x2="11.000000000000021" y2="20.00000000000003"/>
    <line x1="11.000000000000021" y1="20.00000000000003" x2="10.741180954897509" y2="20.03407417371099"/>
    <line x1="10.741180954897509" y1="20.03407417371099" x2="10.500000000000021" y2="20.13397459621561"/>
    <line x1="10.500000000000021" y1="20.13397459621561" x2="10.292893218813468" y2="20.292893218813532"/>
    <line x1="10.292893218813468" y1="20.292893218813532" x2="10.133974596215587" y2="20.5"/>
    <line x1="10.133974596215587" y1="20.5" x2="10.034074173710955" y2="20.741180954897544"/>
    <line x1="10.034074173710955" y1="20.741180954897544" x2="10.000000000000021" y2="21.000000000000085"/>
    <line x1="10.000000000000021" y1="21.000000000000085" x2="10.000000000000021" y2="40.000000000000085"/>
    <line x1="10.000000000000021" y1="40.000000000000085" x2="10.0" y2="59.00000000000284"/>
    <line x1="10.0" y1="59.00000000000284" x2="10.034074173710955" y2="59.25881904510055"/>
    <line x1="10.034074173710955" y1="59.25881904510055" x2="10.133974596215587" y2="59.50000000000051"/>
    <line x1="10.133974596215587" y1="59.50000000000051" x2="10.292893218813468" y2="59.707106781186894"/>
    <line x1="10.292893218813468" y1="59.707106781186894" x2="10.499943198768364" y2="60.000000000000114"/>
    <line x1="10.499943198768364" y1="60.000000000000114" x2="10.741177275073774" y2="60.000000000000114"/>
    <line x1="10.741177275073774" y1="60.000000000000114" x2="11.000000000000021" y2="60.000000000000114"/>
    <line x1="11.000000000000021" y1="60.000000000000114" x2="11.500000000000043" y2="60.000000000000114"/>
    <line x1="11.500000000000043" y1="60.000000000000114" x2="13.000000000000036" y2="60.000000000000114"/>
    <line x1="13.000000000000036" y1="60.000000000000114" x2="13.000000000000036" y2="120.0"/>
    <line x1="13.000000000000036" y1="120.0" x2="11.499999999999993" y2="120.0"/>
    <line x1="11.499999999999993" y1="120.0" x2="10.999999999999972" y2="119.99999999999989"/>
    <line x1="10.999999999999972" y1="119.99999999999989" x2="10.741180954897509" y2="120.03407417371102"/>
    <line x1="10.741180954897509" y1="120.03407417371102" x2="10.499999999999972" y2="120.13397459621547"/>
    <line x1="10.499999999999972" y1="120.13397459621547" x2="10.292893218813425" y2="120.29289321881333"/>
    <line x1="10.292893218813425" y1="120.29289321881333" x2="10.133974596215566" y2="120.5"/>
    <line x1="10.133974596215566" y1="120.5" x2="10.034074173710934" y2="120.74118095489752"/>
    <line x1="10.034074173710934" y1="120.74118095489752" x2="10.0" y2="120.99999999999994"/>
    <line x1="10.0" y1="120.99999999999994" x2="10.0" y2="139.99999999999994"/>
    <line x1="10.0" y1="139.99999999999994" x2="10.000000000000021" y2="159.0"/>
    <line x1="10.000000000000021" y1="159.0" x2="10.034074173710955" y2="159.2588190451026"/>
    <line x1="10.034074173710955" y1="159.2588190451026" x2="10.133974596215538" y2="159.4999999999999"/>
    <line x1="10.133974596215538" y1="159.4999999999999" x2="10.292893218813447" y2="159.7071067811865"/>
    <line x1="10.292893218813447" y1="159.7071067811865" x2="10.499999999999972" y2="159.86602540378436"/>
    <line x1="10.499999999999972" y1="159.86602540378436" x2="10.741180954897509" y2="159.9659258262891"/>
    <line x1="10.741180954897509" y1="159.9659258262891" x2="10.999999999999993" y2="160.0"/>
    <line x1="10.999999999999993" y1="160.0" x2="11.499999999999993" y2="159.99999999999994"/>
    <line x1="11.499999999999993" y1="159.99999999999994" x2="13.000000000000014" y2="159.99999999999994"/>
    <line x1="13.000000000000014" y1="159.99999999999994" x2="13.233017765830056" y2="161.76994565314084"/>
    <line x1="13.233017765830056" y1="161.76994565314084" x2="13.597852301909526" y2="163.15306306077292"/>
    <line x1="13.597852301909526" y1="163.15306306077292" x2="13.991365701467885" y2="164.15120303611116"/>
    <line x1="13.991365701467885" y1="164.15120303611116" x2="14.476901270165882" y2="165.10796393494076"/>
    <line x1="14.476901270165882" y1="165.10796393494076" x2="14.730772069835716" y2="165.50959514497208"/>
    <line x1="14.730772069835716" y1="165.50959514497208" x2="15.928932188134368" y2="167.07106781186542"/>
    <line x1="15.928932188134368" y1="167.07106781186542" x2="16.438867286706675" y2="167.64763387216652"/>
    <line x1="16.438867286706675" y1="167.64763387216652" x2="17.242024422074955" y2="168.3590232324379"/>
    <line x1="17.242024422074955" y1="168.3590232324379" x2="18.108455863854118" y2="168.99182080093578"/>
    <line x1="18.108455863854118" y1="168.99182080093578" x2="19.030499149049625" y2="169.54043030342854"/>
    <line x1="19.030499149049625" y1="169.54043030342854" x2="20.00000000000007" y2="170.00000000000006"/>
    <line x1="20.00000000000007" y1="170.00000000000006" x2="19.99999999999998" y2="171.5000000000001"/>
    <line x1="19.99999999999998" y1="171.5000000000001" x2="20.000000000000135" y2="172.0000000000004"/>
    <line x1="20.000000000000135" y1="172.0000000000004" x2="20.03407417371094" y2="172.25881904510254"/>
    <line x1="20.03407417371094" y1="172.25881904510254" x2="20.133974596215722" y2="172.5000000000004"/>
    <line x1="20.133974596215722" y1="172.5000000000004" x2="20.29289321881361" y2="172.70710678118667"/>
    <line x1="20.29289321881361" y1="172.70710678118667" x2="20.500000000000092" y2="172.8660254037843"/>
    <line x1="20.500000000000092" y1="172.8660254037843" x2="20.741180954897445" y2="172.96592582628944"/>
    <line x1="20.741180954897445" y1="172.96592582628944" x2="21.000000000000156" y2="173.00000000000023"/>
    <line x1="21.000000000000156" y1="173.00000000000023" x2="40.00000000000003" y2="173.00000000000017"/>
    <line x1="40.00000000000003" y1="173.00000000000017" x2="59.0" y2="173.00000000000023"/>
    <line x1="59.0" y1="173.00000000000023" x2="59.25881904510244" y2="172.9659258262892"/>
    <line x1="59.25881904510244" y1="172.9659258262892" x2="59.49999999999997" y2="172.86602540378448"/>
    <line x1="59.49999999999997" y1="172.86602540378448" x2="59.707106781186546" y2="172.70710678118695"/>
    <line x1="59.707106781186546" y1="172.70710678118695" x2="59.86602540378457" y2="172.50000000000034"/>
    <line x1="59.86602540378457" y1="172.50000000000034" x2="59.96592582628933" y2="172.25881904510288"/>
    <line x1="59.96592582628933" y1="172.25881904510288" x2="60.000000000000156" y2="172.00000000000017"/>
    <line x1="60.000000000000156" y1="172.00000000000017" x2="60.00000000000004" y2="171.50000000000017"/>
    <line x1="60.00000000000004" y1="171.50000000000017" x2="60.000000000000085" y2="170.00000000000006"/>
    <line x1="60.000000000000085" y1="170.00000000000006" x2="120.00000000000009" y2="170.0"/>
    <line x1="120.00000000000009" y1="170.0" x2="120.00000000000004" y2="171.5000000000001"/>
    <line x1="120.00000000000004" y1="171.5000000000001" x2="120.00000000000017" y2="172.00000000000034"/>
    <line x1="120.00000000000017" y1="172.00000000000034" x2="120.034074173711" y2="172.25881904510254"/>
    <line x1="120.034074173711" y1="172.25881904510254" x2="120.13397459621575" y2="172.50000000000034"/>
    <line x1="120.13397459621575" y1="172.50000000000034" x2="120.29289321881367" y2="172.70710678118667"/>
    <line x1="120.29289321881367" y1="172.70710678118667" x2="120.50000000000016" y2="172.8660254037843"/>
    <line x1="120.50000000000016" y1="172.8660254037843" x2="120.74118095489749" y2="172.96592582628938"/>
    <line x1="120.74118095489749" y1="172.96592582628938" x2="121.00000000000017" y2="173.0000000000001"/>
    <line x1="121.00000000000017" y1="173.0000000000001" x2="140.00000000000009" y2="173.0000000000001"/>
    <line x1="140.00000000000009" y1="173.0000000000001" x2="159.00000000000006" y2="173.00000000000017"/>
    <line x1="159.00000000000006" y1="173.00000000000017" x2="159.2588190451025" y2="172.9659258262892"/>
    <line x1="159.2588190451025" y1="172.9659258262892" x2="159.50000000000003" y2="172.86602540378442"/>
    <line x1="159.50000000000003" y1="172.86602540378442" x2="159.7071067811866" y2="172.70710678118684"/>
    <line x1="159.7071067811866" y1="172.70710678118684" x2="159.8660254037846" y2="172.50000000000023"/>
    <line x1="159.8660254037846" y1="172.50000000000023" x2="159.96592582628938" y2="172.25881904510277"/>
    <line x1="159.96592582628938" y1="172.25881904510277" x2="160.0000000000002" y2="172.00000000000017"/>
    <line x1="160.0000000000002" y1="172.00000000000017" x2="160.0000000000001" y2="171.50000000000017"/>
    <line x1="160.0000000000001" y1="171.50000000000017" x2="160.00000000000006" y2="170.00000000000006"/>
    <line x1="160.00000000000006" y1="170.00000000000006" x2="160.96950085095037" y2="169.5404303034286"/>
    <line x1="160.96950085095037" y1="169.5404303034286" x2="161.89154413614608" y2="168.99182080093578"/>
    <line x1="161.89154413614608" y1="168.99182080093578" x2="162.7579755779251" y2="168.35902323243783"/>
    <line x1="162.7579755779251" y1="168.35902323243783" x2="163.56113271329338" y2="167.64763387216658"/>
    <line x1="163.56113271329338" y1="167.64763387216658" x2="164.07106781186553" y2="167.07106781186548"/>
    <line x1="164.07106781186553" y1="167.07106781186548" x2="165.26922793016436" y2="165.50959514497208"/>
    <line x1="165.26922793016436" y1="165.50959514497208" x2="165.52309872983415" y2="165.10796393494076"/>
    <line x1="165.52309872983415" y1="165.10796393494076" x2="166.00863429853214" y2="164.15120303611116"/>
    <line x1="166.00863429853214" y1="164.15120303611116" x2="166.4021476980904" y2="163.15306306077304"/>
    <line x1="166.4021476980904" y1="163.15306306077304" x2="166.7001588125803" y2="162.12237126317268"/>
    <line x1="166.7001588125803" y1="162.12237126317268" x2="166.76698223417014" y2="161.76994565314084"/>
    <line x1="166.76698223417014" y1="161.76994565314084" x2="167.00000000000006" y2="160.0"/>
    <line x1="167.00000000000006" y1="160.0" x2="168.50000000000017" y2="160.0000000000001"/>
    <line x1="168.50000000000017" y1="160.0000000000001" x2="169.0000000000004" y2="159.99999999999983"/>
    <line x1="169.0000000000004" y1="159.99999999999983" x2="169.2588190451026" y2="159.96592582628915"/>
    <line x1="169.2588190451026" y1="159.96592582628915" x2="169.5000000000004" y2="159.86602540378436"/>
    <line x1="169.5000000000004" y1="159.86602540378436" x2="169.70710678118667" y2="159.70710678118655"/>
    <line x1="169.70710678118667" y1="159.70710678118655" x2="169.8660254037843" y2="159.5"/>
    <line x1="169.8660254037843" y1="159.5" x2="169.96592582628944" y2="159.2588190451026"/>
    <line x1="169.96592582628944" y1="159.2588190451026" x2="170.00000000000017" y2="158.99999999999994"/>
    <line x1="170.00000000000017" y1="158.99999999999994" x2="170.0000000000001" y2="140.0000000000001"/>
    <line x1="170.0000000000001" y1="140.0000000000001" x2="170.00000000000023" y2="121.00000000000006"/>
    <line x1="170.00000000000023" y1="121.00000000000006" x2="169.96592582628918" y2="120.74118095489752"/>
    <line x1="169.96592582628918" y1="120.74118095489752" x2="169.86602540378453" y2="120.49999999999994"/>
    <line x1="169.86602540378453" y1="120.49999999999994" x2="169.70710678118687" y2="120.29289321881345"/>
    <line x1="169.70710678118687" y1="120.29289321881345" x2="169.50000000000028" y2="120.13397459621558"/>
    <line x1="169.50000000000028" y1="120.13397459621558" x2="169.25881904510283" y2="120.03407417371062"/>
    <line x1="169.25881904510283" y1="120.03407417371062" x2="169.00000000000014" y2="120.0"/>
    <line x1="169.00000000000014" y1="120.0" x2="168.50000000000006" y2="120.00000000000006"/>
    <line x1="168.50000000000006" y1="120.00000000000006" x2="167.00000000000006" y2="120.0"/>
    <line x1="167.00000000000006" y1="120.0" x2="167.0" y2="60.000000000000114"/>
    <line x1="167.0" y1="60.000000000000114" x2="168.5000000000001" y2="60.000000000000114"/>
    <line x1="71.66481456572274" y1="40.85295238724365" x2="71.75000000000003" y2="41.50000000000003"/>
    <line x1="71.75000000000003" y1="41.50000000000003" x2="71.66481456572272" y2="42.14704761275641"/>
    <line x1="71.66481456572272" y1="42.14704761275641" x2="71.41506350946116" y2="42.75"/>
    <line x1="71.41506350946116" y1="42.75" x2="71.01776695296641" y2="43.26776695296638"/>
    <line x1="71.01776695296641" y1="43.26776695296638" x2="70.50000000000003" y2="43.66506350946122"/>
    <line x1="70.50000000000003" y1="43.66506350946122" x2="69.89704761275635" y2="43.91481456572268"/>
    <line x1="69.89704761275635" y1="43.91481456572268" x2="69.25000000000003" y2="43.99999999999994"/>
    <line x1="69.25000000000003" y1="43.99999999999994" x2="68.60295238724373" y2="43.91481456572279"/>
    <line x1="68.60295238724373" y1="43.91481456572279" x2="68.00000000000003" y2="43.66506350946116"/>
    <line x1="68.00000000000003" y1="43.66506350946116" x2="67.48223304703366" y2="43.267766952966326"/>
    <line x1="67.48223304703366" y1="43.267766952966326" x2="67.08493649053892" y2="42.750000000000114"/>
    <line x1="67.08493649053892" y1="42.750000000000114" x2="66.83518543427738" y2="42.14704761275635"/>
    <line x1="66.83518543427738" y1="42.14704761275635" x2="66.75000000000004" y2="41.49999999999997"/>
    <line x1="66.75000000000004" y1="41.49999999999997" x2="66.83518543427735" y2="40.85295238724373"/>
    <line x1="66.83518543427735" y1="40.85295238724373" x2="67.08493649053895" y2="40.25"/>
    <line x1="67.08493649053895" y1="40.25" x2="67.48223304703365" y2="39.73223304703362"/>
    <line x1="67.48223304703365" y1="39.73223304703362" x2="68.0" y2="39.33493649053892"/>
    <line x1="68.0" y1="39.33493649053892" x2="68.60295238724375" y2="39.08518543427732"/>
    <line x1="68.60295238724375" y1="39.08518543427732" x2="69.25000000000003" y2="39.0"/>
    <line x1="69.25000000000003" y1="39.0" x2="69.89704761275634" y2="39.08518543427732"/>
    <line x1="69.89704761275634" y1="39.08518543427732" x2="70.50000000000003" y2="39.33493649053895"/>
    <line x1="70.50000000000003" y1="39.33493649053895" x2="71.01776695296638" y2="39.732233047033674"/>
    <line x1="71.01776695296638" y1="39.732233047033674" x2="71.41506350946113" y2="40.250000000000085"/>
    <line x1="71.41506350946113" y1="40.250000000000085" x2="71.66481456572274" y2="40.85295238724365"/>
    <line x1="110.75000000000007" y1="39.0" x2="111.39704761275632" y2="39.08518543427732"/>
    <line x1="111.39704761275632" y1="39.08518543427732" x2="112.00000000000006" y2="39.33493649053892"/>
    <line x1="112.00000000000006" y1="39.33493649053892" x2="112.51776695296638" y2="39.732233047033674"/>
    <line x1="112.51776695296638" y1="39.732233047033674" x2="112.91506350946115" y2="40.25000000000003"/>
    <line x1="112.91506350946115" y1="40.25000000000003" x2="113.16481456572271" y2="40.85295238724373"/>
    <line x1="113.16481456572271" y1="40.85295238724373" x2="113.25000000000004" y2="41.50000000000006"/>
    <line x1="113.25000000000004" y1="41.50000000000006" x2="113.16481456572271" y2="42.147047612756296"/>
    <line x1="113.16481456572271" y1="42.147047612756296" x2="112.91506350946113" y2="42.75"/>
    <line x1="112.91506350946113" y1="42.75" x2="112.51776695296638" y2="43.26776695296638"/>
    <line x1="112.51776695296638" y1="43.26776695296638" x2="112.00000000000006" y2="43.665063509461106"/>
    <line x1="112.00000000000006" y1="43.665063509461106" x2="111.39704761275632" y2="43.91481456572268"/>
    <line x1="111.39704761275632" y1="43.91481456572268" x2="110.75000000000006" y2="44.00000000000006"/>
    <line x1="110.75000000000006" y1="44.00000000000006" x2="110.10295238724373" y2="43.91481456572268"/>
    <line x1="110.10295238724373" y1="43.91481456572268" x2="109.49999999999999" y2="43.665063509461106"/>
    <line x1="109.49999999999999" y1="43.665063509461106" x2="108.98223304703367" y2="43.26776695296638"/>
    <line x1="108.98223304703367" y1="43.26776695296638" x2="108.58493649053891" y2="42.75000000000006"/>
    <line x1="108.58493649053891" y1="42.75000000000006" x2="108.33518543427738" y2="42.147047612756296"/>
    <line x1="108.33518543427738" y1="42.147047612756296" x2="108.25000000000004" y2="41.50000000000006"/>
    <line x1="108.25000000000004" y1="41.50000000000006" x2="108.33518543427738" y2="40.85295238724373"/>
    <line x1="108.33518543427738" y1="40.85295238724373" x2="108.58493649053892" y2="40.25"/>
    <line x1="108.58493649053892" y1="40.25" x2="108.98223304703369" y2="39.73223304703362"/>
    <line x1="108.98223304703369" y1="39.73223304703362" x2="109.5" y2="39.33493649053895"/>
    <line x1="109.5" y1="39.33493649053895" x2="110.10295238724375" y2="39.08518543427732"/>
    <line x1="110.10295238724375" y1="39.08518543427732" x2="110.75000000000007" y2="39.0"/>
    <line x1="108.33518543427738" y1="15.647047612756296" x2="108.25000000000006" y2="15.0"/>
    <line x1="108.25000000000006" y1="15.0" x2="108.33518543427738" y2="14.352952387243704"/>
    <line x1="108.33518543427738" y1="14.352952387243704" x2="108.58493649053892" y2="13.749999999999972"/>
    <line x1="108.58493649053892" y1="13.749999999999972" x2="108.98223304703367" y2="13.232233047033645"/>
    <line x1="108.98223304703367" y1="13.232233047033645" x2="109.5" y2="12.834936490538894"/>
    <line x1="109.5" y1="12.834936490538894" x2="110.10295238724373" y2="12.58518543427735"/>
    <line x1="110.10295238724373" y1="12.58518543427735" x2="110.75000000000009" y2="12.499999999999972"/>
    <line x1="110.75000000000009" y1="12.499999999999972" x2="111.39704761275632" y2="12.58518543427732"/>
    <line x1="111.39704761275632" y1="12.58518543427732" x2="112.00000000000007" y2="12.83493649053895"/>
    <line x1="112.00000000000007" y1="12.83493649053895" x2="112.51776695296638" y2="13.232233047033645"/>
    <line x1="112.51776695296638" y1="13.232233047033645" x2="112.91506350946113" y2="13.75"/>
    <line x1="112.91506350946113" y1="13.75" x2="113.16481456572272" y2="14.352952387243704"/>
    <line x1="113.16481456572272" y1="14.352952387243704" x2="113.25000000000006" y2="15.0"/>
    <line x1="113.25000000000006" y1="15.0" x2="113.16481456572271" y2="15.647047612756324"/>
    <line x1="113.16481456572271" y1="15.647047612756324" x2="112.91506350946115" y2="16.25000000000003"/>
    <line x1="112.91506350946115" y1="16.25000000000003" x2="112.51776695296638" y2="16.767766952966355"/>
    <line x1="112.51776695296638" y1="16.767766952966355" x2="112.00000000000006" y2="17.165063509461106"/>
    <line x1="112.00000000000006" y1="17.165063509461106" x2="111.3970476127563" y2="17.41481456572268"/>
    <line x1="111.3970476127563" y1="17.41481456572268" x2="110.75000000000007" y2="17.50000000000003"/>
    <line x1="110.75000000000007" y1="17.50000000000003" x2="110.10295238724373" y2="17.41481456572265"/>
    <line x1="110.10295238724373" y1="17.41481456572265" x2="109.5" y2="17.165063509461106"/>
    <line x1="109.5" y1="17.165063509461106" x2="108.98223304703367" y2="16.767766952966383"/>
    <line x1="108.98223304703367" y1="16.767766952966383" x2="108.58493649053892" y2="16.25"/>
    <line x1="108.58493649053892" y1="16.25" x2="108.33518543427738" y2="15.647047612756296"/>
    <line x1="71.66481456572268" y1="14.35295238724376" x2="71.75" y2="15.000000000000057"/>
    <line x1="71.75" y1="15.000000000000057" x2="71.66481456572268" y2="15.647047612756296"/>
    <line x1="71.66481456572268" y1="15.647047612756296" x2="71.41506350946116" y2="16.25000000000003"/>
    <line x1="71.41506350946116" y1="16.25000000000003" x2="71.01776695296638" y2="16.76776695296644"/>
    <line x1="71.01776695296638" y1="16.76776695296644" x2="70.50000000000001" y2="17.165063509461163"/>
    <line x1="70.50000000000001" y1="17.165063509461163" x2="69.89704761275632" y2="17.414814565722736"/>
    <line x1="69.89704761275632" y1="17.414814565722736" x2="69.25000000000003" y2="17.50000000000003"/>
    <line x1="69.25000000000003" y1="17.50000000000003" x2="68.60295238724376" y2="17.41481456572268"/>
    <line x1="68.60295238724376" y1="17.41481456572268" x2="68.0" y2="17.165063509461163"/>
    <line x1="68.0" y1="17.165063509461163" x2="67.48223304703363" y2="16.767766952966383"/>
    <line x1="67.48223304703363" y1="16.767766952966383" x2="67.08493649053892" y2="16.25"/>
    <line x1="67.08493649053892" y1="16.25" x2="66.83518543427735" y2="15.647047612756324"/>
    <line x1="66.83518543427735" y1="15.647047612756324" x2="66.75" y2="15.000000000000085"/>
    <line x1="66.75" y1="15.000000000000085" x2="66.83518543427735" y2="14.352952387243704"/>
    <line x1="66.83518543427735" y1="14.352952387243704" x2="67.08493649053892" y2="13.750000000000057"/>
    <line x1="67.08493649053892" y1="13.750000000000057" x2="67.48223304703365" y2="13.232233047033645"/>
    <line x1="67.48223304703365" y1="13.232233047033645" x2="68.00000000000006" y2="12.834936490538894"/>
    <line x1="68.00000000000006" y1="12.834936490538894" x2="68.60295238724375" y2="12.585185434277406"/>
    <line x1="68.60295238724375" y1="12.585185434277406" x2="69.25000000000006" y2="12.500000000000028"/>
    <line x1="69.25000000000006" y1="12.500000000000028" x2="69.89704761275632" y2="12.58518543427735"/>
    <line x1="69.89704761275632" y1="12.58518543427735" x2="70.50000000000003" y2="12.83493649053898"/>
    <line x1="70.50000000000003" y1="12.83493649053898" x2="71.01776695296638" y2="13.232233047033645"/>
    <line x1="71.01776695296638" y1="13.232233047033645" x2="71.41506350946113" y2="13.750000000000057"/>
    <line x1="71.41506350946113" y1="13.750000000000057" x2="71.66481456572268" y2="14.35295238724376"/>
    <line x1="132.27259338968753" y1="142.07055236082016" x2="132.00000000000009" y2="140.00000000000006"/>
    <line x1="132.00000000000009" y1="140.00000000000006" x2="132.27259338968753" y2="137.92944763917984"/>
    <line x1="132.27259338968753" y1="137.92944763917984" x2="133.07179676972456" y2="136.00000000000006"/>
    <line x1="133.07179676972456" y1="136.00000000000006" x2="134.3431457505077" y2="134.34314575050763"/>
    <line x1="134.3431457505077" y1="134.34314575050763" x2="136.00000000000006" y2="133.07179676972447"/>
    <line x1="136.00000000000006" y1="133.07179676972447" x2="137.9294476391799" y2="132.27259338968747"/>
    <line x1="137.9294476391799" y1="132.27259338968747" x2="140.00000000000006" y2="132.0"/>
    <line x1="140.00000000000006" y1="132.0" x2="142.0705523608202" y2="132.27259338968747"/>
    <line x1="142.0705523608202" y1="132.27259338968747" x2="144.00000000000006" y2="133.07179676972447"/>
    <line x1="144.00000000000006" y1="133.07179676972447" x2="145.6568542494924" y2="134.34314575050763"/>
    <line x1="145.6568542494924" y1="134.34314575050763" x2="146.92820323027559" y2="136.00000000000006"/>
    <line x1="146.92820323027559" y1="136.00000000000006" x2="147.72740661031258" y2="137.92944763917984"/>
    <line x1="147.72740661031258" y1="137.92944763917984" x2="148.00000000000006" y2="140.0"/>
    <line x1="148.00000000000006" y1="140.0" x2="147.72740661031258" y2="142.07055236082016"/>
    <line x1="147.72740661031258" y1="142.07055236082016" x2="146.92820323027559" y2="144.00000000000006"/>
    <line x1="146.92820323027559" y1="144.00000000000006" x2="145.65685424949245" y2="145.65685424949237"/>
    <line x1="145.65685424949245" y1="145.65685424949237" x2="144.00000000000006" y2="146.92820323027553"/>
    <line x1="144.00000000000006" y1="146.92820323027553" x2="142.07055236082022" y2="147.72740661031253"/>
    <line x1="142.07055236082022" y1="147.72740661031253" x2="140.00000000000006" y2="148.0"/>
    <line x1="140.00000000000006" y1="148.0" x2="137.9294476391799" y2="147.72740661031253"/>
    <line x1="137.9294476391799" y1="147.72740661031253" x2="136.00000000000006" y2="146.92820323027553"/>
    <line x1="136.00000000000006" y1="146.92820323027553" x2="134.3431457505077" y2="145.65685424949237"/>
    <line x1="134.3431457505077" y1="145.65685424949237" x2="133.07179676972453" y2="144.00000000000006"/>
    <line x1="133.07179676972453" y1="144.00000000000006" x2="132.27259338968753" y2="142.07055236082016"/>
    <line x1="48.000000000000085" y1="140.0000000000001" x2="47.72740661031261" y2="142.07055236082016"/>
    <line x1="47.72740661031261" y1="142.07055236082016" x2="46.92820323027557" y2="144.00000000000006"/>
    <line x1="46.92820323027557" y1="144.00000000000006" x2="45.656854249492426" y2="145.65685424949243"/>
    <line x1="45.656854249492426" y1="145.65685424949243" x2="44.00000000000007" y2="146.92820323027559"/>
    <line x1="44.00000000000007" y1="146.92820323027559" x2="42.070552360820216" y2="147.72740661031258"/>
    <line x1="42.070552360820216" y1="147.72740661031258" x2="40.00000000000006" y2="148.00000000000006"/>
    <line x1="40.00000000000006" y1="148.00000000000006" x2="37.92944763917992" y2="147.72740661031264"/>
    <line x1="37.92944763917992" y1="147.72740661031264" x2="36.000000000000085" y2="146.92820323027559"/>
    <line x1="36.000000000000085" y1="146.92820323027559" x2="34.34314575050771" y2="145.65685424949248"/>
    <line x1="34.34314575050771" y1="145.65685424949248" x2="33.07179676972454" y2="144.00000000000006"/>
    <line x1="33.07179676972454" y1="144.00000000000006" x2="32.2725933896875" y2="142.07055236082022"/>
    <line x1="32.2725933896875" y1="142.07055236082022" x2="32.00000000000005" y2="140.00000000000006"/>
    <line x1="32.00000000000005" y1="140.00000000000006" x2="32.2725933896875" y2="137.92944763917984"/>
    <line x1="32.2725933896875" y1="137.92944763917984" x2="33.07179676972454" y2="136.0000000000001"/>
    <line x1="33.07179676972454" y1="136.0000000000001" x2="34.34314575050771" y2="134.34314575050763"/>
    <line x1="34.34314575050771" y1="134.34314575050763" x2="36.000000000000085" y2="133.07179676972459"/>
    <line x1="36.000000000000085" y1="133.07179676972459" x2="37.9294476391799" y2="132.27259338968753"/>
    <line x1="37.9294476391799" y1="132.27259338968753" x2="40.00000000000006" y2="132.00000000000006"/>
    <line x1="40.00000000000006" y1="132.00000000000006" x2="42.070552360820194" y2="132.27259338968753"/>
    <line x1="42.070552360820194" y1="132.27259338968753" x2="44.00000000000005" y2="133.07179676972453"/>
    <line x1="44.00000000000005" y1="133.07179676972453" x2="45.656854249492454" y2="134.3431457505077"/>
    <line x1="45.656854249492454" y1="134.3431457505077" x2="46.92820323027557" y2="136.0000000000001"/>
    <line x1="46.92820323027557" y1="136.0000000000001" x2="47.72740661031263" y2="137.9294476391799"/>
    <line x1="47.72740661031263" y1="137.9294476391799" x2="48.000000000000085" y2="140.0000000000001"/>
    <line x1="34.34314575050764" y1="45.656854249492596" x2="33.0717967697245" y2="44.00000000000017"/>
    <line x1="33.0717967697245" y1="44.00000000000017" x2="32.27259338968746" y2="42.070552360820216"/>
    <line x1="32.27259338968746" y1="42.070552360820216" x2="32.0" y2="40.00000000000017"/>
    <line x1="32.0" y1="40.00000000000017" x2="32.27259338968746" y2="37.9294476391799"/>
    <line x1="32.27259338968746" y1="37.9294476391799" x2="33.0717967697245" y2="36.0"/>
    <line x1="33.0717967697245" y1="36.0" x2="34.34314575050762" y2="34.34314575050777"/>
    <line x1="34.34314575050762" y1="34.34314575050777" x2="36.0" y2="33.071796769724585"/>
    <line x1="36.0" y1="33.071796769724585" x2="37.92944763917983" y2="32.27259338968747"/>
    <line x1="37.92944763917983" y1="32.27259338968747" x2="40.000000000000014" y2="32.00000000000006"/>
    <line x1="40.000000000000014" y1="32.00000000000006" x2="42.07055236082017" y2="32.2725933896875"/>
    <line x1="42.07055236082017" y1="32.2725933896875" x2="44.0" y2="33.071796769724585"/>
    <line x1="44.0" y1="33.071796769724585" x2="45.656854249492405" y2="34.34314575050766"/>
    <line x1="45.656854249492405" y1="34.34314575050766" x2="46.92820323027553" y2="36.0"/>
    <line x1="46.92820323027553" y1="36.0" x2="47.72740661031256" y2="37.92944763917987"/>
    <line x1="47.72740661031256" y1="37.92944763917987" x2="48.000000000000014" y2="40.00000000000006"/>
    <line x1="48.000000000000014" y1="40.00000000000006" x2="47.72740661031256" y2="42.07055236082016"/>
    <line x1="47.72740661031256" y1="42.07055236082016" x2="46.92820323027553" y2="43.99999999999994"/>
    <line x1="46.92820323027553" y1="43.99999999999994" x2="45.656854249492405" y2="45.65685424949254"/>
    <line x1="45.656854249492405" y1="45.65685424949254" x2="44.00000000000003" y2="46.9282032302757"/>
    <line x1="44.00000000000003" y1="46.9282032302757" x2="42.07055236082017" y2="47.72740661031264"/>
    <line x1="42.07055236082017" y1="47.72740661031264" x2="40.000000000000014" y2="48.00000000000023"/>
    <line x1="40.000000000000014" y1="48.00000000000023" x2="37.929447639179855" y2="47.72740661031264"/>
    <line x1="37.929447639179855" y1="47.72740661031264" x2="36.000000000000014" y2="46.92820323027547"/>
    <line x1="36.000000000000014" y1="46.92820323027547" x2="34.34314575050764" y2="45.656854249492596"/>
    <line x1="133.0717967697245" y1="36.00000000000006" x2="134.34314575050763" y2="34.34314575050766"/>
    <line x1="134.34314575050763" y1="34.34314575050766" x2="136.0" y2="33.07179676972453"/>
    <line x1="136.0" y1="33.07179676972453" x2="137.92944763917984" y2="32.27259338968747"/>
    <line x1="137.92944763917984" y1="32.27259338968747" x2="140.0" y2="32.00000000000006"/>
    <line x1="140.0" y1="32.00000000000006" x2="142.0705523608202" y2="32.27259338968747"/>
    <line x1="142.0705523608202" y1="32.27259338968747" x2="144.0" y2="33.07179676972453"/>
    <line x1="144.0" y1="33.07179676972453" x2="145.6568542494924" y2="34.34314575050766"/>
    <line x1="145.6568542494924" y1="34.34314575050766" x2="146.92820323027559" y2="36.0"/>
    <line x1="146.92820323027559" y1="36.0" x2="147.72740661031258" y2="37.92944763917987"/>
    <line x1="147.72740661031258" y1="37.92944763917987" x2="148.0" y2="40.00000000000006"/>
    <line x1="148.0" y1="40.00000000000006" x2="147.72740661031258" y2="42.07055236082016"/>
    <line x1="147.72740661031258" y1="42.07055236082016" x2="146.92820323027559" y2="44.00000000000006"/>
    <line x1="146.92820323027559" y1="44.00000000000006" x2="145.6568542494924" y2="45.656854249492426"/>
    <line x1="145.6568542494924" y1="45.656854249492426" x2="144.0" y2="46.928203230275585"/>
    <line x1="144.0" y1="46.928203230275585" x2="142.0705523608202" y2="47.727406610312585"/>
    <line x1="142.0705523608202" y1="47.727406610312585" x2="140.0" y2="48.00000000000006"/>
    <line x1="140.0" y1="48.00000000000006" x2="137.92944763917984" y2="47.727406610312585"/>
    <line x1="137.92944763917984" y1="47.727406610312585" x2="136.0" y2="46.928203230275585"/>
    <line x1="136.0" y1="46.928203230275585" x2="134.34314575050763" y2="45.656854249492426"/>
    <line x1="134.34314575050763" y1="45.656854249492426" x2="133.0717967697245" y2="44.00000000000006"/>
    <line x1="133.0717967697245" y1="44.00000000000006" x2="132.27259338968742" y2="42.070552360820216"/>
    <line x1="132.27259338968742" y1="42.070552360820216" x2="132.00000000000003" y2="40.00000000000006"/>
    <line x1="132.00000000000003" y1="40.00000000000006" x2="132.27259338968744" y2="37.92944763917987"/>
    <line x1="132.27259338968744" y1="37.92944763917987" x2="133.0717967697245" y2="36.00000000000006"/>
  </g>
</svg>
