<?xml version="1.0" standalone="no"?>
<!DOCTYPE svg PUBLIC "-//W3C//DTD SVG 1.1//EN" "http://www.w3.org/Graphics/SVG/1.1/DTD/svg11.dtd">
<svg width="180.0000000000001mm" height="67.50000000000006mm"
 viewBox="0 0 180.0000000000001 67.50000000000006"
 xmlns="http://www.w3.org/2000/svg" version="1.1"
 xmlns:xlink="http://www.w3.org/1999/xlink">
<desc>Output from Flights of Ideas SVG Sketchup Plugin</desc>

  <path id="face0-cut"
 style="fill:none;stroke:#0000FF;stroke-width:1;stroke-miterlimit:4;stroke-dasharray:none;stroke-linejoin:round;stroke-linecap:round"
        d="M 113.00000000000014,10.0 L 23.000000000000057,10.0 L 20.411809548974873,10.340741737106441 L 18.00000000000024,11.339745962156584 L 15.928932188134795,12.928932188134894 L 14.339745962155675,15.00000000000017 L 13.340741737109411,17.411809548975015 L 13.0000000000001,20.0 L 13.000000000000028,22.500000000000398 L 11.50000000000027,22.500000000000142 L 11.000000000000242,22.500000000000057 L 10.741180954897615,22.534074173710792 L 10.500000000000085,22.633974596215467 L 10.29289321881356,22.792893218813845 L 10.13397459621568,23.000000000000227 L 10.034074173711119,23.24118095489743 L 10.0,23.49999999999997 L 10.000000000000341,41.50000000000023 L 10.03407417371109,41.758819045102655 L 10.133974596215893,42.0000000000002 L 10.292893218813688,42.20710678118678 L 10.500000000000199,42.36602540378456 L 10.741180954897615,42.465925826289265 L 11.000000000000128,42.500000000000256 L 13.0000000000001,42.500000000000085 L 13.000000000000284,45.00000000000017 L 13.340741737109653,47.58819045102544 L 14.339745962155575,50.0 L 15.928932188134738,52.07106781186553 L 18.000000000000156,53.66025403784457 L 20.41180954897486,54.65925826289072 L 23.000000000000085,55.00000000000006 L 23.000000000000114,57.50000000000006 L 157.0000000000001,57.5 L 157.0000000000001,54.99999999999997 L 159.58819045102535,54.65925826289069 L 162.00000000000014,53.66025403784437 L 164.0710678118656,52.071067811865504 L 165.66025403784454,50.0 L 166.6592582628908,47.58819045102521 L 167.00000000000014,44.99999999999997 L 167.00000000000014,42.49999999999997 L 168.5000000000001,42.49999999999997 L 169.0000000000001,42.5 L 169.25881904510263,42.465925826289066 L 169.50000000000017,42.36602540378445 L 169.70710678118667,42.207106781186525 L 169.86602540378456,42.00000000000003 L 169.9659258262892,41.75881904510251 L 170.0000000000001,41.5 L 170.0000000000001,23.50000000000003 L 169.9659258262892,23.241180954897487 L 169.86602540378456,22.99999999999997 L 169.70710678118667,22.792893218813475 L 169.50000000000017,22.633974596215523 L 169.25881904510263,22.534074173710877 L 169.0000000000001,22.49999999999997 L 167.00000000000014,22.499999999999943 L 167.00000000000014,20.0 L 166.6592582628908,17.411809548974787 L 165.66025403784454,14.999999999999986 L 164.0710678118656,12.928932188134581 L 162.00000000000014,11.339745962155547 L 159.58819045102535,10.34074173710978 L 157.0000000000001,10.0 L 116.00000000000014,10.0 L 113.00000000000014,10.0 M 70.00000000000014,15.500000000000014 L 70.00000000000013,12.499999999999872 L 110.00000000000016,12.499999999999986 L 110.00000000000016,15.499999999999986 L 70.00000000000014,15.500000000000014 "
  />
  <path id="face0-interior"
 style="fill:none;stroke:#FF0000;stroke-width:1;stroke-miterlimit:4;stroke-dasharray:none;stroke-linejoin:round;stroke-linecap:round"
        d="M 113.00000000000014,10.0 M 23.000000000000057,10.0 M 20.411809548974873,10.340741737106441 M 18.00000000000024,11.339745962156584 M 15.928932188134795,12.928932188134894 M 14.339745962155675,15.00000000000017 M 13.340741737109411,17.411809548975015 M 13.0000000000001,20.0 M 13.000000000000028,22.500000000000398 M 11.50000000000027,22.500000000000142 M 11.000000000000242,22.500000000000057 M 10.741180954897615,22.534074173710792 M 10.500000000000085,22.633974596215467 M 10.29289321881356,22.792893218813845 M 10.13397459621568,23.000000000000227 M 10.034074173711119,23.24118095489743 M 10.0,23.49999999999997 M 10.000000000000341,41.50000000000023 M 10.03407417371109,41.758819045102655 M 10.133974596215893,42.0000000000002 M 10.292893218813688,42.20710678118678 M 10.500000000000199,42.36602540378456 M 10.741180954897615,42.465925826289265 M 11.000000000000128,42.500000000000256 M 13.0000000000001,42.500000000000085 M 13.000000000000284,45.00000000000017 M 13.340741737109653,47.58819045102544 M 14.339745962155575,50.0 M 15.928932188134738,52.07106781186553 M 18.000000000000156,53.66025403784457 M 20.41180954897486,54.65925826289072 M 23.000000000000085,55.00000000000006 M 23.000000000000114,57.50000000000006 M 157.0000000000001,57.5 M 157.0000000000001,54.99999999999997 M 159.58819045102535,54.65925826289069 M 162.00000000000014,53.66025403784437 M 164.0710678118656,52.071067811865504 M 165.66025403784454,50.0 M 166.6592582628908,47.58819045102521 M 167.00000000000014,44.99999999999997 M 167.00000000000014,42.49999999999997 M 168.5000000000001,42.49999999999997 M 169.0000000000001,42.5 M 169.25881904510263,42.465925826289066 M 169.50000000000017,42.36602540378445 M 169.70710678118667,42.207106781186525 M 169.86602540378456,42.00000000000003 M 169.9659258262892,41.75881904510251 M 170.0000000000001,41.5 M 170.0000000000001,23.50000000000003 M 169.9659258262892,23.241180954897487 M 169.86602540378456,22.99999999999997 M 169.70710678118667,22.792893218813475 M 169.50000000000017,22.633974596215523 M 169.25881904510263,22.534074173710877 M 169.0000000000001,22.49999999999997 M 167.00000000000014,22.499999999999943 M 167.00000000000014,20.0 M 166.6592582628908,17.411809548974787 M 165.66025403784454,14.999999999999986 M 164.0710678118656,12.928932188134581 M 162.00000000000014,11.339745962155547 M 159.58819045102535,10.34074173710978 M 157.0000000000001,10.0 M 116.00000000000014,10.0 M 70.00000000000014,15.500000000000014 M 70.00000000000013,12.499999999999872 M 110.00000000000016,12.499999999999986 M 110.00000000000016,15.499999999999986 "
  />
  <path id="face0-interior"
 style="fill:none;stroke:#00FF00;stroke-width:1;stroke-miterlimit:4;stroke-dasharray:none;stroke-linejoin:round;stroke-linecap:round"
        d="M 113.00000000000014,10.0 M 23.000000000000057,10.0 M 20.411809548974873,10.340741737106441 M 18.00000000000024,11.339745962156584 M 15.928932188134795,12.928932188134894 M 14.339745962155675,15.00000000000017 M 13.340741737109411,17.411809548975015 M 13.0000000000001,20.0 M 13.000000000000028,22.500000000000398 M 11.50000000000027,22.500000000000142 M 11.000000000000242,22.500000000000057 M 10.741180954897615,22.534074173710792 M 10.500000000000085,22.633974596215467 M 10.29289321881356,22.792893218813845 M 10.13397459621568,23.000000000000227 M 10.034074173711119,23.24118095489743 M 10.0,23.49999999999997 M 10.000000000000341,41.50000000000023 M 10.03407417371109,41.758819045102655 M 10.133974596215893,42.0000000000002 M 10.292893218813688,42.20710678118678 M 10.500000000000199,42.36602540378456 M 10.741180954897615,42.465925826289265 M 11.000000000000128,42.500000000000256 M 13.0000000000001,42.500000000000085 M 13.000000000000284,45.00000000000017 M 13.340741737109653,47.58819045102544 M 14.339745962155575,50.0 M 15.928932188134738,52.07106781186553 M 18.000000000000156,53.66025403784457 M 20.41180954897486,54.65925826289072 M 23.000000000000085,55.00000000000006 M 23.000000000000114,57.50000000000006 M 157.0000000000001,57.5 M 157.0000000000001,54.99999999999997 M 159.58819045102535,54.65925826289069 M 162.00000000000014,53.66025403784437 M 164.0710678118656,52.071067811865504 M 165.66025403784454,50.0 M 166.6592582628908,47.58819045102521 M 167.00000000000014,44.99999999999997 M 167.00000000000014,42.49999999999997 M 168.5000000000001,42.49999999999997 M 169.0000000000001,42.5 M 169.25881904510263,42.465925826289066 M 169.50000000000017,42.36602540378445 M 169.70710678118667,42.207106781186525 M 169.86602540378456,42.00000000000003 M 169.9659258262892,41.75881904510251 M 170.0000000000001,41.5 M 170.0000000000001,23.50000000000003 M 169.9659258262892,23.241180954897487 M 169.86602540378456,22.99999999999997 M 169.70710678118667,22.792893218813475 M 169.50000000000017,22.633974596215523 M 169.25881904510263,22.534074173710877 M 169.0000000000001,22.49999999999997 M 167.00000000000014,22.499999999999943 M 167.00000000000014,20.0 M 166.6592582628908,17.411809548974787 M 165.66025403784454,14.999999999999986 M 164.0710678118656,12.928932188134581 M 162.00000000000014,11.339745962155547 M 159.58819045102535,10.34074173710978 M 157.0000000000001,10.0 M 116.00000000000014,10.0 M 70.00000000000014,15.500000000000014 M 70.00000000000013,12.499999999999872 M 110.00000000000016,12.499999999999986 M 110.00000000000016,15.499999999999986 "
  />
</svg>
