<?xml version="1.0" standalone="no"?>
<!DOCTYPE svg PUBLIC "-//W3C//DTD SVG 1.1//EN" "http://www.w3.org/Graphics/SVG/1.1/DTD/svg11.dtd">
<svg width="86.5mm" height="110.00000000000001mm"
 viewBox="0 0 86.5 110.00000000000001"
 xmlns="http://www.w3.org/2000/svg" version="1.1"
 xmlns:xlink="http://www.w3.org/1999/xlink">
<desc>Output from Flights of Ideas SVG Sketchup Plugin</desc>

  <path id="face0-cut"
 style="fill:none;stroke:#0000FF;stroke-width:1;stroke-miterlimit:4;stroke-dasharray:none;stroke-linejoin:round;stroke-linecap:round"
        d="M 16.5,20.000000000000014 L 16.500000000000007,90.00000000000001 L 10.000000000000002,90.00000000000001 L 10.000000000000004,100.00000000000001 L 31.5,99.99999999999999 L 43.14685697563812,98.46666219747068 L 53.99999990321411,93.97114322617908 L 63.319805034856614,86.81980527193265 L 70.47114305854103,77.50000019357175 L 74.96666211069486,66.64685729949 L 76.5,55.00000033527613 L 74.96666228424657,43.35314334821375 L 70.47114339381716,32.50000038714353 L 63.31980550900868,23.180195202219323 L 54.000000483929405,16.028857109097075 L 43.14685762334187,11.533337976080986 L 31.5,10.0 L 10.0,10.000000000000014 L 10.000000000000002,20.000000000000014 L 16.5,20.000000000000014 M 25.414118367319762,18.914118367319773 L 30.915737783689746,18.914118367319773 L 40.819805681146114,20.21801371110959 L 49.50448141594824,23.81532431794018 L 56.96218153885057,29.537819030273624 L 62.68467608449133,36.99551928108356 L 66.28198651013294,45.68019512750347 L 67.50896205741675,55.000000268287664 L 66.28198637125698,64.31980539078857 L 62.68467581620367,73.00448118360431 L 56.9621811594345,80.46218134914248 L 49.504480951260405,86.18467595034748 L 40.81980513164246,89.78198644069501 L 30.915737817040224,91.08588163268026 L 25.414118367319762,91.08588163268026 L 25.414118367319762,18.914118367319773 "
  />
  <path id="face0-interior"
 style="fill:none;stroke:#FF0000;stroke-width:1;stroke-miterlimit:4;stroke-dasharray:none;stroke-linejoin:round;stroke-linecap:round"
        d="M 16.5,20.000000000000014 M 16.500000000000007,90.00000000000001 M 10.000000000000002,90.00000000000001 M 10.000000000000004,100.00000000000001 M 31.5,99.99999999999999 M 43.14685697563812,98.46666219747068 M 53.99999990321411,93.97114322617908 M 63.319805034856614,86.81980527193265 M 70.47114305854103,77.50000019357175 M 74.96666211069486,66.64685729949 M 76.5,55.00000033527613 M 74.96666228424657,43.35314334821375 M 70.47114339381716,32.50000038714353 M 63.31980550900868,23.180195202219323 M 54.000000483929405,16.028857109097075 M 43.14685762334187,11.533337976080986 M 31.5,10.0 M 10.0,10.000000000000014 M 10.000000000000002,20.000000000000014 M 25.414118367319762,18.914118367319773 M 30.915737783689746,18.914118367319773 M 40.819805681146114,20.21801371110959 M 49.50448141594824,23.81532431794018 M 56.96218153885057,29.537819030273624 M 62.68467608449133,36.99551928108356 M 66.28198651013294,45.68019512750347 M 67.50896205741675,55.000000268287664 M 66.28198637125698,64.31980539078857 M 62.68467581620367,73.00448118360431 M 56.9621811594345,80.46218134914248 M 49.504480951260405,86.18467595034748 M 40.81980513164246,89.78198644069501 M 30.915737817040224,91.08588163268026 M 25.414118367319762,91.08588163268026 "
  />
  <path id="face0-interior"
 style="fill:none;stroke:#00FF00;stroke-width:1;stroke-miterlimit:4;stroke-dasharray:none;stroke-linejoin:round;stroke-linecap:round"
        d="M 16.5,20.000000000000014 M 16.500000000000007,90.00000000000001 M 10.000000000000002,90.00000000000001 M 10.000000000000004,100.00000000000001 M 31.5,99.99999999999999 M 43.14685697563812,98.46666219747068 M 53.99999990321411,93.97114322617908 M 63.319805034856614,86.81980527193265 M 70.47114305854103,77.50000019357175 M 74.96666211069486,66.64685729949 M 76.5,55.00000033527613 M 74.96666228424657,43.35314334821375 M 70.47114339381716,32.50000038714353 M 63.31980550900868,23.180195202219323 M 54.000000483929405,16.028857109097075 M 43.14685762334187,11.533337976080986 M 31.5,10.0 M 10.0,10.000000000000014 M 10.000000000000002,20.000000000000014 M 25.414118367319762,18.914118367319773 M 30.915737783689746,18.914118367319773 M 40.819805681146114,20.21801371110959 M 49.50448141594824,23.81532431794018 M 56.96218153885057,29.537819030273624 M 62.68467608449133,36.99551928108356 M 66.28198651013294,45.68019512750347 M 67.50896205741675,55.000000268287664 M 66.28198637125698,64.31980539078857 M 62.68467581620367,73.00448118360431 M 56.9621811594345,80.46218134914248 M 49.504480951260405,86.18467595034748 M 40.81980513164246,89.78198644069501 M 30.915737817040224,91.08588163268026 M 25.414118367319762,91.08588163268026 "
  />
</svg>
