<?xml version="1.0" encoding="UTF-8" standalone="no"?>
<!-- Created with Inkscape (http://www.inkscape.org/) -->

<svg
   xmlns:dc="http://purl.org/dc/elements/1.1/"
   xmlns:cc="http://creativecommons.org/ns#"
   xmlns:rdf="http://www.w3.org/1999/02/22-rdf-syntax-ns#"
   xmlns:svg="http://www.w3.org/2000/svg"
   xmlns="http://www.w3.org/2000/svg"
   xmlns:sodipodi="http://sodipodi.sourceforge.net/DTD/sodipodi-0.dtd"
   xmlns:inkscape="http://www.inkscape.org/namespaces/inkscape"
   width="331.09"
   height="456.35999"
   id="svg3142"
   version="1.1"
   inkscape:version="0.48.5 r10040"
   sodipodi:docname="New document 2">
  <defs
     id="defs3144" />
  <sodipodi:namedview
     id="base"
     pagecolor="#ffffff"
     bordercolor="#666666"
     borderopacity="1.0"
     inkscape:pageopacity="0.0"
     inkscape:pageshadow="2"
     inkscape:zoom="0.35"
     inkscape:cx="375"
     inkscape:cy="520"
     inkscape:document-units="px"
     inkscape:current-layer="layer1"
     showgrid="false"
     inkscape:window-width="1366"
     inkscape:window-height="614"
     inkscape:window-x="-4"
     inkscape:window-y="-4"
     inkscape:window-maximized="1" />
  <metadata
     id="metadata3147">
    <rdf:RDF>
      <cc:Work
         rdf:about="">
        <dc:format>image/svg+xml</dc:format>
        <dc:type
           rdf:resource="http://purl.org/dc/dcmitype/StillImage" />
        <dc:title></dc:title>
      </cc:Work>
    </rdf:RDF>
  </metadata>
  <g
     inkscape:label="Layer 1"
     inkscape:groupmode="layer"
     id="layer1"
     transform="translate(0,-595.99522)">
    <path
       inkscape:connector-curvature="0"
       id="face5-cut"
       style="fill:none;stroke:#0000ff;stroke-width:3.54330707;stroke-linecap:round;stroke-linejoin:round;stroke-miterlimit:4;stroke-dasharray:none"
       d="m 169.92024,671.77503 -41.26839,-5.43309 -76.181093,0 0,35.43307 23.031487,0 0,248.03149 -23.031487,0 0,35.43308 76.181093,0 41.26839,-5.4331 38.45602,-15.92901 33.02293,-25.33939 25.33938,-33.02291 15.92901,-38.45601 5.43309,-41.2684 -5.43309,-41.26841 -15.92901,-38.456 -25.33938,-33.02295 -33.02293,-25.33936 -38.45602,-15.92901 m -43.33861,281.87908 -19.49393,0 0,-255.72671 19.49393,0 35.09315,4.62008 30.77247,12.74638 26.42492,20.27657 20.27656,26.42492 12.74637,30.77246 4.34756,33.02295 -4.34755,33.02291 -12.74638,30.77249 -20.27655,26.42492 -26.42493,20.27654 -30.77247,12.74641 -35.09315,4.62008" />
  </g>
</svg>
