<?xml version="1.0" standalone="no"?>
<!DOCTYPE svg PUBLIC "-//W3C//DTD SVG 1.1//EN" "http://www.w3.org/Graphics/SVG/1.1/DTD/svg11.dtd">
<svg width="100.0mm" height="174.00000000000003mm"
 viewBox="0 0 100.0 174.00000000000003"
 xmlns="http://www.w3.org/2000/svg" version="1.1"
 xmlns:xlink="http://www.w3.org/1999/xlink">
<desc>Output from Flights of Ideas SVG Sketchup Plugin</desc>

  <g id="face0" fill="none" stroke="#0000FF" stroke-width="1" stroke-miterlimit="4" stroke-dasharray="none" stroke-linejoin="round" stroke-linecap="round">
    <line x1="21.2781964731182" y1="17.851534797977337" x2="20.000000000000014" y2="19.249999999999993"/>
    <line x1="20.000000000000014" y1="19.249999999999993" x2="17.4118095489748" y2="19.59074173710931"/>
    <line x1="17.4118095489748" y1="19.59074173710931" x2="15.00000000000001" y2="20.58974596215561"/>
    <line x1="15.00000000000001" y1="20.58974596215561" x2="12.928932188134535" y2="22.178932188134517"/>
    <line x1="12.928932188134535" y1="22.178932188134517" x2="11.339745962155622" y2="24.249999999999996"/>
    <line x1="11.339745962155622" y1="24.249999999999996" x2="10.340741737109326" y2="26.661809548974787"/>
    <line x1="10.340741737109326" y1="26.661809548974787" x2="10.000000000000007" y2="29.249999999999996"/>
    <line x1="10.000000000000007" y1="29.249999999999996" x2="10.340741737109326" y2="31.838190451025213"/>
    <line x1="10.340741737109326" y1="31.838190451025213" x2="11.339745962155625" y2="34.25000000000001"/>
    <line x1="11.339745962155625" y1="34.25000000000001" x2="12.928932188134535" y2="36.321067811865476"/>
    <line x1="12.928932188134535" y1="36.321067811865476" x2="15.000000000000018" y2="37.91025403784439"/>
    <line x1="15.000000000000018" y1="37.91025403784439" x2="17.41180954897481" y2="38.90925826289069"/>
    <line x1="17.41180954897481" y1="38.90925826289069" x2="20.000000000000018" y2="39.25"/>
    <line x1="20.000000000000018" y1="39.25" x2="20.000000000000014" y2="48.5"/>
    <line x1="20.000000000000014" y1="48.5" x2="20.000000000000018" y2="87.00000000000001"/>
    <line x1="20.000000000000018" y1="87.00000000000001" x2="20.0" y2="125.5"/>
    <line x1="20.0" y1="125.5" x2="20.0" y2="134.75"/>
    <line x1="20.0" y1="134.75" x2="17.411809548974812" y2="135.09074173710928"/>
    <line x1="17.411809548974812" y1="135.09074173710928" x2="15.00000000000001" y2="136.08974596215563"/>
    <line x1="15.00000000000001" y1="136.08974596215563" x2="12.928932188134524" y2="137.67893218813452"/>
    <line x1="12.928932188134524" y1="137.67893218813452" x2="11.339745962155614" y2="139.75"/>
    <line x1="11.339745962155614" y1="139.75" x2="10.34074173710933" y2="142.16180954897482"/>
    <line x1="10.34074173710933" y1="142.16180954897482" x2="10.0" y2="144.75000000000003"/>
    <line x1="10.0" y1="144.75000000000003" x2="10.340741737109322" y2="147.33819045102524"/>
    <line x1="10.340741737109322" y1="147.33819045102524" x2="11.339745962155622" y2="149.75"/>
    <line x1="11.339745962155622" y1="149.75" x2="12.928932188134532" y2="151.82106781186548"/>
    <line x1="12.928932188134532" y1="151.82106781186548" x2="15.000000000000028" y2="153.41025403784442"/>
    <line x1="15.000000000000028" y1="153.41025403784442" x2="17.4118095489748" y2="154.40925826289072"/>
    <line x1="17.4118095489748" y1="154.40925826289072" x2="20.000000000000014" y2="154.75"/>
    <line x1="20.000000000000014" y1="154.75" x2="21.27819647311821" y2="156.14846520202266"/>
    <line x1="21.27819647311821" y1="156.14846520202266" x2="22.653944400666596" y2="157.45108133312436"/>
    <line x1="22.653944400666596" y1="157.45108133312436" x2="24.120075338052253" y2="158.65106100778587"/>
    <line x1="24.120075338052253" y1="158.65106100778587" x2="25.668949892781768" y2="159.7421516359518"/>
    <line x1="25.668949892781768" y1="159.7421516359518" x2="27.292497530126624" y2="160.71866800265133"/>
    <line x1="27.292497530126624" y1="160.71866800265133" x2="28.98225862528986" y2="161.57552189126523"/>
    <line x1="28.98225862528986" y1="161.57552189126523" x2="30.7294285429576" y2="162.30824859608566"/>
    <line x1="30.7294285429576" y1="162.30824859608566" x2="32.52490351455535" y2="162.9130301860221"/>
    <line x1="32.52490351455535" y1="162.9130301860221" x2="34.35932807416232" y2="163.3867153982368"/>
    <line x1="34.35932807416232" y1="163.3867153982368" x2="36.22314380591458" y2="163.7268360580516"/>
    <line x1="36.22314380591458" y1="163.7268360580516" x2="38.1066391488954" y2="163.93161993956963"/>
    <line x1="38.1066391488954" y1="163.93161993956963" x2="40.00000000000002" y2="164.00000000000003"/>
    <line x1="40.00000000000002" y1="164.00000000000003" x2="80.0" y2="164.00000000000003"/>
    <line x1="80.0" y1="164.00000000000003" x2="82.58819045102521" y2="163.6592582628907"/>
    <line x1="82.58819045102521" y1="163.6592582628907" x2="85.00000000000003" y2="162.66025403784437"/>
    <line x1="85.00000000000003" y1="162.66025403784437" x2="87.0710678118655" y2="161.07106781186548"/>
    <line x1="87.0710678118655" y1="161.07106781186548" x2="88.66025403784442" y2="159.0"/>
    <line x1="88.66025403784442" y1="159.0" x2="89.48868116259064" y2="156.99999999999994"/>
    <line x1="89.48868116259064" y1="156.99999999999994" x2="89.65925826289069" y2="156.58819045102524"/>
    <line x1="89.65925826289069" y1="156.58819045102524" x2="90.0" y2="154.00000000000006"/>
    <line x1="90.0" y1="154.00000000000006" x2="90.0" y2="20.00000000000008"/>
    <line x1="90.0" y1="20.00000000000008" x2="89.65925826289072" y2="17.4118095489757"/>
    <line x1="89.65925826289072" y1="17.4118095489757" x2="89.48868116259058" y2="17.000000000000135"/>
    <line x1="89.48868116259058" y1="17.000000000000135" x2="88.6602540378444" y2="15.000000000000057"/>
    <line x1="88.6602540378444" y1="15.000000000000057" x2="87.07106781186548" y2="12.928932188134578"/>
    <line x1="87.07106781186548" y1="12.928932188134578" x2="85.0" y2="11.339745962155497"/>
    <line x1="85.0" y1="11.339745962155497" x2="82.58819045102521" y2="10.340741737109362"/>
    <line x1="82.58819045102521" y1="10.340741737109362" x2="80.0" y2="10.000000000000028"/>
    <line x1="80.0" y1="10.000000000000028" x2="40.000000000000014" y2="10.0"/>
    <line x1="40.000000000000014" y1="10.0" x2="38.1066391488954" y2="10.068380060430385"/>
    <line x1="38.1066391488954" y1="10.068380060430385" x2="36.22314380591457" y2="10.273163941948425"/>
    <line x1="36.22314380591457" y1="10.273163941948425" x2="34.35932807416231" y2="10.61328460176323"/>
    <line x1="34.35932807416231" y1="10.61328460176323" x2="32.524903514555355" y2="11.086969813977923"/>
    <line x1="32.524903514555355" y1="11.086969813977923" x2="30.729428542957585" y2="11.691751403914374"/>
    <line x1="30.729428542957585" y1="11.691751403914374" x2="28.98225862528986" y2="12.4244781087348"/>
    <line x1="28.98225862528986" y1="12.4244781087348" x2="27.29249753012661" y2="13.281331997348705"/>
    <line x1="27.29249753012661" y1="13.281331997348705" x2="25.66894989278176" y2="14.257848364048211"/>
    <line x1="25.66894989278176" y1="14.257848364048211" x2="24.120075338052253" y2="15.348938992214144"/>
    <line x1="24.120075338052253" y1="15.348938992214144" x2="22.65394440066658" y2="16.548918666875622"/>
    <line x1="22.65394440066658" y1="16.548918666875622" x2="21.2781964731182" y2="17.851534797977337"/>
    <line x1="84.50000000000003" y1="66.99999999999994" x2="87.50000000000003" y2="66.99999999999997"/>
    <line x1="87.50000000000003" y1="66.99999999999997" x2="87.50000000000003" y2="106.99999999999997"/>
    <line x1="87.50000000000003" y1="106.99999999999997" x2="84.50000000000003" y2="106.99999999999997"/>
    <line x1="84.50000000000003" y1="106.99999999999997" x2="84.50000000000003" y2="66.99999999999994"/>
  </g>
</svg>
