<?xml version="1.0" standalone="no"?>
<!DOCTYPE svg PUBLIC "-//W3C//DTD SVG 1.1//EN" "http://www.w3.org/Graphics/SVG/1.1/DTD/svg11.dtd">
<svg width="100.0mm" height="180.0mm"
 viewBox="0 0 100.0 180.0"
 xmlns="http://www.w3.org/2000/svg" version="1.1"
 xmlns:xlink="http://www.w3.org/1999/xlink">
<desc>Output from Flights of Ideas SVG Sketchup Plugin</desc>

  <g id="face0" fill="none" stroke="rgb(0,0,255)" stroke-width="0.5" stroke-miterlimit="4" stroke-dasharray="none" stroke-linejoin="round" stroke-linecap="round">
    <line x1="90.0" y1="160.0" x2="90.0" y2="20.0"/>
    <line x1="90.0" y1="20.0" x2="89.6592582628907" y2="17.4118095489748"/>
    <line x1="89.6592582628907" y1="17.4118095489748" x2="88.6602540378444" y2="15.0"/>
    <line x1="88.6602540378444" y1="15.0" x2="87.0710678118655" y2="12.9289321881345"/>
    <line x1="87.0710678118655" y1="12.9289321881345" x2="85.0" y2="11.3397459621556"/>
    <line x1="85.0" y1="11.3397459621556" x2="82.5881904510252" y2="10.3407417371093"/>
    <line x1="82.5881904510252" y1="10.3407417371093" x2="80.0" y2="10.0"/>
    <line x1="80.0" y1="10.0" x2="20.0" y2="10.0"/>
    <line x1="20.0" y1="10.0" x2="17.4118095489748" y2="10.3407417371093"/>
    <line x1="17.4118095489748" y1="10.3407417371093" x2="15.0" y2="11.3397459621555"/>
    <line x1="15.0" y1="11.3397459621555" x2="12.9289321881345" y2="12.9289321881345"/>
    <line x1="12.9289321881345" y1="12.9289321881345" x2="11.3397459621557" y2="14.9999999999999"/>
    <line x1="11.3397459621557" y1="14.9999999999999" x2="10.3407417371094" y2="17.4118095489747"/>
    <line x1="10.3407417371094" y1="17.4118095489747" x2="10.0" y2="19.9999999999999"/>
    <line x1="10.0" y1="19.9999999999999" x2="10.0" y2="160.0"/>
    <line x1="10.0" y1="160.0" x2="10.3407417371094" y2="162.588190451025"/>
    <line x1="10.3407417371094" y1="162.588190451025" x2="11.3397459621556" y2="165.0"/>
    <line x1="11.3397459621556" y1="165.0" x2="12.9289321881345" y2="167.071067811865"/>
    <line x1="12.9289321881345" y1="167.071067811865" x2="15.0" y2="168.660254037844"/>
    <line x1="15.0" y1="168.660254037844" x2="17.4118095489748" y2="169.659258262891"/>
    <line x1="17.4118095489748" y1="169.659258262891" x2="20.0" y2="170.0"/>
    <line x1="20.0" y1="170.0" x2="80.0" y2="170.0"/>
    <line x1="80.0" y1="170.0" x2="82.5881904510252" y2="169.659258262891"/>
    <line x1="82.5881904510252" y1="169.659258262891" x2="85.0" y2="168.660254037844"/>
    <line x1="85.0" y1="168.660254037844" x2="87.0710678118655" y2="167.071067811865"/>
    <line x1="87.0710678118655" y1="167.071067811865" x2="88.6602540378444" y2="165.0"/>
    <line x1="88.6602540378444" y1="165.0" x2="89.6592582628907" y2="162.588190451025"/>
    <line x1="89.6592582628907" y1="162.588190451025" x2="90.0" y2="160.0"/>
    <line x1="85.0" y1="110.0" x2="78.8" y2="110.0"/>
    <line x1="78.8" y1="110.0" x2="78.8" y2="70.0"/>
    <line x1="78.8" y1="70.0" x2="85.0" y2="70.0"/>
    <line x1="85.0" y1="70.0" x2="85.0" y2="110.0"/>
  </g>
</svg>
