<?xml version="1.0" standalone="no"?>
<!DOCTYPE svg PUBLIC "-//W3C//DTD SVG 1.1//EN" "http://www.w3.org/Graphics/SVG/1.1/DTD/svg11.dtd">
<svg width="180.00000000000003mm" height="183.00000000000006mm"
 viewBox="0 0 180.00000000000003 183.00000000000006"
 xmlns="http://www.w3.org/2000/svg" version="1.1"
 xmlns:xlink="http://www.w3.org/1999/xlink">
<desc>Output from Flights of Ideas SVG Sketchup Plugin</desc>

  <path id="face0-cut"
 style="fill:none;stroke:#0000FF;stroke-width:1;stroke-miterlimit:4;stroke-dasharray:none;stroke-linejoin:round;stroke-linecap:round"
        d="M 169.6592582628907,122.58819045102527 L 170.00000000000003,120.00000000000006 L 170.00000000000003,60.00000000000002 L 169.65925826289072,57.41180954897482 L 168.6602540378444,55.000000000000036 L 167.0710678118655,52.92893218813453 L 165.00000000000003,51.339745962155654 L 162.58819045102524,50.34074173710932 L 160.00000000000003,49.99999999999999 L 130.00000000000006,50.000000000000036 L 130.00000000000003,30.00000000000005 L 127.56470057620663,27.00161715144298 L 124.90520024908369,24.200181626558937 L 122.03737196228839,21.612413494073678 L 118.97833204265503,19.25375757170204 L 115.74633804322627,17.13829124540274 L 112.36067977499793,15.278640450004254 L 108.84156417774211,13.68590431266066 L 105.20999471704546,12.369588908897171 L 101.48764602736813,11.337550526613477 L 97.69673454930269,10.595948776668472 L 93.8598859331217,10.149209829900514 L 90.00000000000004,10.0 L 20.000000000000007,10.00000000000005 L 17.4118095489748,10.340741737109376 L 15.000000000000014,11.339745962155646 L 12.92893218813456,12.928932188134539 L 11.339745962155646,15.000000000000014 L 10.340741737109354,17.4118095489748 L 10.0,20.00000000000005 L 10.000000000000021,159.99999999999997 L 10.340741737109354,162.58819045102518 L 11.339745962155646,165.00000000000006 L 12.92893218813456,167.07106781186548 L 15.000000000000036,168.6602540378443 L 17.411809548974823,169.65925826289072 L 20.000000000000007,170.00000000000006 L 60.00000000000004,170.0 L 60.00000000000004,172.0 L 60.03407417371096,172.2588190451026 L 60.13397459621559,172.5000000000001 L 60.2928932188135,172.70710678118664 L 60.50000000000004,172.86602540378456 L 60.74118095489753,172.96592582628912 L 61.00000000000002,173.00000000000006 L 99.00000000000003,173.00000000000006 L 99.25881904510253,172.9659258262891 L 99.50000000000003,172.86602540378448 L 99.70710678118655,172.70710678118655 L 99.86602540378445,172.50000000000003 L 99.9659258262891,172.2588190451026 L 100.00000000000003,172.00000000000006 L 100.0,170.00000000000006 L 120.00000000000003,170.00000000000006 L 122.58819045102524,169.65925826289072 L 125.00000000000003,168.6602540378444 L 127.0710678118655,167.07106781186548 L 128.6602540378444,165.00000000000003 L 129.65925826289072,162.58819045102527 L 130.00000000000003,160.00000000000003 L 130.00000000000003,130.00000000000003 L 160.00000000000003,130.00000000000003 L 162.5881904510252,129.65925826289072 L 165.0,128.66025403784442 L 167.0710678118655,127.0710678118655 L 168.6602540378444,125.00000000000006 L 169.6592582628907,122.58819045102527 M 120.00000000000003,90.00000000000003 L 120.00000000000003,87.00000000000006 L 130.00000000000003,87.00000000000006 L 130.00000000000003,90.00000000000003 L 120.00000000000003,90.00000000000003 M 50.00000000000004,90.00000000000006 L 40.000000000000036,90.0 L 40.000000000000036,87.00000000000009 L 50.00000000000004,87.00000000000003 L 50.00000000000004,90.00000000000006 M 15.499999999999993,60.00000000000001 L 12.500000000000021,60.00000000000005 L 12.500000000000043,40.00000000000001 L 12.500000000000021,20.00000000000005 L 15.500000000000014,20.00000000000005 L 15.499999999999993,60.00000000000001 M 12.500000000000043,119.99999999999943 L 15.500000000000014,120.00000000000128 L 15.500000000000014,160.00000000000009 L 12.500000000000021,160.00000000000006 L 12.500000000000043,140.00000000000009 L 12.500000000000043,119.99999999999943 M 127.50000000000003,135.00000000000006 L 127.50000000000003,155.00000000000003 L 124.50000000000001,155.00000000000003 L 124.50000000000001,135.00000000000006 L 127.50000000000003,135.00000000000006 M 167.50000000000003,75.00000000000006 L 167.50000000000003,110.00000000000003 L 164.50000000000003,110.00000000000003 L 164.50000000000003,75.00000000000003 L 167.50000000000003,75.00000000000006 "
  />
  <path id="face0-interior"
 style="fill:none;stroke:#FF0000;stroke-width:1;stroke-miterlimit:4;stroke-dasharray:none;stroke-linejoin:round;stroke-linecap:round"
        d="M 169.6592582628907,122.58819045102527 M 170.00000000000003,120.00000000000006 M 170.00000000000003,60.00000000000002 M 169.65925826289072,57.41180954897482 M 168.6602540378444,55.000000000000036 M 167.0710678118655,52.92893218813453 M 165.00000000000003,51.339745962155654 M 162.58819045102524,50.34074173710932 M 160.00000000000003,49.99999999999999 M 130.00000000000006,50.000000000000036 M 130.00000000000003,30.00000000000005 M 127.56470057620663,27.00161715144298 M 124.90520024908369,24.200181626558937 M 122.03737196228839,21.612413494073678 M 118.97833204265503,19.25375757170204 M 115.74633804322627,17.13829124540274 M 112.36067977499793,15.278640450004254 M 108.84156417774211,13.68590431266066 M 105.20999471704546,12.369588908897171 M 101.48764602736813,11.337550526613477 M 97.69673454930269,10.595948776668472 M 93.8598859331217,10.149209829900514 M 90.00000000000004,10.0 M 20.000000000000007,10.00000000000005 M 17.4118095489748,10.340741737109376 M 15.000000000000014,11.339745962155646 M 12.92893218813456,12.928932188134539 M 11.339745962155646,15.000000000000014 M 10.340741737109354,17.4118095489748 M 10.0,20.00000000000005 M 10.000000000000021,159.99999999999997 M 10.340741737109354,162.58819045102518 M 11.339745962155646,165.00000000000006 M 12.92893218813456,167.07106781186548 M 15.000000000000036,168.6602540378443 M 17.411809548974823,169.65925826289072 M 20.000000000000007,170.00000000000006 M 60.00000000000004,170.0 M 60.00000000000004,172.0 M 60.03407417371096,172.2588190451026 M 60.13397459621559,172.5000000000001 M 60.2928932188135,172.70710678118664 M 60.50000000000004,172.86602540378456 M 60.74118095489753,172.96592582628912 M 61.00000000000002,173.00000000000006 M 99.00000000000003,173.00000000000006 M 99.25881904510253,172.9659258262891 M 99.50000000000003,172.86602540378448 M 99.70710678118655,172.70710678118655 M 99.86602540378445,172.50000000000003 M 99.9659258262891,172.2588190451026 M 100.00000000000003,172.00000000000006 M 100.0,170.00000000000006 M 120.00000000000003,170.00000000000006 M 122.58819045102524,169.65925826289072 M 125.00000000000003,168.6602540378444 M 127.0710678118655,167.07106781186548 M 128.6602540378444,165.00000000000003 M 129.65925826289072,162.58819045102527 M 130.00000000000003,160.00000000000003 M 130.00000000000003,130.00000000000003 M 160.00000000000003,130.00000000000003 M 162.5881904510252,129.65925826289072 M 165.0,128.66025403784442 M 167.0710678118655,127.0710678118655 M 168.6602540378444,125.00000000000006 M 120.00000000000003,90.00000000000003 M 120.00000000000003,87.00000000000006 M 130.00000000000003,87.00000000000006 M 130.00000000000003,90.00000000000003 M 50.00000000000004,90.00000000000006 M 40.000000000000036,90.0 M 40.000000000000036,87.00000000000009 M 50.00000000000004,87.00000000000003 M 15.499999999999993,60.00000000000001 M 12.500000000000021,60.00000000000005 M 12.500000000000043,40.00000000000001 M 12.500000000000021,20.00000000000005 M 15.500000000000014,20.00000000000005 M 12.500000000000043,119.99999999999943 M 15.500000000000014,120.00000000000128 M 15.500000000000014,160.00000000000009 M 12.500000000000021,160.00000000000006 M 12.500000000000043,140.00000000000009 M 127.50000000000003,135.00000000000006 M 127.50000000000003,155.00000000000003 M 124.50000000000001,155.00000000000003 M 124.50000000000001,135.00000000000006 M 167.50000000000003,75.00000000000006 M 167.50000000000003,110.00000000000003 M 164.50000000000003,110.00000000000003 M 164.50000000000003,75.00000000000003 "
  />
  <path id="face0-interior"
 style="fill:none;stroke:#00FF00;stroke-width:1;stroke-miterlimit:4;stroke-dasharray:none;stroke-linejoin:round;stroke-linecap:round"
        d="M 169.6592582628907,122.58819045102527 M 170.00000000000003,120.00000000000006 M 170.00000000000003,60.00000000000002 M 169.65925826289072,57.41180954897482 M 168.6602540378444,55.000000000000036 M 167.0710678118655,52.92893218813453 M 165.00000000000003,51.339745962155654 M 162.58819045102524,50.34074173710932 M 160.00000000000003,49.99999999999999 M 130.00000000000006,50.000000000000036 M 130.00000000000003,30.00000000000005 M 127.56470057620663,27.00161715144298 M 124.90520024908369,24.200181626558937 M 122.03737196228839,21.612413494073678 M 118.97833204265503,19.25375757170204 M 115.74633804322627,17.13829124540274 M 112.36067977499793,15.278640450004254 M 108.84156417774211,13.68590431266066 M 105.20999471704546,12.369588908897171 M 101.48764602736813,11.337550526613477 M 97.69673454930269,10.595948776668472 M 93.8598859331217,10.149209829900514 M 90.00000000000004,10.0 M 20.000000000000007,10.00000000000005 M 17.4118095489748,10.340741737109376 M 15.000000000000014,11.339745962155646 M 12.92893218813456,12.928932188134539 M 11.339745962155646,15.000000000000014 M 10.340741737109354,17.4118095489748 M 10.0,20.00000000000005 M 10.000000000000021,159.99999999999997 M 10.340741737109354,162.58819045102518 M 11.339745962155646,165.00000000000006 M 12.92893218813456,167.07106781186548 M 15.000000000000036,168.6602540378443 M 17.411809548974823,169.65925826289072 M 20.000000000000007,170.00000000000006 M 60.00000000000004,170.0 M 60.00000000000004,172.0 M 60.03407417371096,172.2588190451026 M 60.13397459621559,172.5000000000001 M 60.2928932188135,172.70710678118664 M 60.50000000000004,172.86602540378456 M 60.74118095489753,172.96592582628912 M 61.00000000000002,173.00000000000006 M 99.00000000000003,173.00000000000006 M 99.25881904510253,172.9659258262891 M 99.50000000000003,172.86602540378448 M 99.70710678118655,172.70710678118655 M 99.86602540378445,172.50000000000003 M 99.9659258262891,172.2588190451026 M 100.00000000000003,172.00000000000006 M 100.0,170.00000000000006 M 120.00000000000003,170.00000000000006 M 122.58819045102524,169.65925826289072 M 125.00000000000003,168.6602540378444 M 127.0710678118655,167.07106781186548 M 128.6602540378444,165.00000000000003 M 129.65925826289072,162.58819045102527 M 130.00000000000003,160.00000000000003 M 130.00000000000003,130.00000000000003 M 160.00000000000003,130.00000000000003 M 162.5881904510252,129.65925826289072 M 165.0,128.66025403784442 M 167.0710678118655,127.0710678118655 M 168.6602540378444,125.00000000000006 M 120.00000000000003,90.00000000000003 M 120.00000000000003,87.00000000000006 M 130.00000000000003,87.00000000000006 M 130.00000000000003,90.00000000000003 M 50.00000000000004,90.00000000000006 M 40.000000000000036,90.0 M 40.000000000000036,87.00000000000009 M 50.00000000000004,87.00000000000003 M 15.499999999999993,60.00000000000001 M 12.500000000000021,60.00000000000005 M 12.500000000000043,40.00000000000001 M 12.500000000000021,20.00000000000005 M 15.500000000000014,20.00000000000005 M 12.500000000000043,119.99999999999943 M 15.500000000000014,120.00000000000128 M 15.500000000000014,160.00000000000009 M 12.500000000000021,160.00000000000006 M 12.500000000000043,140.00000000000009 M 127.50000000000003,135.00000000000006 M 127.50000000000003,155.00000000000003 M 124.50000000000001,155.00000000000003 M 124.50000000000001,135.00000000000006 M 167.50000000000003,75.00000000000006 M 167.50000000000003,110.00000000000003 M 164.50000000000003,110.00000000000003 M 164.50000000000003,75.00000000000003 "
  />
</svg>
