<?xml version="1.0" encoding="UTF-8" standalone="no"?>
<!-- Created with Inkscape (http://www.inkscape.org/) -->

<svg
   xmlns:dc="http://purl.org/dc/elements/1.1/"
   xmlns:cc="http://creativecommons.org/ns#"
   xmlns:rdf="http://www.w3.org/1999/02/22-rdf-syntax-ns#"
   xmlns:svg="http://www.w3.org/2000/svg"
   xmlns="http://www.w3.org/2000/svg"
   xmlns:sodipodi="http://sodipodi.sourceforge.net/DTD/sodipodi-0.dtd"
   xmlns:inkscape="http://www.inkscape.org/namespaces/inkscape"
   width="678.09003"
   height="761.35999"
   id="svg3302"
   version="1.1"
   inkscape:version="0.48.5 r10040"
   sodipodi:docname="New document 2">
  <defs
     id="defs3304" />
  <sodipodi:namedview
     id="base"
     pagecolor="#ffffff"
     bordercolor="#666666"
     borderopacity="1.0"
     inkscape:pageopacity="0.0"
     inkscape:pageshadow="2"
     inkscape:zoom="0.35"
     inkscape:cx="375"
     inkscape:cy="520"
     inkscape:document-units="px"
     inkscape:current-layer="layer1"
     showgrid="false"
     inkscape:window-width="1366"
     inkscape:window-height="614"
     inkscape:window-x="-4"
     inkscape:window-y="-4"
     inkscape:window-maximized="1" />
  <metadata
     id="metadata3307">
    <rdf:RDF>
      <cc:Work
         rdf:about="">
        <dc:format>image/svg+xml</dc:format>
        <dc:type
           rdf:resource="http://purl.org/dc/dcmitype/StillImage" />
        <dc:title></dc:title>
      </cc:Work>
    </rdf:RDF>
  </metadata>
  <g
     inkscape:label="Layer 1"
     inkscape:groupmode="layer"
     id="layer1"
     transform="translate(0,-290.99878)">
    <path
       inkscape:connector-curvature="0"
       id="face25-cut"
       style="fill:none;stroke:#0000ff;stroke-width:3.5433073;stroke-linecap:round;stroke-linejoin:round;stroke-miterlimit:4;stroke-dasharray:none"
       d="m 478.87515,814.09446 106.29921,0 9.17076,-1.20734 8.54578,-3.53977 7.33844,-5.63098 5.63095,-7.33844 3.5398,-8.54579 1.20735,-9.17075 0,-212.59843 -1.20735,-9.17075 -3.5398,-8.54579 -5.63095,-7.33843 -7.33844,-5.63096 -8.54578,-3.5398 -9.17076,-1.20734 -106.29921,0 0,-106.29921 -1.20735,-9.17076 -3.5398,-8.54578 -5.63095,-7.33844 -7.33844,-5.63095 -8.54578,-3.5398 -9.17075,-1.20735 -354.330734,0 -9.17075,1.20735 -8.54578,3.5398 -7.338429,5.63095 -5.63098,7.33844 -3.53977,8.54578 -1.20736,9.17076 0,496.063 1.20736,9.17075 3.53977,8.54579 5.63098,7.33843 7.338429,5.63099 8.54578,3.53977 9.17075,1.20734 248.031514,0 13.67676,-0.52869 13.59514,-1.58294 13.43237,-2.62772 13.1894,-3.65683 12.86776,-4.66409 12.46933,-5.64357 11.99643,-6.58931 11.45193,-7.49576 10.83912,-8.35742 10.16161,-9.16927 9.42342,-9.92636 8.62902,-10.62418 0,-70.86615 m 124.01575,-212.59843 0,141.73229 -23.0315,0 0,-141.73229 23.0315,0 m -508.464594,-35.43307 -23.03149,0 0,-141.73228 23.03149,0 0,141.73228 m -23.03149,212.59843 23.03149,0 0,141.73229 -23.03149,0 0,-141.73229 m 389.763794,-336.61418 0,70.86615 -23.0315,0 0,-70.86615 23.0315,0 m -17.71653,253.34646 0,-23.03149 35.43307,0 0,23.03149 -35.43307,0 m -283.46458,-23.03149 35.43307,0 0,23.03149 -35.43307,0 0,-23.03149" />
  </g>
</svg>
