<?xml version="1.0" standalone="no"?>
<!DOCTYPE svg PUBLIC "-//W3C//DTD SVG 1.1//EN" "http://www.w3.org/Graphics/SVG/1.1/DTD/svg11.dtd">
<svg width="96.7679491924311mm" height="69.2087474773337mm"
 viewBox="0 0 96.7679491924311 69.2087474773337"
 xmlns="http://www.w3.org/2000/svg" version="1.1"
 xmlns:xlink="http://www.w3.org/1999/xlink">
<desc>Output from Flights of Ideas SVG Sketchup Plugin</desc>

  <g id="face0" fill="none" stroke="rgb(0,0,255)" stroke-width="0.5" stroke-miterlimit="4" stroke-dasharray="none" stroke-linejoin="round" stroke-linecap="round">
    <line x1="12.0" y1="45.094010767585" x2="14.0" y2="45.094010767585"/>
    <line x1="14.0" y1="45.094010767585" x2="14.0" y2="47.094010767585"/>
    <line x1="14.0" y1="47.094010767585" x2="14.0340741737109" y2="47.3528298126875"/>
    <line x1="14.0340741737109" y1="47.3528298126875" x2="14.1339745962156" y2="47.594010767585"/>
    <line x1="14.1339745962156" y1="47.594010767585" x2="14.2928932188135" y2="47.8011175487716"/>
    <line x1="14.2928932188135" y1="47.8011175487716" x2="14.5" y2="47.9600361713695"/>
    <line x1="14.5" y1="47.9600361713695" x2="14.7411809548975" y2="48.0599365938741"/>
    <line x1="14.7411809548975" y1="48.0599365938741" x2="15.0" y2="48.094010767585"/>
    <line x1="15.0" y1="48.094010767585" x2="20.0" y2="48.094010767585"/>
    <line x1="20.0" y1="48.094010767585" x2="20.0" y2="49.2087474773337"/>
    <line x1="20.0" y1="49.2087474773337" x2="20.3407417371093" y2="51.796937928359"/>
    <line x1="20.3407417371093" y1="51.796937928359" x2="21.3397459621556" y2="54.2087474773337"/>
    <line x1="21.3397459621556" y1="54.2087474773337" x2="22.9289321881345" y2="56.2798152891992"/>
    <line x1="22.9289321881345" y1="56.2798152891992" x2="25.0" y2="57.8690015151781"/>
    <line x1="25.0" y1="57.8690015151781" x2="27.4118095489748" y2="58.8680057402244"/>
    <line x1="27.4118095489748" y1="58.8680057402244" x2="30.0" y2="59.2087474773337"/>
    <line x1="30.0" y1="59.2087474773337" x2="76.0" y2="59.2087474773337"/>
    <line x1="76.0" y1="59.2087474773337" x2="78.0" y2="59.2087474773337"/>
    <line x1="78.0" y1="59.2087474773337" x2="79.0" y2="57.4766966697649"/>
    <line x1="79.0" y1="57.4766966697649" x2="86.5" y2="44.4863156129986"/>
    <line x1="86.5" y1="44.4863156129986" x2="86.6998008450092" y2="44.0039537032034"/>
    <line x1="86.6998008450092" y1="44.0039537032034" x2="86.7679491924311" y2="43.4863156129988"/>
    <line x1="86.7679491924311" y1="43.4863156129988" x2="86.6998008450092" y2="42.9686775227933"/>
    <line x1="86.6998008450092" y1="42.9686775227933" x2="86.5" y2="42.4863156129984"/>
    <line x1="86.5" y1="42.4863156129984" x2="86.1821627548042" y2="42.0721020506253"/>
    <line x1="86.1821627548042" y1="42.0721020506253" x2="85.7679491924311" y2="41.7542648054296"/>
    <line x1="85.7679491924311" y1="41.7542648054296" x2="78.8397459621556" y2="37.7542648054295"/>
    <line x1="78.8397459621556" y1="37.7542648054295" x2="77.8397459621556" y2="39.4863156129983"/>
    <line x1="77.8397459621556" y1="39.4863156129983" x2="80.6935750346352" y2="44.5980762113546"/>
    <line x1="80.6935750346352" y1="44.5980762113546" x2="74.6935750346352" y2="54.9903810567666"/>
    <line x1="74.6935750346352" y1="54.9903810567666" x2="74.3757377894394" y2="55.4045946191396"/>
    <line x1="74.3757377894394" y1="55.4045946191396" x2="73.9615242270663" y2="55.7224318643355"/>
    <line x1="73.9615242270663" y1="55.7224318643355" x2="73.4791623172714" y2="55.9222327093447"/>
    <line x1="73.4791623172714" y1="55.9222327093447" x2="72.9615242270663" y2="55.9903810567665"/>
    <line x1="72.9615242270663" y1="55.9903810567665" x2="72.4438861368613" y2="55.9222327093447"/>
    <line x1="72.4438861368613" y1="55.9222327093447" x2="71.9615242270663" y2="55.7224318643354"/>
    <line x1="71.9615242270663" y1="55.7224318643354" x2="26.0621778264911" y2="29.2224318643354"/>
    <line x1="26.0621778264911" y1="29.2224318643354" x2="25.647964264118" y2="28.9045946191397"/>
    <line x1="25.647964264118" y1="28.9045946191397" x2="25.3301270189222" y2="28.4903810567666"/>
    <line x1="25.3301270189222" y1="28.4903810567666" x2="25.1303261739129" y2="28.0080191469716"/>
    <line x1="25.1303261739129" y1="28.0080191469716" x2="25.0621778264911" y2="27.4903810567666"/>
    <line x1="25.0621778264911" y1="27.4903810567666" x2="25.1303261739129" y2="26.9727429665615"/>
    <line x1="25.1303261739129" y1="26.9727429665615" x2="25.3301270189222" y2="26.4903810567666"/>
    <line x1="25.3301270189222" y1="26.4903810567666" x2="31.3301270189222" y2="16.0980762113533"/>
    <line x1="31.3301270189222" y1="16.0980762113533" x2="37.1602540378444" y2="16.0"/>
    <line x1="37.1602540378444" y1="16.0" x2="38.1602540378444" y2="14.2679491924311"/>
    <line x1="38.1602540378444" y1="14.2679491924311" x2="31.2320508075689" y2="10.2679491924311"/>
    <line x1="31.2320508075689" y1="10.2679491924311" x2="30.7496888977739" y2="10.0681483474218"/>
    <line x1="30.7496888977739" y1="10.0681483474218" x2="30.2320508075689" y2="10.0"/>
    <line x1="30.2320508075689" y1="10.0" x2="29.7144127173638" y2="10.0681483474219"/>
    <line x1="29.7144127173638" y1="10.0681483474219" x2="29.2320508075689" y2="10.2679491924311"/>
    <line x1="29.2320508075689" y1="10.2679491924311" x2="28.8178372451958" y2="10.5857864376269"/>
    <line x1="28.8178372451958" y1="10.5857864376269" x2="28.5" y2="11.0"/>
    <line x1="28.5" y1="11.0" x2="20.0" y2="25.7224318643355"/>
    <line x1="20.0" y1="25.7224318643355" x2="20.0" y2="28.094010767585"/>
    <line x1="20.0" y1="28.094010767585" x2="15.0" y2="28.094010767585"/>
    <line x1="15.0" y1="28.094010767585" x2="14.7411809548975" y2="28.1280849412959"/>
    <line x1="14.7411809548975" y1="28.1280849412959" x2="14.5" y2="28.2279853638006"/>
    <line x1="14.5" y1="28.2279853638006" x2="14.2928932188135" y2="28.3869039863985"/>
    <line x1="14.2928932188135" y1="28.3869039863985" x2="14.1339745962156" y2="28.594010767585"/>
    <line x1="14.1339745962156" y1="28.594010767585" x2="14.0340741737109" y2="28.8351917224825"/>
    <line x1="14.0340741737109" y1="28.8351917224825" x2="14.0" y2="29.094010767585"/>
    <line x1="14.0" y1="29.094010767585" x2="14.0" y2="31.094010767585"/>
    <line x1="14.0" y1="31.094010767585" x2="12.0" y2="31.094010767585"/>
    <line x1="12.0" y1="31.094010767585" x2="11.482361909795" y2="31.1621591150069"/>
    <line x1="11.482361909795" y1="31.1621591150069" x2="11.0" y2="31.3619599600161"/>
    <line x1="11.0" y1="31.3619599600161" x2="10.5857864376269" y2="31.6797972052119"/>
    <line x1="10.5857864376269" y1="31.6797972052119" x2="10.2679491924311" y2="32.094010767585"/>
    <line x1="10.2679491924311" y1="32.094010767585" x2="10.0681483474219" y2="32.57637267738"/>
    <line x1="10.0681483474219" y1="32.57637267738" x2="10.0" y2="33.094010767585"/>
    <line x1="10.0" y1="33.094010767585" x2="10.0" y2="43.094010767585"/>
    <line x1="10.0" y1="43.094010767585" x2="10.0681483474219" y2="43.6116488577901"/>
    <line x1="10.0681483474219" y1="43.6116488577901" x2="10.2679491924311" y2="44.094010767585"/>
    <line x1="10.2679491924311" y1="44.094010767585" x2="10.5857864376269" y2="44.5082243299581"/>
    <line x1="10.5857864376269" y1="44.5082243299581" x2="11.0" y2="44.8260615751539"/>
    <line x1="11.0" y1="44.8260615751539" x2="11.482361909795" y2="45.0258624201632"/>
    <line x1="11.482361909795" y1="45.0258624201632" x2="12.0" y2="45.094010767585"/>
  </g>
</svg>
