<?xml version="1.0" encoding="UTF-8" standalone="no"?>
<!-- Created with Inkscape (http://www.inkscape.org/) -->

<svg
   xmlns:dc="http://purl.org/dc/elements/1.1/"
   xmlns:cc="http://creativecommons.org/ns#"
   xmlns:rdf="http://www.w3.org/1999/02/22-rdf-syntax-ns#"
   xmlns:svg="http://www.w3.org/2000/svg"
   xmlns="http://www.w3.org/2000/svg"
   xmlns:sodipodi="http://sodipodi.sourceforge.net/DTD/sodipodi-0.dtd"
   xmlns:inkscape="http://www.inkscape.org/namespaces/inkscape"
   width="270.09"
   height="212.36"
   id="svg3278"
   version="1.1"
   inkscape:version="0.48.5 r10040"
   sodipodi:docname="New document 2">
  <defs
     id="defs3280" />
  <sodipodi:namedview
     id="base"
     pagecolor="#ffffff"
     bordercolor="#666666"
     borderopacity="1.0"
     inkscape:pageopacity="0.0"
     inkscape:pageshadow="2"
     inkscape:zoom="0.35"
     inkscape:cx="375"
     inkscape:cy="291.42857"
     inkscape:document-units="px"
     inkscape:current-layer="layer1"
     showgrid="false"
     inkscape:window-width="1366"
     inkscape:window-height="614"
     inkscape:window-x="-4"
     inkscape:window-y="-4"
     inkscape:window-maximized="1" />
  <metadata
     id="metadata3283">
    <rdf:RDF>
      <cc:Work
         rdf:about="">
        <dc:format>image/svg+xml</dc:format>
        <dc:type
           rdf:resource="http://purl.org/dc/dcmitype/StillImage" />
        <dc:title></dc:title>
      </cc:Work>
    </rdf:RDF>
  </metadata>
  <g
     inkscape:label="Layer 1"
     inkscape:groupmode="layer"
     id="layer1"
     transform="translate(0,-839.99372)">
    <path
       inkscape:connector-curvature="0"
       id="face15-cut"
       style="fill:none;stroke:#0000ff;stroke-width:3.54330707;stroke-linecap:round;stroke-linejoin:round;stroke-miterlimit:4;stroke-dasharray:none"
       d="m 245.38172,874.10551 10.03589,-5.79423 0.78426,-0.6018 0.60178,-0.78424 0.37831,-0.91332 0.12901,-0.98008 -0.12901,-0.98008 -0.37831,-0.91329 -0.60178,-0.78427 -0.78426,-0.6018 -158.718462,0 -9.170752,1.20735 -8.545783,3.5398 -7.33843,5.63095 -5.630974,7.33844 -3.539778,8.54578 -1.207354,9.17075 0,3.94987 -17.716535,0 -0.917075,0.12083 -0.854579,0.35397 -0.733843,0.56311 -0.563096,0.73385 -0.353976,0.85458 -0.120721,0.91707 0,3.54331 0,3.54331 -15.944882,0 -1.83415,0.24165 -1.709157,0.70795 -1.467687,1.12621 -1.126194,1.46767 -0.707956,1.70915 -0.241477,1.83416 0,35.43307 0.241477,1.83416 0.707956,1.70915 1.126194,1.46767 1.467687,1.12621 1.709157,0.70795 1.83415,0.24165 15.944882,0 0,7.08662 0.120721,0.91708 0.353976,0.85457 0.563096,0.73386 0.733843,0.56306 0.854579,0.35398 0.917075,0.12083 17.716535,0 0,8.40323 30.118111,52.16605 1.126194,1.4677 1.467687,1.1262 1.709157,0.708 1.83415,0.2416 1.834151,-0.2416 1.709153,-0.708 24.54876,-14.1732 -3.54331,-6.1372 -20.65793,-0.3476 -21.259846,-36.8231 -0.707956,-1.70915 -0.241477,-1.83416 0.241477,-1.83415 0.707956,-1.70915 1.126194,-1.46771 1.467688,-1.12617 162.635484,-93.89764" />
  </g>
</svg>
