<?xml version="1.0" standalone="no"?>
<!DOCTYPE svg PUBLIC "-//W3C//DTD SVG 1.1//EN" "http://www.w3.org/Graphics/SVG/1.1/DTD/svg11.dtd">
<svg width="87.82822803641551mm" height="69.20874747733374mm"
 viewBox="0 0 87.82822803641551 69.20874747733374"
 xmlns="http://www.w3.org/2000/svg" version="1.1"
 xmlns:xlink="http://www.w3.org/1999/xlink">
<desc>Output from Flights of Ideas SVG Sketchup Plugin</desc>

  <path id="face0-cut"
 style="fill:none;stroke:#0000FF;stroke-width:1;stroke-miterlimit:4;stroke-dasharray:none;stroke-linejoin:round;stroke-linecap:round"
        d="M 22.5,28.094010767585026 L 17.499999999999996,28.094010767585026 L 17.24118095489748,28.128084941296045 L 17.0,28.227985363800556 L 16.792893218813454,28.38690398639848 L 16.633974596215563,28.59401076758502 L 16.53407417371093,28.835191722482495 L 16.5,29.094010767585022 L 16.5,31.094010767585022 L 12.0,31.094010767585022 L 11.482361909794957,31.162159115006883 L 11.0,31.361959960016147 L 10.585786437626904,31.67979720521193 L 10.267949192431125,32.09401076758503 L 10.068148347421864,32.57637267737998 L 10.0,33.09401076758502 L 10.0,43.094010767585026 L 10.068148347421864,43.61164885779007 L 10.267949192431125,44.094010767585026 L 10.585786437626908,44.508224329958125 L 11.0,44.8260615751539 L 11.482361909794957,45.02586242016315 L 12.0,45.09401076758502 L 16.500000000000004,45.09401076758502 L 16.499999999999996,46.094010767585026 L 16.5,47.09401076758503 L 16.53407417371093,47.352829812687546 L 16.63397459621556,47.59401076758502 L 16.792893218813454,47.80111754877157 L 17.0,47.96003617136947 L 17.24118095489748,48.059936593874085 L 17.499999999999996,48.09401076758502 L 22.500000000000007,48.09401076758502 L 22.500000000000007,49.208747477333745 L 22.840741737109322,51.79693792835895 L 23.839745962155618,54.208747477333745 L 25.42893218813453,56.27981528919922 L 27.5,57.86900151517813 L 29.911809548974794,58.868005740224426 L 32.50000000000001,59.208747477333745 L 77.29387364369862,59.208747477333745 L 77.51521048027561,59.038909749194325 L 77.685048208415,58.81757291261737 L 77.79181266761424,58.559820707239126 L 77.82822803641551,58.28321851990047 L 77.79181266761427,58.006616332561826 L 77.685048208415,57.74886412718358 L 77.51521048027561,57.52752729060659 L 77.29387364369862,57.3576895624672 L 74.46152422706629,55.72243186433545 L 28.562177826491066,29.222431864335444 L 28.147964264117967,28.904594619139672 L 27.83012701892219,28.49038105676658 L 27.630326173912927,28.00801914697159 L 27.562177826491066,27.490381056766566 L 27.630326173912927,26.972742966561526 L 27.83012701892219,26.49038105676657 L 33.83012701892219,16.098076211353312 L 39.660254037844396,15.999999999999991 L 40.66025403784439,14.26794919243111 L 33.732050807568875,10.267949192431118 L 33.249688897773915,10.068148347421864 L 32.732050807568875,10.0 L 32.214412717363835,10.068148347421864 L 31.732050807568875,10.267949192431118 L 31.317837245195783,10.585786437626904 L 30.999999999999993,10.999999999999996 L 22.5,25.722431864335455 L 22.5,28.094010767585026 "
  />
  <path id="face0-interior"
 style="fill:none;stroke:#FF0000;stroke-width:1;stroke-miterlimit:4;stroke-dasharray:none;stroke-linejoin:round;stroke-linecap:round"
        d="M 22.5,28.094010767585026 M 17.499999999999996,28.094010767585026 M 17.24118095489748,28.128084941296045 M 17.0,28.227985363800556 M 16.792893218813454,28.38690398639848 M 16.633974596215563,28.59401076758502 M 16.53407417371093,28.835191722482495 M 16.5,29.094010767585022 M 16.5,31.094010767585022 M 12.0,31.094010767585022 M 11.482361909794957,31.162159115006883 M 11.0,31.361959960016147 M 10.585786437626904,31.67979720521193 M 10.267949192431125,32.09401076758503 M 10.068148347421864,32.57637267737998 M 10.0,33.09401076758502 M 10.0,43.094010767585026 M 10.068148347421864,43.61164885779007 M 10.267949192431125,44.094010767585026 M 10.585786437626908,44.508224329958125 M 11.0,44.8260615751539 M 11.482361909794957,45.02586242016315 M 12.0,45.09401076758502 M 16.500000000000004,45.09401076758502 M 16.499999999999996,46.094010767585026 M 16.5,47.09401076758503 M 16.53407417371093,47.352829812687546 M 16.63397459621556,47.59401076758502 M 16.792893218813454,47.80111754877157 M 17.0,47.96003617136947 M 17.24118095489748,48.059936593874085 M 17.499999999999996,48.09401076758502 M 22.500000000000007,48.09401076758502 M 22.500000000000007,49.208747477333745 M 22.840741737109322,51.79693792835895 M 23.839745962155618,54.208747477333745 M 25.42893218813453,56.27981528919922 M 27.5,57.86900151517813 M 29.911809548974794,58.868005740224426 M 32.50000000000001,59.208747477333745 M 77.29387364369862,59.208747477333745 M 77.51521048027561,59.038909749194325 M 77.685048208415,58.81757291261737 M 77.79181266761424,58.559820707239126 M 77.82822803641551,58.28321851990047 M 77.79181266761427,58.006616332561826 M 77.685048208415,57.74886412718358 M 77.51521048027561,57.52752729060659 M 77.29387364369862,57.3576895624672 M 74.46152422706629,55.72243186433545 M 28.562177826491066,29.222431864335444 M 28.147964264117967,28.904594619139672 M 27.83012701892219,28.49038105676658 M 27.630326173912927,28.00801914697159 M 27.562177826491066,27.490381056766566 M 27.630326173912927,26.972742966561526 M 27.83012701892219,26.49038105676657 M 33.83012701892219,16.098076211353312 M 39.660254037844396,15.999999999999991 M 40.66025403784439,14.26794919243111 M 33.732050807568875,10.267949192431118 M 33.249688897773915,10.068148347421864 M 32.732050807568875,10.0 M 32.214412717363835,10.068148347421864 M 31.732050807568875,10.267949192431118 M 31.317837245195783,10.585786437626904 M 30.999999999999993,10.999999999999996 M 22.5,25.722431864335455 "
  />
  <path id="face0-interior"
 style="fill:none;stroke:#00FF00;stroke-width:1;stroke-miterlimit:4;stroke-dasharray:none;stroke-linejoin:round;stroke-linecap:round"
        d="M 22.5,28.094010767585026 M 17.499999999999996,28.094010767585026 M 17.24118095489748,28.128084941296045 M 17.0,28.227985363800556 M 16.792893218813454,28.38690398639848 M 16.633974596215563,28.59401076758502 M 16.53407417371093,28.835191722482495 M 16.5,29.094010767585022 M 16.5,31.094010767585022 M 12.0,31.094010767585022 M 11.482361909794957,31.162159115006883 M 11.0,31.361959960016147 M 10.585786437626904,31.67979720521193 M 10.267949192431125,32.09401076758503 M 10.068148347421864,32.57637267737998 M 10.0,33.09401076758502 M 10.0,43.094010767585026 M 10.068148347421864,43.61164885779007 M 10.267949192431125,44.094010767585026 M 10.585786437626908,44.508224329958125 M 11.0,44.8260615751539 M 11.482361909794957,45.02586242016315 M 12.0,45.09401076758502 M 16.500000000000004,45.09401076758502 M 16.499999999999996,46.094010767585026 M 16.5,47.09401076758503 M 16.53407417371093,47.352829812687546 M 16.63397459621556,47.59401076758502 M 16.792893218813454,47.80111754877157 M 17.0,47.96003617136947 M 17.24118095489748,48.059936593874085 M 17.499999999999996,48.09401076758502 M 22.500000000000007,48.09401076758502 M 22.500000000000007,49.208747477333745 M 22.840741737109322,51.79693792835895 M 23.839745962155618,54.208747477333745 M 25.42893218813453,56.27981528919922 M 27.5,57.86900151517813 M 29.911809548974794,58.868005740224426 M 32.50000000000001,59.208747477333745 M 77.29387364369862,59.208747477333745 M 77.51521048027561,59.038909749194325 M 77.685048208415,58.81757291261737 M 77.79181266761424,58.559820707239126 M 77.82822803641551,58.28321851990047 M 77.79181266761427,58.006616332561826 M 77.685048208415,57.74886412718358 M 77.51521048027561,57.52752729060659 M 77.29387364369862,57.3576895624672 M 74.46152422706629,55.72243186433545 M 28.562177826491066,29.222431864335444 M 28.147964264117967,28.904594619139672 M 27.83012701892219,28.49038105676658 M 27.630326173912927,28.00801914697159 M 27.562177826491066,27.490381056766566 M 27.630326173912927,26.972742966561526 M 27.83012701892219,26.49038105676657 M 33.83012701892219,16.098076211353312 M 39.660254037844396,15.999999999999991 M 40.66025403784439,14.26794919243111 M 33.732050807568875,10.267949192431118 M 33.249688897773915,10.068148347421864 M 32.732050807568875,10.0 M 32.214412717363835,10.068148347421864 M 31.732050807568875,10.267949192431118 M 31.317837245195783,10.585786437626904 M 30.999999999999993,10.999999999999996 M 22.5,25.722431864335455 "
  />
</svg>
