<?xml version="1.0" standalone="no"?>
<!DOCTYPE svg PUBLIC "-//W3C//DTD SVG 1.1//EN" "http://www.w3.org/Graphics/SVG/1.1/DTD/svg11.dtd">
<svg width="108.9mm" height="191.4mm"
 viewBox="0 0 108.9 191.4"
 xmlns="http://www.w3.org/2000/svg" version="1.1"
 xmlns:xlink="http://www.w3.org/1999/xlink">
<desc>Output from Flights of Ideas SVG Sketchup Plugin</desc>

  <g id="face0" fill="none" stroke="rgb(0,0,255)" stroke-width="0.5" stroke-miterlimit="4" stroke-dasharray="none" stroke-linejoin="round" stroke-linecap="round">
    <line x1="25.7" y1="175.7" x2="33.2" y2="175.7"/>
    <line x1="33.2" y1="175.7" x2="33.2" y2="179.4"/>
    <line x1="33.2" y1="179.4" x2="33.2681483474219" y2="179.917638090205"/>
    <line x1="33.2681483474219" y1="179.917638090205" x2="33.4679491924311" y2="180.4"/>
    <line x1="33.4679491924311" y1="180.4" x2="33.7857864376269" y2="180.814213562373"/>
    <line x1="33.7857864376269" y1="180.814213562373" x2="34.2" y2="181.132050807569"/>
    <line x1="34.2" y1="181.132050807569" x2="34.682361909795" y2="181.331851652578"/>
    <line x1="34.682361909795" y1="181.331851652578" x2="35.2" y2="181.4"/>
    <line x1="35.2" y1="181.4" x2="63.2" y2="181.4"/>
    <line x1="63.2" y1="181.4" x2="71.2" y2="181.4"/>
    <line x1="71.2" y1="181.4" x2="71.7176380902051" y2="181.331851652578"/>
    <line x1="71.7176380902051" y1="181.331851652578" x2="72.2" y2="181.132050807569"/>
    <line x1="72.2" y1="181.132050807569" x2="72.6142135623731" y2="180.814213562373"/>
    <line x1="72.6142135623731" y1="180.814213562373" x2="72.9320508075689" y2="180.4"/>
    <line x1="72.9320508075689" y1="180.4" x2="73.1318516525781" y2="179.917638090205"/>
    <line x1="73.1318516525781" y1="179.917638090205" x2="73.2" y2="179.4"/>
    <line x1="73.2" y1="179.4" x2="73.2" y2="175.7"/>
    <line x1="73.2" y1="175.7" x2="83.2" y2="175.7"/>
    <line x1="83.2" y1="175.7" x2="85.7881904510252" y2="175.359258262891"/>
    <line x1="85.7881904510252" y1="175.359258262891" x2="88.2" y2="174.360254037845"/>
    <line x1="88.2" y1="174.360254037845" x2="90.2710678118655" y2="172.771067811865"/>
    <line x1="90.2710678118655" y1="172.771067811865" x2="91.8602540378444" y2="170.7"/>
    <line x1="91.8602540378444" y1="170.7" x2="92.8592582628907" y2="168.288190451025"/>
    <line x1="92.8592582628907" y1="168.288190451025" x2="93.2" y2="165.7"/>
    <line x1="93.2" y1="165.7" x2="93.2" y2="115.7"/>
    <line x1="93.2" y1="115.7" x2="96.9" y2="115.7"/>
    <line x1="96.9" y1="115.7" x2="97.417638090205" y2="115.631851652578"/>
    <line x1="97.417638090205" y1="115.631851652578" x2="97.9" y2="115.432050807569"/>
    <line x1="97.9" y1="115.432050807569" x2="98.3142135623731" y2="115.114213562373"/>
    <line x1="98.3142135623731" y1="115.114213562373" x2="98.6320508075688" y2="114.7"/>
    <line x1="98.6320508075688" y1="114.7" x2="98.8318516525781" y2="114.217638090205"/>
    <line x1="98.8318516525781" y1="114.217638090205" x2="98.9" y2="113.7"/>
    <line x1="98.9" y1="113.7" x2="98.9" y2="77.6999999999999"/>
    <line x1="98.9" y1="77.6999999999999" x2="98.8318516525781" y2="77.1823619097949"/>
    <line x1="98.8318516525781" y1="77.1823619097949" x2="98.6320508075688" y2="76.6999999999999"/>
    <line x1="98.6320508075688" y1="76.6999999999999" x2="98.3142135623731" y2="76.2857864376268"/>
    <line x1="98.3142135623731" y1="76.2857864376268" x2="97.9" y2="75.967949192431"/>
    <line x1="97.9" y1="75.967949192431" x2="97.417638090205" y2="75.7681483474218"/>
    <line x1="97.417638090205" y1="75.7681483474218" x2="96.9" y2="75.6999999999999"/>
    <line x1="96.9" y1="75.6999999999999" x2="93.2" y2="75.6999999999999"/>
    <line x1="93.2" y1="75.6999999999999" x2="93.2" y2="25.7"/>
    <line x1="93.2" y1="25.7" x2="92.8592582628907" y2="23.1118095489747"/>
    <line x1="92.8592582628907" y1="23.1118095489747" x2="91.8602540378444" y2="20.6999999999999"/>
    <line x1="91.8602540378444" y1="20.6999999999999" x2="90.2710678118655" y2="18.6289321881345"/>
    <line x1="90.2710678118655" y1="18.6289321881345" x2="88.2" y2="17.0397459621555"/>
    <line x1="88.2" y1="17.0397459621555" x2="85.7881904510252" y2="16.0407417371092"/>
    <line x1="85.7881904510252" y1="16.0407417371092" x2="83.2" y2="15.6999999999999"/>
    <line x1="83.2" y1="15.6999999999999" x2="73.2" y2="15.7"/>
    <line x1="73.2" y1="15.7" x2="73.2" y2="12.0"/>
    <line x1="73.2" y1="12.0" x2="73.1318516525781" y2="11.4823619097949"/>
    <line x1="73.1318516525781" y1="11.4823619097949" x2="72.9320508075689" y2="10.9999999999999"/>
    <line x1="72.9320508075689" y1="10.9999999999999" x2="72.6142135623731" y2="10.5857864376269"/>
    <line x1="72.6142135623731" y1="10.5857864376269" x2="72.2" y2="10.2679491924311"/>
    <line x1="72.2" y1="10.2679491924311" x2="71.717638090205" y2="10.0681483474218"/>
    <line x1="71.717638090205" y1="10.0681483474218" x2="71.2" y2="10.0"/>
    <line x1="71.2" y1="10.0" x2="35.2" y2="10.0"/>
    <line x1="35.2" y1="10.0" x2="34.682361909795" y2="10.0681483474218"/>
    <line x1="34.682361909795" y1="10.0681483474218" x2="34.2" y2="10.2679491924311"/>
    <line x1="34.2" y1="10.2679491924311" x2="33.7857864376269" y2="10.5857864376269"/>
    <line x1="33.7857864376269" y1="10.5857864376269" x2="33.4679491924311" y2="10.9999999999999"/>
    <line x1="33.4679491924311" y1="10.9999999999999" x2="33.2681483474219" y2="11.4823619097949"/>
    <line x1="33.2681483474219" y1="11.4823619097949" x2="33.2" y2="12.0"/>
    <line x1="33.2" y1="12.0" x2="33.2" y2="15.7"/>
    <line x1="33.2" y1="15.7" x2="25.7" y2="15.7"/>
    <line x1="25.7" y1="15.7" x2="23.1118095489748" y2="16.0407417371093"/>
    <line x1="23.1118095489748" y1="16.0407417371093" x2="20.7" y2="17.0397459621556"/>
    <line x1="20.7" y1="17.0397459621556" x2="18.6289321881345" y2="18.6289321881345"/>
    <line x1="18.6289321881345" y1="18.6289321881345" x2="17.0397459621556" y2="20.7"/>
    <line x1="17.0397459621556" y1="20.7" x2="16.0407417371093" y2="23.1118095489747"/>
    <line x1="16.0407417371093" y1="23.1118095489747" x2="15.7" y2="25.7"/>
    <line x1="15.7" y1="25.7" x2="15.7" y2="75.6999999999999"/>
    <line x1="15.7" y1="75.6999999999999" x2="12.0" y2="75.6999999999999"/>
    <line x1="12.0" y1="75.6999999999999" x2="11.482361909795" y2="75.7681483474218"/>
    <line x1="11.482361909795" y1="75.7681483474218" x2="11.0" y2="75.9679491924311"/>
    <line x1="11.0" y1="75.9679491924311" x2="10.5857864376269" y2="76.2857864376268"/>
    <line x1="10.5857864376269" y1="76.2857864376268" x2="10.2679491924311" y2="76.6999999999999"/>
    <line x1="10.2679491924311" y1="76.6999999999999" x2="10.0681483474219" y2="77.1823619097949"/>
    <line x1="10.0681483474219" y1="77.1823619097949" x2="10.0" y2="77.6999999999999"/>
    <line x1="10.0" y1="77.6999999999999" x2="10.0" y2="113.7"/>
    <line x1="10.0" y1="113.7" x2="10.0681483474219" y2="114.217638090205"/>
    <line x1="10.0681483474219" y1="114.217638090205" x2="10.2679491924311" y2="114.7"/>
    <line x1="10.2679491924311" y1="114.7" x2="10.5857864376269" y2="115.114213562373"/>
    <line x1="10.5857864376269" y1="115.114213562373" x2="11.0" y2="115.432050807569"/>
    <line x1="11.0" y1="115.432050807569" x2="11.482361909795" y2="115.631851652578"/>
    <line x1="11.482361909795" y1="115.631851652578" x2="12.0" y2="115.7"/>
    <line x1="12.0" y1="115.7" x2="15.7" y2="115.7"/>
    <line x1="15.7" y1="115.7" x2="15.7" y2="165.7"/>
    <line x1="15.7" y1="165.7" x2="16.0407417371093" y2="168.288190451025"/>
    <line x1="16.0407417371093" y1="168.288190451025" x2="17.0397459621556" y2="170.7"/>
    <line x1="17.0397459621556" y1="170.7" x2="18.6289321881345" y2="172.771067811865"/>
    <line x1="18.6289321881345" y1="172.771067811865" x2="20.7" y2="174.360254037844"/>
    <line x1="20.7" y1="174.360254037844" x2="23.1118095489748" y2="175.359258262891"/>
    <line x1="23.1118095489748" y1="175.359258262891" x2="25.7" y2="175.7"/>
    <line x1="88.2" y1="139.8" x2="74.2" y2="139.8"/>
    <line x1="74.2" y1="139.8" x2="74.2" y2="134.6"/>
    <line x1="74.2" y1="134.6" x2="88.2" y2="134.6"/>
    <line x1="88.2" y1="134.6" x2="88.2" y2="139.8"/>
    <line x1="88.2" y1="56.7999999999999" x2="74.2" y2="56.7999999999999"/>
    <line x1="74.2" y1="56.7999999999999" x2="74.2" y2="51.5999999999999"/>
    <line x1="74.2" y1="51.5999999999999" x2="88.2" y2="51.5999999999999"/>
    <line x1="88.2" y1="51.5999999999999" x2="88.2" y2="56.7999999999999"/>
  </g>
</svg>
