<?xml version="1.0" standalone="no"?>
<!DOCTYPE svg PUBLIC "-//W3C//DTD SVG 1.1//EN" "http://www.w3.org/Graphics/SVG/1.1/DTD/svg11.dtd">
<svg width="95.99999999999999mm" height="180.00000000000006mm"
 viewBox="0 0 95.99999999999999 180.00000000000006"
 xmlns="http://www.w3.org/2000/svg" version="1.1"
 xmlns:xlink="http://www.w3.org/1999/xlink">
<desc>Output from Flights of Ideas SVG Sketchup Plugin</desc>

  <g id="face0" fill="none" stroke="#0000FF" stroke-width="1" stroke-miterlimit="4" stroke-dasharray="none" stroke-linejoin="round" stroke-linecap="round">
    <line x1="63.0" y1="13.000000000000028" x2="63.0" y2="12.0"/>
    <line x1="63.0" y1="12.0" x2="62.93185165257815" y2="11.48236190979496"/>
    <line x1="62.93185165257815" y1="11.48236190979496" x2="62.732050807568896" y2="11.000000000000014"/>
    <line x1="62.732050807568896" y1="11.000000000000014" x2="62.41421356237311" y2="10.585786437626908"/>
    <line x1="62.41421356237311" y1="10.585786437626908" x2="62.00000000000001" y2="10.267949192431132"/>
    <line x1="62.00000000000001" y1="10.267949192431132" x2="61.517638090205054" y2="10.068148347421868"/>
    <line x1="61.517638090205054" y1="10.068148347421868" x2="61.00000000000001" y2="10.000000000000014"/>
    <line x1="61.00000000000001" y1="10.000000000000014" x2="53.0" y2="10.000000000000014"/>
    <line x1="53.0" y1="10.000000000000014" x2="39.000000000000014" y2="10.0"/>
    <line x1="39.000000000000014" y1="10.0" x2="25.000000000000018" y2="10.000000000000071"/>
    <line x1="25.000000000000018" y1="10.000000000000071" x2="24.48236190979499" y2="10.06814834742184"/>
    <line x1="24.48236190979499" y1="10.06814834742184" x2="24.000000000000025" y2="10.267949192431075"/>
    <line x1="24.000000000000025" y1="10.267949192431075" x2="23.58578643762692" y2="10.585786437626822"/>
    <line x1="23.58578643762692" y1="10.585786437626822" x2="23.26794919243114" y2="11.0000000000001"/>
    <line x1="23.26794919243114" y1="11.0000000000001" x2="23.068148347421886" y2="11.482361909795031"/>
    <line x1="23.068148347421886" y1="11.482361909795031" x2="23.00000000000002" y2="12.000000000000114"/>
    <line x1="23.00000000000002" y1="12.000000000000114" x2="23.00000000000002" y2="13.000000000000028"/>
    <line x1="23.00000000000002" y1="13.000000000000028" x2="20.411809548974816" y2="13.340741737109937"/>
    <line x1="20.411809548974816" y1="13.340741737109937" x2="18.000000000000025" y2="14.33974596215559"/>
    <line x1="18.000000000000025" y1="14.33974596215559" x2="15.92893218813455" y2="15.928932188134624"/>
    <line x1="15.92893218813455" y1="15.928932188134624" x2="15.500000000000025" y2="16.48792749893977"/>
    <line x1="15.500000000000025" y1="16.48792749893977" x2="14.339745962155636" y2="18.000000000000014"/>
    <line x1="14.339745962155636" y1="18.000000000000014" x2="13.51131883740944" y2="20.0"/>
    <line x1="13.51131883740944" y1="20.0" x2="13.34074173710934" y2="20.411809548974787"/>
    <line x1="13.34074173710934" y1="20.411809548974787" x2="13.000000000000018" y2="23.000000000000014"/>
    <line x1="13.000000000000018" y1="23.000000000000014" x2="13.000000000000018" y2="70.00000000000004"/>
    <line x1="13.000000000000018" y1="70.00000000000004" x2="12.000000000000018" y2="70.00000000000004"/>
    <line x1="12.000000000000018" y1="70.00000000000004" x2="11.48236190979496" y2="70.06814834742187"/>
    <line x1="11.48236190979496" y1="70.06814834742187" x2="11.000000000000007" y2="70.26794919243116"/>
    <line x1="11.000000000000007" y1="70.26794919243116" x2="10.585786437626918" y2="70.58578643762694"/>
    <line x1="10.585786437626918" y1="70.58578643762694" x2="10.26794919243114" y2="71.00000000000003"/>
    <line x1="10.26794919243114" y1="71.00000000000003" x2="10.068148347421886" y2="71.48236190979499"/>
    <line x1="10.068148347421886" y1="71.48236190979499" x2="10.0" y2="72.00000000000004"/>
    <line x1="10.0" y1="72.00000000000004" x2="10.00000000000001" y2="108.00000000000004"/>
    <line x1="10.00000000000001" y1="108.00000000000004" x2="10.068148347421896" y2="108.51763809020507"/>
    <line x1="10.068148347421896" y1="108.51763809020507" x2="10.26794919243115" y2="109.00000000000004"/>
    <line x1="10.26794919243115" y1="109.00000000000004" x2="10.585786437626943" y2="109.41421356237315"/>
    <line x1="10.585786437626943" y1="109.41421356237315" x2="11.000000000000007" y2="109.73205080756891"/>
    <line x1="11.000000000000007" y1="109.73205080756891" x2="11.48236190979495" y2="109.93185165257815"/>
    <line x1="11.48236190979495" y1="109.93185165257815" x2="12.000000000000018" y2="110.00000000000004"/>
    <line x1="12.000000000000018" y1="110.00000000000004" x2="13.000000000000021" y2="110.0000000000001"/>
    <line x1="13.000000000000021" y1="110.0000000000001" x2="13.000000000000004" y2="157.0"/>
    <line x1="13.000000000000004" y1="157.0" x2="13.340741737109344" y2="159.58819045102524"/>
    <line x1="13.340741737109344" y1="159.58819045102524" x2="13.511318837409451" y2="160.00000000000006"/>
    <line x1="13.511318837409451" y1="160.00000000000006" x2="14.339745962155636" y2="162.00000000000006"/>
    <line x1="14.339745962155636" y1="162.00000000000006" x2="15.500000000000028" y2="163.51207250106035"/>
    <line x1="15.500000000000028" y1="163.51207250106035" x2="15.928932188134546" y2="164.07106781186553"/>
    <line x1="15.928932188134546" y1="164.07106781186553" x2="18.000000000000025" y2="165.66025403784442"/>
    <line x1="18.000000000000025" y1="165.66025403784442" x2="20.411809548974787" y2="166.65925826289072"/>
    <line x1="20.411809548974787" y1="166.65925826289072" x2="23.00000000000002" y2="167.00000000000006"/>
    <line x1="23.00000000000002" y1="167.00000000000006" x2="23.000000000000032" y2="168.00000000000006"/>
    <line x1="23.000000000000032" y1="168.00000000000006" x2="23.068148347421868" y2="168.51763809020508"/>
    <line x1="23.068148347421868" y1="168.51763809020508" x2="23.267949192431157" y2="169.00000000000006"/>
    <line x1="23.267949192431157" y1="169.00000000000006" x2="23.585786437626936" y2="169.41421356237316"/>
    <line x1="23.585786437626936" y1="169.41421356237316" x2="24.000000000000007" y2="169.7320508075689"/>
    <line x1="24.000000000000007" y1="169.7320508075689" x2="24.48236190979499" y2="169.9318516525782"/>
    <line x1="24.48236190979499" y1="169.9318516525782" x2="25.00000000000001" y2="170.00000000000006"/>
    <line x1="25.00000000000001" y1="170.00000000000006" x2="43.00000000000001" y2="170.00000000000006"/>
    <line x1="43.00000000000001" y1="170.00000000000006" x2="61.000000000000014" y2="170.00000000000006"/>
    <line x1="61.000000000000014" y1="170.00000000000006" x2="61.517638090205054" y2="169.9318516525782"/>
    <line x1="61.517638090205054" y1="169.9318516525782" x2="62.0" y2="169.7320508075689"/>
    <line x1="62.0" y1="169.7320508075689" x2="62.4142135623731" y2="169.41421356237316"/>
    <line x1="62.4142135623731" y1="169.41421356237316" x2="62.73205080756888" y2="169.00000000000006"/>
    <line x1="62.73205080756888" y1="169.00000000000006" x2="62.93185165257816" y2="168.51763809020508"/>
    <line x1="62.93185165257816" y1="168.51763809020508" x2="63.000000000000014" y2="168.00000000000006"/>
    <line x1="63.000000000000014" y1="168.00000000000006" x2="63.000000000000014" y2="167.00000000000006"/>
    <line x1="63.000000000000014" y1="167.00000000000006" x2="73.00000000000001" y2="167.0"/>
    <line x1="73.00000000000001" y1="167.0" x2="75.5881904510252" y2="166.65925826289077"/>
    <line x1="75.5881904510252" y1="166.65925826289077" x2="77.99999999999999" y2="165.66025403784442"/>
    <line x1="77.99999999999999" y1="165.66025403784442" x2="80.07106781186549" y2="164.07106781186553"/>
    <line x1="80.07106781186549" y1="164.07106781186553" x2="81.66025403784438" y2="162.00000000000006"/>
    <line x1="81.66025403784438" y1="162.00000000000006" x2="82.48868116259061" y2="160.00000000000006"/>
    <line x1="82.48868116259061" y1="160.00000000000006" x2="82.65925826289069" y2="159.58819045102524"/>
    <line x1="82.65925826289069" y1="159.58819045102524" x2="83.0" y2="157.0"/>
    <line x1="83.0" y1="157.0" x2="83.00000000000003" y2="110.00000000000004"/>
    <line x1="83.00000000000003" y1="110.00000000000004" x2="84.0" y2="110.00000000000004"/>
    <line x1="84.0" y1="110.00000000000004" x2="84.51763809020504" y2="109.9318516525782"/>
    <line x1="84.51763809020504" y1="109.9318516525782" x2="84.99999999999999" y2="109.73205080756891"/>
    <line x1="84.99999999999999" y1="109.73205080756891" x2="85.41421356237308" y2="109.41421356237315"/>
    <line x1="85.41421356237308" y1="109.41421356237315" x2="85.73205080756885" y2="109.00000000000004"/>
    <line x1="85.73205080756885" y1="109.00000000000004" x2="85.93185165257812" y2="108.51763809020507"/>
    <line x1="85.93185165257812" y1="108.51763809020507" x2="85.99999999999999" y2="108.00000000000004"/>
    <line x1="85.99999999999999" y1="108.00000000000004" x2="85.99999999999997" y2="90.00000000000004"/>
    <line x1="85.99999999999997" y1="90.00000000000004" x2="85.99999999999999" y2="72.00000000000004"/>
    <line x1="85.99999999999999" y1="72.00000000000004" x2="85.93185165257815" y2="71.48236190979502"/>
    <line x1="85.93185165257815" y1="71.48236190979502" x2="85.73205080756885" y2="71.00000000000003"/>
    <line x1="85.73205080756885" y1="71.00000000000003" x2="85.41421356237309" y2="70.58578643762695"/>
    <line x1="85.41421356237309" y1="70.58578643762695" x2="84.99999999999999" y2="70.26794919243116"/>
    <line x1="84.99999999999999" y1="70.26794919243116" x2="84.51763809020504" y2="70.06814834742191"/>
    <line x1="84.51763809020504" y1="70.06814834742191" x2="84.0" y2="70.00000000000004"/>
    <line x1="84.0" y1="70.00000000000004" x2="83.0" y2="70.00000000000004"/>
    <line x1="83.0" y1="70.00000000000004" x2="83.00000000000001" y2="23.00000000000003"/>
    <line x1="83.00000000000001" y1="23.00000000000003" x2="82.65925826289069" y2="20.411809548974816"/>
    <line x1="82.65925826289069" y1="20.411809548974816" x2="82.48868116259058" y2="20.000000000000043"/>
    <line x1="82.48868116259058" y1="20.000000000000043" x2="81.66025403784438" y2="18.00000000000003"/>
    <line x1="81.66025403784438" y1="18.00000000000003" x2="80.07106781186548" y2="15.928932188134553"/>
    <line x1="80.07106781186548" y1="15.928932188134553" x2="78.0" y2="14.339745962155632"/>
    <line x1="78.0" y1="14.339745962155632" x2="75.58819045102521" y2="13.34074173710934"/>
    <line x1="75.58819045102521" y1="13.34074173710934" x2="73.00000000000001" y2="13.000000000000028"/>
    <line x1="73.00000000000001" y1="13.000000000000028" x2="63.0" y2="13.000000000000028"/>
    <line x1="64.0" y1="133.00000000000006" x2="78.0" y2="133.00000000000006"/>
    <line x1="78.0" y1="133.00000000000006" x2="78.0" y2="136.00000000000006"/>
    <line x1="78.0" y1="136.00000000000006" x2="64.00000000000001" y2="136.00000000000006"/>
    <line x1="64.00000000000001" y1="136.00000000000006" x2="64.0" y2="133.00000000000006"/>
    <line x1="78.0" y1="47.00000000000003" x2="64.0" y2="47.00000000000003"/>
    <line x1="64.0" y1="47.00000000000003" x2="64.0" y2="44.00000000000004"/>
    <line x1="64.0" y1="44.00000000000004" x2="78.0" y2="44.00000000000004"/>
    <line x1="78.0" y1="44.00000000000004" x2="78.0" y2="47.00000000000003"/>
  </g>
</svg>
