<?xml version="1.0" standalone="no"?>
<!DOCTYPE svg PUBLIC "-//W3C//DTD SVG 1.1//EN" "http://www.w3.org/Graphics/SVG/1.1/DTD/svg11.dtd">
<svg width="65.50000000000003mm" height="174.00000000000006mm"
 viewBox="0 0 65.50000000000003 174.00000000000006"
 xmlns="http://www.w3.org/2000/svg" version="1.1"
 xmlns:xlink="http://www.w3.org/1999/xlink">
<desc>Output from Flights of Ideas SVG Sketchup Plugin</desc>

  <g id="face0" fill="none" stroke="#0000FF" stroke-width="1" stroke-miterlimit="4" stroke-dasharray="none" stroke-linejoin="round" stroke-linecap="round">
    <line x1="23.0" y1="164.00000000000006" x2="45.5" y2="164.00000000000006"/>
    <line x1="45.5" y1="164.00000000000006" x2="48.08819045102521" y2="163.65925826289052"/>
    <line x1="48.08819045102521" y1="163.65925826289052" x2="50.50000000000003" y2="162.66025403784448"/>
    <line x1="50.50000000000003" y1="162.66025403784448" x2="52.571067811865476" y2="161.07106781186545"/>
    <line x1="52.571067811865476" y1="161.07106781186545" x2="54.160254037844425" y2="159.00000000000003"/>
    <line x1="54.160254037844425" y1="159.00000000000003" x2="54.98868116259058" y2="157.0"/>
    <line x1="54.98868116259058" y1="157.0" x2="55.15925826289069" y2="156.5881904510252"/>
    <line x1="55.15925826289069" y1="156.5881904510252" x2="55.50000000000003" y2="154.00000000000003"/>
    <line x1="55.50000000000003" y1="154.00000000000003" x2="55.50000000000003" y2="20.000000000000014"/>
    <line x1="55.50000000000003" y1="20.000000000000014" x2="55.15925826289069" y2="17.411809548974787"/>
    <line x1="55.15925826289069" y1="17.411809548974787" x2="54.98868116259061" y2="17.0"/>
    <line x1="54.98868116259061" y1="17.0" x2="54.16025403784437" y2="15.0"/>
    <line x1="54.16025403784437" y1="15.0" x2="52.571067811865476" y2="12.928932188134553"/>
    <line x1="52.571067811865476" y1="12.928932188134553" x2="50.50000000000003" y2="11.339745962155604"/>
    <line x1="50.50000000000003" y1="11.339745962155604" x2="48.08819045102521" y2="10.34074173710934"/>
    <line x1="48.08819045102521" y1="10.34074173710934" x2="45.5" y2="10.0"/>
    <line x1="45.5" y1="10.0" x2="23.0" y2="10.0"/>
    <line x1="23.0" y1="10.0" x2="20.411809548974816" y2="10.340741737109369"/>
    <line x1="20.411809548974816" y1="10.340741737109369" x2="18.00000000000003" y2="11.339745962155604"/>
    <line x1="18.00000000000003" y1="11.339745962155604" x2="15.928932188134524" y2="12.928932188134524"/>
    <line x1="15.928932188134524" y1="12.928932188134524" x2="14.339745962155632" y2="15.0"/>
    <line x1="14.339745962155632" y1="15.0" x2="13.51131883740942" y2="17.00000000000003"/>
    <line x1="13.51131883740942" y1="17.00000000000003" x2="13.34074173710934" y2="17.411809548974787"/>
    <line x1="13.34074173710934" y1="17.411809548974787" x2="13.0" y2="20.000000000000014"/>
    <line x1="13.0" y1="20.000000000000014" x2="13.0" y2="67.00000000000004"/>
    <line x1="13.0" y1="67.00000000000004" x2="11.0" y2="67.00000000000004"/>
    <line x1="11.0" y1="67.00000000000004" x2="10.741180954897487" y2="67.03407417371098"/>
    <line x1="10.741180954897487" y1="67.03407417371098" x2="10.5" y2="67.13397459621561"/>
    <line x1="10.5" y1="67.13397459621561" x2="10.292893218813447" y2="67.29289321881349"/>
    <line x1="10.292893218813447" y1="67.29289321881349" x2="10.13397459621558" y2="67.50000000000007"/>
    <line x1="10.13397459621558" y1="67.50000000000007" x2="10.034074173710934" y2="67.74118095489752"/>
    <line x1="10.034074173710934" y1="67.74118095489752" x2="10.0" y2="68.00000000000004"/>
    <line x1="10.0" y1="68.00000000000004" x2="10.0" y2="87.00000000000006"/>
    <line x1="10.0" y1="87.00000000000006" x2="10.0" y2="106.00000000000007"/>
    <line x1="10.0" y1="106.00000000000007" x2="10.034074173710934" y2="106.25881904510256"/>
    <line x1="10.034074173710934" y1="106.25881904510256" x2="10.13397459621558" y2="106.50000000000004"/>
    <line x1="10.13397459621558" y1="106.50000000000004" x2="10.292893218813447" y2="106.70710678118661"/>
    <line x1="10.292893218813447" y1="106.70710678118661" x2="10.5" y2="106.8660254037845"/>
    <line x1="10.5" y1="106.8660254037845" x2="10.741180954897487" y2="106.96592582628911"/>
    <line x1="10.741180954897487" y1="106.96592582628911" x2="11.0" y2="107.00000000000006"/>
    <line x1="11.0" y1="107.00000000000006" x2="13.0" y2="107.00000000000006"/>
    <line x1="13.0" y1="107.00000000000006" x2="13.0" y2="154.00000000000006"/>
    <line x1="13.0" y1="154.00000000000006" x2="13.34074173710934" y2="156.58819045102527"/>
    <line x1="13.34074173710934" y1="156.58819045102527" x2="13.51131883740942" y2="157.00000000000006"/>
    <line x1="13.51131883740942" y1="157.00000000000006" x2="14.339745962155604" y2="159.00000000000006"/>
    <line x1="14.339745962155604" y1="159.00000000000006" x2="15.928932188134524" y2="161.0710678118655"/>
    <line x1="15.928932188134524" y1="161.0710678118655" x2="18.00000000000003" y2="162.66025403784445"/>
    <line x1="18.00000000000003" y1="162.66025403784445" x2="20.411809548974816" y2="163.65925826289072"/>
    <line x1="20.411809548974816" y1="163.65925826289072" x2="23.0" y2="164.00000000000006"/>
    <line x1="53.0" y1="107.00000000000001" x2="50.0" y2="107.00000000000003"/>
    <line x1="50.0" y1="107.00000000000003" x2="50.0" y2="67.00000000000003"/>
    <line x1="50.0" y1="67.00000000000003" x2="53.0" y2="67.00000000000003"/>
    <line x1="53.0" y1="67.00000000000003" x2="53.0" y2="107.00000000000001"/>
  </g>
</svg>
