<?xml version="1.0" standalone="no"?>
<!DOCTYPE svg PUBLIC "-//W3C//DTD SVG 1.1//EN" "http://www.w3.org/Graphics/SVG/1.1/DTD/svg11.dtd">
<svg width="191.4mm" height="65.0000000000001mm"
 viewBox="0 0 191.4 65.0000000000001"
 xmlns="http://www.w3.org/2000/svg" version="1.1"
 xmlns:xlink="http://www.w3.org/1999/xlink">
<desc>Output from Flights of Ideas SVG Sketchup Plugin</desc>

  <g id="face0" fill="none" stroke="rgb(0,0,255)" stroke-width="0.5" stroke-miterlimit="4" stroke-dasharray="none" stroke-linejoin="round" stroke-linecap="round">
    <line x1="175.7" y1="45.0000000000001" x2="175.7" y2="42.5000000000001"/>
    <line x1="175.7" y1="42.5000000000001" x2="179.4" y2="42.5"/>
    <line x1="179.4" y1="42.5" x2="179.917638090205" y2="42.4318516525782"/>
    <line x1="179.917638090205" y1="42.4318516525782" x2="180.4" y2="42.2320508075689"/>
    <line x1="180.4" y1="42.2320508075689" x2="180.814213562373" y2="41.9142135623731"/>
    <line x1="180.814213562373" y1="41.9142135623731" x2="181.132050807569" y2="41.5000000000001"/>
    <line x1="181.132050807569" y1="41.5000000000001" x2="181.331851652578" y2="41.0176380902051"/>
    <line x1="181.331851652578" y1="41.0176380902051" x2="181.4" y2="40.5000000000001"/>
    <line x1="181.4" y1="40.5000000000001" x2="181.4" y2="24.5000000000001"/>
    <line x1="181.4" y1="24.5000000000001" x2="181.331851652578" y2="23.982361909795"/>
    <line x1="181.331851652578" y1="23.982361909795" x2="181.132050807569" y2="23.5000000000001"/>
    <line x1="181.132050807569" y1="23.5000000000001" x2="180.814213562373" y2="23.085786437627"/>
    <line x1="180.814213562373" y1="23.085786437627" x2="180.4" y2="22.7679491924312"/>
    <line x1="180.4" y1="22.7679491924312" x2="179.917638090205" y2="22.5681483474219"/>
    <line x1="179.917638090205" y1="22.5681483474219" x2="179.4" y2="22.5000000000001"/>
    <line x1="179.4" y1="22.5000000000001" x2="175.7" y2="22.5000000000001"/>
    <line x1="175.7" y1="22.5000000000001" x2="175.7" y2="20.0000000000001"/>
    <line x1="175.7" y1="20.0000000000001" x2="175.359258262891" y2="17.4118095489749"/>
    <line x1="175.359258262891" y1="17.4118095489749" x2="174.360254037844" y2="15.0000000000001"/>
    <line x1="174.360254037844" y1="15.0000000000001" x2="172.771067811865" y2="12.9289321881346"/>
    <line x1="172.771067811865" y1="12.9289321881346" x2="170.7" y2="11.3397459621557"/>
    <line x1="170.7" y1="11.3397459621557" x2="168.288190451025" y2="10.3407417371094"/>
    <line x1="168.288190451025" y1="10.3407417371094" x2="165.7" y2="10.0000000000001"/>
    <line x1="165.7" y1="10.0000000000001" x2="25.7" y2="10.0"/>
    <line x1="25.7" y1="10.0" x2="23.1118095489748" y2="10.3407417371094"/>
    <line x1="23.1118095489748" y1="10.3407417371094" x2="20.7" y2="11.3397459621557"/>
    <line x1="20.7" y1="11.3397459621557" x2="18.6289321881345" y2="12.9289321881346"/>
    <line x1="18.6289321881345" y1="12.9289321881346" x2="17.0397459621556" y2="15.0000000000001"/>
    <line x1="17.0397459621556" y1="15.0000000000001" x2="16.0407417371093" y2="17.4118095489749"/>
    <line x1="16.0407417371093" y1="17.4118095489749" x2="15.7" y2="20.0"/>
    <line x1="15.7" y1="20.0" x2="15.7" y2="22.5000000000002"/>
    <line x1="15.7" y1="22.5000000000002" x2="12.0" y2="22.5"/>
    <line x1="12.0" y1="22.5" x2="11.482361909795" y2="22.5681483474219"/>
    <line x1="11.482361909795" y1="22.5681483474219" x2="11.0" y2="22.7679491924312"/>
    <line x1="11.0" y1="22.7679491924312" x2="10.5857864376269" y2="23.085786437627"/>
    <line x1="10.5857864376269" y1="23.085786437627" x2="10.2679491924311" y2="23.5000000000001"/>
    <line x1="10.2679491924311" y1="23.5000000000001" x2="10.0681483474219" y2="23.982361909795"/>
    <line x1="10.0681483474219" y1="23.982361909795" x2="10.0" y2="24.4999999999999"/>
    <line x1="10.0" y1="24.4999999999999" x2="10.0" y2="40.5000000000004"/>
    <line x1="10.0" y1="40.5000000000004" x2="10.0681483474219" y2="41.017638090204"/>
    <line x1="10.0681483474219" y1="41.017638090204" x2="10.2679491924311" y2="41.499999999999"/>
    <line x1="10.2679491924311" y1="41.499999999999" x2="10.585786437627" y2="41.9142135623727"/>
    <line x1="10.585786437627" y1="41.9142135623727" x2="11.0" y2="42.2320508075683"/>
    <line x1="11.0" y1="42.2320508075683" x2="11.482361909795" y2="42.4318516525766"/>
    <line x1="11.482361909795" y1="42.4318516525766" x2="12.0" y2="42.5000000000006"/>
    <line x1="12.0" y1="42.5000000000006" x2="15.7" y2="42.5000000000004"/>
    <line x1="15.7" y1="42.5000000000004" x2="15.7" y2="45.0000000000001"/>
    <line x1="15.7" y1="45.0000000000001" x2="16.0407417371093" y2="47.5881904510257"/>
    <line x1="16.0407417371093" y1="47.5881904510257" x2="17.0397459621557" y2="50.0000000000004"/>
    <line x1="17.0397459621557" y1="50.0000000000004" x2="18.6289321881345" y2="52.0710678118653"/>
    <line x1="18.6289321881345" y1="52.0710678118653" x2="20.7" y2="53.6602540378447"/>
    <line x1="20.7" y1="53.6602540378447" x2="23.1118095489748" y2="54.6592582628907"/>
    <line x1="23.1118095489748" y1="54.6592582628907" x2="25.7" y2="54.9999999999999"/>
    <line x1="25.7" y1="54.9999999999999" x2="165.7" y2="55.0000000000001"/>
    <line x1="165.7" y1="55.0000000000001" x2="168.288190451025" y2="54.6592582628908"/>
    <line x1="168.288190451025" y1="54.6592582628908" x2="170.7" y2="53.6602540378444"/>
    <line x1="170.7" y1="53.6602540378444" x2="172.771067811865" y2="52.0710678118655"/>
    <line x1="172.771067811865" y1="52.0710678118655" x2="174.360254037844" y2="50.0000000000001"/>
    <line x1="174.360254037844" y1="50.0000000000001" x2="175.359258262891" y2="47.5881904510253"/>
    <line x1="175.359258262891" y1="47.5881904510253" x2="175.7" y2="45.0000000000001"/>
    <line x1="115.7" y1="21.2000000000001" x2="75.7" y2="21.2000000000001"/>
    <line x1="75.7" y1="21.2000000000001" x2="75.7" y2="15.0000000000001"/>
    <line x1="75.7" y1="15.0000000000001" x2="115.7" y2="15.0000000000001"/>
    <line x1="115.7" y1="15.0000000000001" x2="115.7" y2="21.2000000000001"/>
  </g>
</svg>
