<?xml version="1.0" standalone="no"?>
<!DOCTYPE svg PUBLIC "-//W3C//DTD SVG 1.1//EN" "http://www.w3.org/Graphics/SVG/1.1/DTD/svg11.dtd">
<svg width="70.7mm" height="180.0mm"
 viewBox="0 0 70.7 180.0"
 xmlns="http://www.w3.org/2000/svg" version="1.1"
 xmlns:xlink="http://www.w3.org/1999/xlink">
<desc>Output from Flights of Ideas SVG Sketchup Plugin</desc>

  <g id="face0" fill="none" stroke="rgb(0,0,255)" stroke-width="0.5" stroke-miterlimit="4" stroke-dasharray="none" stroke-linejoin="round" stroke-linecap="round">
    <line x1="15.7" y1="20.0" x2="15.7" y2="70.0"/>
    <line x1="15.7" y1="70.0" x2="12.0" y2="70.0"/>
    <line x1="12.0" y1="70.0" x2="11.4823619097949" y2="70.0681483474219"/>
    <line x1="11.4823619097949" y1="70.0681483474219" x2="11.0" y2="70.2679491924311"/>
    <line x1="11.0" y1="70.2679491924311" x2="10.5857864376269" y2="70.5857864376269"/>
    <line x1="10.5857864376269" y1="70.5857864376269" x2="10.2679491924311" y2="71.0"/>
    <line x1="10.2679491924311" y1="71.0" x2="10.0681483474219" y2="71.482361909795"/>
    <line x1="10.0681483474219" y1="71.482361909795" x2="10.0" y2="72.0"/>
    <line x1="10.0" y1="72.0" x2="10.0" y2="108.0"/>
    <line x1="10.0" y1="108.0" x2="10.0681483474219" y2="108.517638090205"/>
    <line x1="10.0681483474219" y1="108.517638090205" x2="10.2679491924311" y2="109.0"/>
    <line x1="10.2679491924311" y1="109.0" x2="10.5857864376269" y2="109.414213562373"/>
    <line x1="10.5857864376269" y1="109.414213562373" x2="11.0" y2="109.732050807569"/>
    <line x1="11.0" y1="109.732050807569" x2="11.4823619097949" y2="109.931851652578"/>
    <line x1="11.4823619097949" y1="109.931851652578" x2="12.0" y2="110.0"/>
    <line x1="12.0" y1="110.0" x2="15.7" y2="110.0"/>
    <line x1="15.7" y1="110.0" x2="15.7" y2="160.0"/>
    <line x1="15.7" y1="160.0" x2="16.0407417371093" y2="162.588190451025"/>
    <line x1="16.0407417371093" y1="162.588190451025" x2="17.0397459621556" y2="165.0"/>
    <line x1="17.0397459621556" y1="165.0" x2="18.6289321881345" y2="167.071067811865"/>
    <line x1="18.6289321881345" y1="167.071067811865" x2="20.7" y2="168.660254037844"/>
    <line x1="20.7" y1="168.660254037844" x2="23.1118095489748" y2="169.659258262891"/>
    <line x1="23.1118095489748" y1="169.659258262891" x2="25.7" y2="170.0"/>
    <line x1="25.7" y1="170.0" x2="50.7" y2="170.0"/>
    <line x1="50.7" y1="170.0" x2="53.2881904510252" y2="169.659258262891"/>
    <line x1="53.2881904510252" y1="169.659258262891" x2="55.7" y2="168.660254037844"/>
    <line x1="55.7" y1="168.660254037844" x2="57.7710678118655" y2="167.071067811865"/>
    <line x1="57.7710678118655" y1="167.071067811865" x2="59.3602540378444" y2="165.0"/>
    <line x1="59.3602540378444" y1="165.0" x2="60.3592582628907" y2="162.588190451025"/>
    <line x1="60.3592582628907" y1="162.588190451025" x2="60.7" y2="160.0"/>
    <line x1="60.7" y1="160.0" x2="60.7" y2="20.0"/>
    <line x1="60.7" y1="20.0" x2="60.3592582628907" y2="17.4118095489748"/>
    <line x1="60.3592582628907" y1="17.4118095489748" x2="59.3602540378444" y2="15.0"/>
    <line x1="59.3602540378444" y1="15.0" x2="57.7710678118655" y2="12.9289321881345"/>
    <line x1="57.7710678118655" y1="12.9289321881345" x2="55.7" y2="11.3397459621556"/>
    <line x1="55.7" y1="11.3397459621556" x2="53.2881904510252" y2="10.3407417371093"/>
    <line x1="53.2881904510252" y1="10.3407417371093" x2="50.7" y2="10.0"/>
    <line x1="50.7" y1="10.0" x2="25.7" y2="10.0"/>
    <line x1="25.7" y1="10.0" x2="23.1118095489748" y2="10.3407417371093"/>
    <line x1="23.1118095489748" y1="10.3407417371093" x2="20.7" y2="11.3397459621556"/>
    <line x1="20.7" y1="11.3397459621556" x2="18.6289321881345" y2="12.9289321881345"/>
    <line x1="18.6289321881345" y1="12.9289321881345" x2="17.0397459621556" y2="15.0"/>
    <line x1="17.0397459621556" y1="15.0" x2="16.0407417371093" y2="17.4118095489748"/>
    <line x1="16.0407417371093" y1="17.4118095489748" x2="15.7" y2="20.0"/>
    <line x1="49.5" y1="110.0" x2="49.5" y2="70.0"/>
    <line x1="49.5" y1="70.0" x2="55.7" y2="70.0"/>
    <line x1="55.7" y1="70.0" x2="55.7" y2="110.0"/>
    <line x1="55.7" y1="110.0" x2="49.5" y2="110.0"/>
  </g>
</svg>
